<svg xmlns="http://www.w3.org/2000/svg" viewBox="0 0 216 481.11"><defs><style>.cls-1{fill:#f3cb71;}.cls-2{fill:#aa6c22;stroke:#aa6c22;stroke-miterlimit:10;stroke-width:0.5px;}.cls-3{fill:#e0ac48;}.cls-4{fill:#c58e3a;}</style></defs><title>Asset 4dawdwd</title><g id="Layer_2" data-name="Layer 2"><g id="Layer_1-2" data-name="Layer 1"><polygon class="cls-1" points="198.68 113.13 122.79 37.24 93.61 66.43 140.6 113.42 73.86 180 129.72 180 198.68 113.13"/><polygon class="cls-1" points="18 65.56 92.45 142.86 122.18 114.23 76.08 66.36 144.05 1.05 88.2 0 18 65.56"/><rect class="cls-1" x="54" y="198" width="108" height="243"/><path class="cls-2" d="M120.21,394.31a15.54,15.54,0,0,1,1.15,6.41c0,6.84-4.32,12-12.27,12-7.6,0-12.74-5.15-12.74-12.67a13,13,0,0,1,1.08-5.76L100,395a11.41,11.41,0,0,0-1,4.9c0,5.69,3.64,9.47,10,9.47,5.94,0,9.75-3.42,9.75-9.32a12.54,12.54,0,0,0-1-5.11Z"/><path class="cls-2" d="M117.18,390.82a11.09,11.09,0,0,0,1.58-5.61c0-3.2-1.69-5.08-4.14-5.08-2.27,0-3.56,1.3-4.82,4.57-1.4,4-3.46,6.41-6.87,6.41-3.78,0-6.59-3.13-6.59-7.85a11,11,0,0,1,1.19-5.36l2.56.86a9.65,9.65,0,0,0-1.15,4.61c0,3.31,2,4.57,3.64,4.57,2.27,0,3.38-1.48,4.68-4.82,1.58-4.1,3.56-6.19,7.13-6.19,3.74,0,7,2.77,7,8.49a12.55,12.55,0,0,1-1.55,6.19Z"/><path class="cls-2" d="M117.18,373.07a11.09,11.09,0,0,0,1.58-5.62c0-3.2-1.69-5.08-4.14-5.08-2.27,0-3.56,1.3-4.82,4.57-1.4,4-3.46,6.41-6.87,6.41-3.78,0-6.59-3.13-6.59-7.85a11,11,0,0,1,1.19-5.36l2.56.86a9.65,9.65,0,0,0-1.15,4.61c0,3.31,2,4.57,3.64,4.57,2.27,0,3.38-1.48,4.68-4.82,1.58-4.1,3.56-6.19,7.13-6.19,3.74,0,7,2.77,7,8.49a12.54,12.54,0,0,1-1.55,6.19Z"/><path class="cls-2" d="M97.06,347.26a44.83,44.83,0,0,1-.5-6.66c0-4.5,1-7.7,3-9.83s4.79-3.42,8.71-3.42,7.2,1.22,9.43,3.49,3.49,6,3.49,10.73a50.38,50.38,0,0,1-.29,5.69Zm21.45-3.13a19.83,19.83,0,0,0,.18-3.17c0-6.7-3.74-10.33-10.29-10.33-5.72,0-9.36,3.2-9.36,9.83a17.74,17.74,0,0,0,.32,3.67Z"/><path class="cls-2" d="M109.63,310.72v9.43h8.75V309.64H121v13.64H96.74v-13.1h2.63v10H107v-9.43Z"/><path class="cls-2" d="M117.18,306a11.09,11.09,0,0,0,1.58-5.62c0-3.2-1.69-5.08-4.14-5.08-2.27,0-3.56,1.3-4.82,4.57-1.4,4-3.46,6.41-6.87,6.41-3.78,0-6.59-3.13-6.59-7.85a11,11,0,0,1,1.19-5.36l2.56.86a9.65,9.65,0,0,0-1.15,4.61c0,3.31,2,4.57,3.64,4.57,2.27,0,3.38-1.48,4.68-4.82,1.58-4.1,3.56-6.19,7.13-6.19,3.74,0,7,2.77,7,8.49a12.54,12.54,0,0,1-1.55,6.19Z"/><path class="cls-2" d="M96.74,284.69H121v3.13H96.74Z"/><path class="cls-2" d="M119.92,260.75a22.6,22.6,0,0,1,1.33,7.45c0,3.67-.94,6.7-3.2,9.07a12.48,12.48,0,0,1-9,3.38c-7.24,0-12.53-5-12.53-13.14a15,15,0,0,1,1.12-6l2.56.76a12.59,12.59,0,0,0-1,5.36c0,5.9,3.67,9.75,9.75,9.75s9.79-3.71,9.79-9.36a10.22,10.22,0,0,0-.65-4.18h-7.24v4.93h-2.52v-8Z"/><path class="cls-2" d="M121,256H96.74v-3.42L109,244.77a68.7,68.7,0,0,1,7.88-4.36l0-.07c-3.24.29-6.19.36-10,.36H96.74v-3H121v3.17l-12.31,7.7a77,77,0,0,1-8.1,4.54l0,.11c3.06-.18,6-.25,10-.25H121Z"/><rect class="cls-1" y="458.61" width="216" height="22.5"/><rect class="cls-3" x="13.5" y="441" width="189" height="17.61"/><rect class="cls-4" x="45" y="180" width="126" height="261"/><path class="cls-1" d="M132.66,198H83.34A11.34,11.34,0,0,1,72,209.34V411.66A11.34,11.34,0,0,1,83.34,423h49.32A11.34,11.34,0,0,1,144,411.66V209.34A11.34,11.34,0,0,1,132.66,198Z"/><path class="cls-2" d="M119.21,385.31a15.54,15.54,0,0,1,1.15,6.41c0,6.84-4.32,12-12.27,12-7.6,0-12.74-5.15-12.74-12.67a13,13,0,0,1,1.08-5.76L99,386a11.4,11.4,0,0,0-1,4.9c0,5.69,3.64,9.47,10,9.47,5.94,0,9.75-3.42,9.75-9.32a12.55,12.55,0,0,0-1-5.11Z"/><path class="cls-2" d="M116.18,381.82a11.09,11.09,0,0,0,1.58-5.62c0-3.2-1.69-5.08-4.14-5.08-2.27,0-3.56,1.3-4.82,4.57-1.4,4-3.46,6.41-6.87,6.41-3.78,0-6.59-3.13-6.59-7.85a11,11,0,0,1,1.19-5.36l2.56.86a9.65,9.65,0,0,0-1.15,4.61c0,3.31,2,4.57,3.64,4.57,2.27,0,3.38-1.48,4.68-4.82,1.58-4.1,3.56-6.19,7.13-6.19,3.74,0,7,2.77,7,8.49a12.54,12.54,0,0,1-1.55,6.19Z"/><path class="cls-2" d="M116.18,364.07a11.09,11.09,0,0,0,1.58-5.62c0-3.2-1.69-5.08-4.14-5.08-2.27,0-3.56,1.3-4.82,4.57-1.4,4-3.46,6.41-6.87,6.41-3.78,0-6.59-3.13-6.59-7.85a11,11,0,0,1,1.19-5.36l2.56.86a9.65,9.65,0,0,0-1.15,4.61c0,3.31,2,4.57,3.64,4.57,2.27,0,3.38-1.48,4.68-4.82,1.58-4.1,3.56-6.19,7.13-6.19,3.74,0,7,2.77,7,8.49a12.54,12.54,0,0,1-1.55,6.19Z"/><path class="cls-2" d="M96.06,338.26a44.83,44.83,0,0,1-.5-6.66c0-4.5,1-7.7,3-9.83s4.79-3.42,8.71-3.42,7.2,1.22,9.43,3.49,3.49,6,3.49,10.73a50.38,50.38,0,0,1-.29,5.69Zm21.45-3.13a19.83,19.83,0,0,0,.18-3.17c0-6.7-3.74-10.33-10.29-10.33-5.72,0-9.36,3.2-9.36,9.83a17.74,17.74,0,0,0,.32,3.67Z"/><path class="cls-2" d="M108.63,301.72v9.43h8.75V300.64H120v13.64H95.74v-13.1h2.63v10H106v-9.43Z"/><path class="cls-2" d="M116.18,297a11.09,11.09,0,0,0,1.58-5.62c0-3.2-1.69-5.08-4.14-5.08-2.27,0-3.56,1.3-4.82,4.57-1.4,4-3.46,6.41-6.87,6.41-3.78,0-6.59-3.13-6.59-7.85a11,11,0,0,1,1.19-5.36l2.56.86a9.65,9.65,0,0,0-1.15,4.61c0,3.31,2,4.57,3.64,4.57,2.27,0,3.38-1.48,4.68-4.82,1.58-4.1,3.56-6.19,7.13-6.19,3.74,0,7,2.77,7,8.49a12.54,12.54,0,0,1-1.55,6.19Z"/><path class="cls-2" d="M95.74,275.69H120v3.13H95.74Z"/><path class="cls-2" d="M118.92,251.75a22.6,22.6,0,0,1,1.33,7.45c0,3.67-.94,6.7-3.2,9.07a12.48,12.48,0,0,1-9,3.38c-7.24,0-12.53-5-12.53-13.14a15,15,0,0,1,1.12-6l2.56.76a12.59,12.59,0,0,0-1,5.36c0,5.9,3.67,9.75,9.75,9.75s9.79-3.71,9.79-9.36a10.22,10.22,0,0,0-.65-4.18h-7.24v4.93h-2.52v-8Z"/><path class="cls-2" d="M120,247H95.74v-3.42L108,235.77a68.7,68.7,0,0,1,7.88-4.36l0-.07c-3.24.29-6.19.36-10,.36H95.74v-3H120v3.17l-12.31,7.7a77,77,0,0,1-8.1,4.54l0,.11c3.06-.18,6-.25,10-.25H120Z"/></g></g></svg>