<svg xmlns="http://www.w3.org/2000/svg" viewBox="0 0 232.28 453.5"><defs><style>.cls-1{fill:#c58e3a;}.cls-2{fill:#f3cb71;}.cls-3{fill:#e0ac48;}.cls-4,.cls-5{fill:#aa6c22;}.cls-4{stroke:#aa6c22;stroke-miterlimit:10;stroke-width:0.5px;}</style></defs><title>Asset 2dawdwd</title><g id="Layer_2" data-name="Layer 2"><g id="Layer_1-2" data-name="Layer 1"><polygon class="cls-1" points="57.5 417.5 111.5 201.5 165.5 417.5 57.5 417.5"/><rect class="cls-2" x="3.5" y="431" width="216" height="22.5"/><rect class="cls-3" x="21.5" y="413.39" width="180" height="17.61"/><path class="cls-2" d="M111.5,223A111.5,111.5,0,1,1,223,111.5,111.63,111.63,0,0,1,111.5,223Zm0-198A86.5,86.5,0,1,0,198,111.5,86.6,86.6,0,0,0,111.5,25Z"/><path class="cls-4" d="M70.69,194.53A7,7,0,0,0,68.07,192c-1.77-1-3.32-.6-4.06.75s-.36,2.36,1.07,4c1.76,2,2.49,3.85,1.46,5.74-1.14,2.09-3.72,2.69-6.33,1.27a6.94,6.94,0,0,1-2.6-2.28l1.25-1.15a6.09,6.09,0,0,0,2.2,2c1.83,1,3.12.29,3.62-.63.69-1.25.21-2.32-1.25-4-1.79-2.12-2.34-3.84-1.26-5.81s3.64-3,6.8-1.29a7.9,7.9,0,0,1,3,2.73Z"/><path class="cls-4" d="M52.09,198.45l8.5-12.69,1.64,1.1-8.5,12.69Z"/><path class="cls-4" d="M47.2,192.77l3.61,2.92L49.76,197,41,189.89,42,188.58l3.63,2.93,8.55-10.58,1.55,1.25Z"/><path class="cls-4" d="M39.07,176.4l4.14,4.26,3.95-3.84-4.61-4.75,1.19-1.15,6,6.16-11,10.65L33,181.82l1.19-1.15,4.38,4.5L42,181.8l-4.14-4.26Z"/><path class="cls-4" d="M25.8,159.15c4.4-2.88,8.48-1.73,10.62,1.53s1.14,7.46-2.73,10c-4.06,2.66-8.37,1.87-10.6-1.55S22,161.63,25.8,159.15Zm6.7,9.79c2.73-1.79,4.21-4.87,2.51-7.47s-5.09-2.52-8-.62c-2.54,1.66-4.33,4.73-2.53,7.48S29.69,170.77,32.5,168.94Z"/><path class="cls-4" d="M17.69,159.46,14.2,152l1.5-.7L18.35,157l4.6-2.15-2.45-5.24,1.48-.69,2.45,5.24,6.26-2.93.84,1.79Z"/><path class="cls-4" d="M12.08,140.74l1.27,4.47-1.61.46L8.65,134.79l1.61-.46,1.27,4.49,13.09-3.71.54,1.92Z"/><path class="cls-4" d="M7.7,129.57,14,128.7l-1-7.32-6.33.87-.27-2,15.13-2.08.27,2-7.1,1,1,7.32,7.1-1,.27,2L8,131.52Z"/><path class="cls-4" d="M14.34,107.34v5.94h5.51v-6.62h1.65l0,8.59-15.28,0,0-8.25H7.88v6.28H12.7v-5.94Z"/><path class="cls-4" d="M7.24,97.18A28.33,28.33,0,0,1,7.73,93c.54-2.78,1.57-4.64,3-5.71a7,7,0,0,1,5.8-1.07A8.08,8.08,0,0,1,22,89.51c1.13,1.67,1.44,4.13.87,7.05A31.9,31.9,0,0,1,22,100Zm13.64.64a12.55,12.55,0,0,0,.49-1.94c.8-4.14-1.08-6.84-5.13-7.62-3.53-.71-6.17.86-7,5A11.19,11.19,0,0,0,9,95.52Z"/><path class="cls-4" d="M21.3,82.19l4,3.11-.69,1.92L12,77.2l.8-2.24,16.14.22-.71,2-5.08-.08ZM21.52,77l-4.65-.07c-1.05,0-2-.11-2.89-.19l0,0c.78.52,1.57,1.06,2.35,1.65L20,81.29Z"/><path class="cls-4" d="M30.53,72.17l-5.8-2.89-10,.4,1-2,4.74,0c1.3,0,2.33,0,3.5,0l0,0c-.7-.83-1.36-1.74-2.13-2.79L19,61l1-2,5.57,8.5,5.82,2.9Z"/><path class="cls-5" d="M179.29,113.21l23.93-12c23.93-12,29.06-61.75,29.06-61.75l-74.59,50a4.88,4.88,0,0,1-7.27-2.29,20.29,20.29,0,0,0-4.18-6.48c-15.2-16.21-34.19,3.41-34.19,3.41L57.5,89l61.39,4.5L122.21,95a9.69,9.69,0,0,1,5.58,8.33c.23,4.58,2,12.56,8.76,25.62,8.49,16.48,27.68,19.6,39.2,19.9a11.37,11.37,0,0,1,2,.24l23.31,1-27,2.57c1.37,1.53,7.89,7.1,7.89,7.1l11.82,1-8.8,4.36,1.71,5.86,7.43-2L190,175.9l1.59,8.55,5.42-4.58-4.42,10,6,32.73s5.25-47.29,12.47-80.09C217.58,113.23,179.29,113.21,179.29,113.21ZM131.9,87.41a3.2,3.2,0,1,1,2.59-3.71A3.2,3.2,0,0,1,131.9,87.41Z"/><polygon class="cls-5" points="184.96 68.49 184.96 41.51 153.95 87.46 184.96 68.49"/></g></g></svg>