<svg xmlns="http://www.w3.org/2000/svg" viewBox="0 0 145.79 243.52"><defs><style>.cls-1{fill:#f3cb71;}.cls-2{fill:#c58e3a;}.cls-3,.cls-5{fill:#aa6c22;}.cls-4{fill:#e0ac48;}.cls-5{stroke:#aa6c22;stroke-miterlimit:10;stroke-width:0.5px;}</style></defs><title>Asset 1dawdwd</title><g id="Layer_2" data-name="Layer 2"><g id="Layer_1-2" data-name="Layer 1"><path class="cls-1" d="M76.15,82.26V72.17h-4.6V82.26c0,5.84-6.37,13.84-6.37,13.84H82.53S76.15,88.1,76.15,82.26Z"/><path class="cls-1" d="M72.81,7,29.71,98.5l-10.52-.62L4.8,83.49a15.52,15.52,0,0,1,0-21.92l57.05-57c.28-.28.57-.55.87-.8Z"/><path class="cls-1" d="M72.81,7l43.1,91.5,10.52-.62,14.39-14.39a15.52,15.52,0,0,0,0-21.92l-57.05-57c-.28-.28-.57-.55-.87-.8Z"/><polygon class="cls-2" points="116.97 101.64 73 236.63 29.23 102.26 116.97 101.64"/><path class="cls-3" d="M140.82,61.57l-57-57a15.55,15.55,0,0,0-21-.8c-.3.25-.59.52-.87.8L4.8,61.57a15.52,15.52,0,0,0,0,21.92L19.19,97.88l42.66,42.66a15.52,15.52,0,0,0,21.92,0l57-57A15.51,15.51,0,0,0,140.82,61.57Zm-5,17-57,57.05a8.52,8.52,0,0,1-12,0L29.71,98.5l-20-20a8.52,8.52,0,0,1,0-12l57-57a8.55,8.55,0,0,1,12,0l57,57A8.5,8.5,0,0,1,135.87,78.54Z"/><rect class="cls-1" x="7.09" y="229.75" width="132.19" height="13.77"/><rect class="cls-4" x="18.11" y="218.97" width="110.16" height="10.77"/><path class="cls-1" d="M134.07,120.65a135.91,135.91,0,0,0-20.7-4.09,374.74,374.74,0,0,0-40.3-2.43,374.74,374.74,0,0,0-40.3,2.43,176.86,176.86,0,0,0-21,3.77l8.66,6.21-5.93,9.22s7.33-.85,18.32-2a383,383,0,0,1,40.3-2.38,383,383,0,0,1,40.3,2.38c11,1.2,18.32,2,18.32,2l-7.53-8.68Z"/><path class="cls-5" d="M53,125.6c.18,2.31-1.12,3.65-2.84,3.79s-3.13-1.13-3.29-3.17,1-3.63,2.84-3.78S52.89,123.61,53,125.6Zm-5.2.53c.11,1.43,1,2.66,2.36,2.55s2.05-1.44,1.93-3c-.11-1.33-.92-2.67-2.36-2.56S47.73,124.65,47.85,126.13Z"/><path class="cls-5" d="M54,122.24l3.62-.23,0,.73-2.75.18.14,2.24,2.54-.16,0,.72-2.54.16.2,3-.87.06Z"/><path class="cls-5" d="M62,122.51l-2,.1,0-.74,5-.24,0,.74-2.06.1.28,6-.88,0Z"/><path class="cls-5" d="M66.58,121.58l.08,2.82,3.26-.09-.08-2.82.88,0,.2,6.74-.88,0-.09-3.16-3.26.09.09,3.16-.87,0-.2-6.74Z"/><path class="cls-5" d="M75.86,125l-2.62,0,0,2.43,2.92,0v.73l-3.79,0-.07-6.74,3.64,0v.73l-2.77,0,0,2.13,2.62,0Z"/><path class="cls-5" d="M79.5,121.48a12.41,12.41,0,0,1,1.85-.11,3.86,3.86,0,0,1,2.71.88A3.1,3.1,0,0,1,85,124.7a3.56,3.56,0,0,1-1,2.6,4.15,4.15,0,0,1-3,.92,14.3,14.3,0,0,1-1.58-.11Zm.77,6a5.48,5.48,0,0,0,.88.06,2.59,2.59,0,0,0,2.92-2.81,2.4,2.4,0,0,0-2.68-2.64,5,5,0,0,0-1,.07Z"/><path class="cls-5" d="M87,126.18l-.78,2.09-.9,0,2.54-6.65,1,0L91,128.45l-.93,0-.64-2.15Zm2.23-.6-.59-2c-.13-.45-.22-.85-.3-1.24h0c-.11.4-.24.8-.38,1.21l-.73,1.92Z"/><path class="cls-5" d="M92.67,128.54l.15-2.85-1.92-4,1,.05.85,1.91c.23.52.41.94.6,1.42h0c.21-.43.46-.86.75-1.35l1.06-1.81,1,.05-2.46,3.75-.15,2.86Z"/><path class="cls-4" d="M145.79,103.86A162,162,0,0,0,121.13,99a446.6,446.6,0,0,0-48-2.9,446.6,446.6,0,0,0-48,2.9A210.77,210.77,0,0,0,0,103.49l10.32,7.4-7.07,11s8.73-1,21.83-2.44a456.44,456.44,0,0,1,48-2.84,456.44,456.44,0,0,1,48,2.84c13.1,1.43,21.83,2.44,21.83,2.44l-9-10.35Z"/><path class="cls-5" d="M39.14,101.91A15.1,15.1,0,0,1,42,101.5a5,5,0,0,1,3.37.69,2.54,2.54,0,0,1,1.13,2.08,2.88,2.88,0,0,1-1.9,2.77v0a3.13,3.13,0,0,1,2.67,2.9,3.27,3.27,0,0,1-.89,2.48c-.8.82-2.15,1.26-4.12,1.37a18.27,18.27,0,0,1-2.43,0ZM41,106.79l1.42-.08c1.65-.09,2.57-1,2.51-2.18-.08-1.42-1.19-1.92-2.77-1.83a6.73,6.73,0,0,0-1.38.19Zm.33,5.8a8.31,8.31,0,0,0,1.32,0c1.62-.09,3.07-.77,3-2.53s-1.55-2.26-3.26-2.16l-1.29.07Z"/><path class="cls-5" d="M59.62,106.78c.14,4.17-2.32,6.47-5.41,6.58s-5.53-2.3-5.66-6c-.13-3.85,2.17-6.45,5.41-6.56S59.5,103.19,59.62,106.78Zm-9.4.52c.09,2.59,1.57,4.86,4,4.78s3.81-2.42,3.71-5.17c-.08-2.41-1.43-4.89-4-4.8S50.13,104.64,50.22,107.3Z"/><path class="cls-5" d="M72.1,106.7c0,4.18-2.5,6.4-5.6,6.42S61,110.66,61,107c0-3.85,2.36-6.39,5.6-6.4S72.08,103.1,72.1,106.7Zm-9.41.25c0,2.59,1.43,4.91,3.9,4.89s3.88-2.31,3.86-5.06c0-2.41-1.29-4.93-3.9-4.91S62.68,104.28,62.69,106.95Z"/><path class="cls-5" d="M73.92,111a5.55,5.55,0,0,0,2.79.86c1.6,0,2.56-.78,2.59-2s-.6-1.8-2.23-2.47c-2-.75-3.16-1.8-3.12-3.52,0-1.89,1.65-3.26,4-3.2a5.53,5.53,0,0,1,2.67.66l-.46,1.27a4.82,4.82,0,0,0-2.29-.63c-1.66,0-2.31.93-2.33,1.76,0,1.13.7,1.71,2.36,2.4,2,.84,3.05,1.86,3,3.64s-1.47,3.46-4.33,3.39a6.27,6.27,0,0,1-3.08-.85Z"/><path class="cls-5" d="M85.74,102.53l-3.68-.19.07-1.33,9,.46L91,102.8l-3.7-.19-.55,10.78-1.58-.08Z"/><path class="cls-5" d="M98.43,108.47l-4.71-.35-.32,4.36,5.24.39-.1,1.31-6.81-.5.89-12.1,6.54.48-.1,1.31-5-.37-.28,3.83,4.71.35Z"/><path class="cls-5" d="M101.64,102.44a16.39,16.39,0,0,1,3,0,5,5,0,0,1,3.4,1.32,3,3,0,0,1,.73,2.38,3.19,3.19,0,0,1-2.57,2.87v.05a3,3,0,0,1,1.54,2.6,19.29,19.29,0,0,0,.62,3.4l-1.61-.15a15.76,15.76,0,0,1-.53-3c-.2-1.7-.79-2.39-2.2-2.58l-1.47-.14-.5,5.23-1.56-.15Zm1,5.65,1.59.15c1.67.16,2.81-.66,2.94-2,.15-1.56-.92-2.35-2.56-2.52a6.45,6.45,0,0,0-1.55,0Z"/><path class="cls-3" d="M87.62,58.57s.45-3.51,0-14-14-20.28-14-20.28S60,34,59.53,44.53s0,14,0,14S56,60.34,56,65.6v5.27H66.55v0L68.13,73,79,73.11l1.63-2.23v0H91.13V65.6C91.13,60.34,87.62,58.57,87.62,58.57ZM74,40.47a3.42,3.42,0,1,1-3.41,3.42A3.43,3.43,0,0,1,74,40.47Z"/><polygon class="cls-4" points="80.59 70.89 78.96 73.11 68.13 73.05 66.56 70.89 80.59 70.89"/><circle class="cls-1" cx="74.25" cy="44.42" r="4.4"/></g></g></svg>