<svg xmlns="http://www.w3.org/2000/svg" viewBox="0 0 270 430.87"><defs><style>.cls-1{fill:#e5b75c;}.cls-2{fill:#cc9636;}.cls-3{fill:#f3cb71;}.cls-4{fill:#c58e3a;}.cls-5{fill:#e0ac48;}.cls-6{fill:#aa6c22;stroke:#aa6c22;stroke-miterlimit:10;stroke-width:0.5px;}</style></defs><title>Asset 3dawdwd</title><g id="Layer_2" data-name="Layer 2"><g id="Layer_1-2" data-name="Layer 1"><polygon class="cls-1" points="0 115.88 99 115.88 99 151.88 0 151.88 18 133.88 0 115.88"/><polygon class="cls-1" points="270 115.88 171 115.88 171 151.88 270 151.88 252 133.88 270 115.88"/><polygon class="cls-2" points="207 124.88 171 115.88 171 124.88 207 124.88"/><rect class="cls-3" x="27" y="408.37" width="216" height="22.5"/><rect class="cls-4" x="72" y="138.37" width="126" height="261"/><rect class="cls-5" x="45" y="390.77" width="180" height="17.61"/><rect class="cls-3" x="112.33" y="75.54" width="45.34" height="144" transform="translate(282.54 12.54) rotate(90)"/><polygon class="cls-2" points="63 124.88 99 115.88 99 124.88 63 124.88"/><path class="cls-4" d="M25.79,91.14,23.9,90l-.6,2.49a21.47,21.47,0,0,0,1.36,13.83,17.09,17.09,0,0,0,9.12,8.79l2.06.79c0-.77.11-1.54.18-2.3a25.31,25.31,0,0,0-2-12.78A21.59,21.59,0,0,0,25.79,91.14Z"/><path class="cls-4" d="M54.2,99a17.35,17.35,0,0,0-11.59,3.71,17.71,17.71,0,0,0-6.41,10.83c-.13.76-.26,1.51-.36,2.28.72-.12,1.45-.22,2.18-.32a22.48,22.48,0,0,0,11.16-4.84,20.15,20.15,0,0,0,6.57-9.61l.64-1.95Z"/><path class="cls-4" d="M33.8,68.41,32.12,67c-.33.8-.69,1.6-1,2.4a21.29,21.29,0,0,0-.71,13.94,17.61,17.61,0,0,0,2.95,5.75,16.79,16.79,0,0,0,4.75,4.22L40,94.39c.18-.75.35-1.5.55-2.24a24.89,24.89,0,0,0-.13-12.94A21.93,21.93,0,0,0,33.8,68.41Z"/><path class="cls-4" d="M60.67,80.55a17.37,17.37,0,0,0-6.22-.14,16.87,16.87,0,0,0-5.77,2,17.92,17.92,0,0,0-7.93,9.77c-.26.72-.49,1.46-.72,2.19l2.2.05a21.49,21.49,0,0,0,6.24-.78A22.89,22.89,0,0,0,54,91.27a22.24,22.24,0,0,0,4.58-3.69,19.57,19.57,0,0,0,3.31-4.8c.27-.62.6-1.2.91-1.79Z"/><path class="cls-4" d="M45.75,46.93l-1.37-1.75-1.47,2.24A23.79,23.79,0,0,0,40,54.34a20.79,20.79,0,0,0-.37,6.93,18.4,18.4,0,0,0,2,6.2,17,17,0,0,0,4.06,4.93l1.7,1.4.89-2.13a26.28,26.28,0,0,0,2-12.82,23.19,23.19,0,0,0-1.42-6.29A20.54,20.54,0,0,0,45.75,46.93Z"/><path class="cls-4" d="M69.91,63.85a17.48,17.48,0,0,0-6.08-1.34,17,17,0,0,0-6,.94,17.53,17.53,0,0,0-5.37,3.16,18.59,18.59,0,0,0-4,5.14l-1,2.05,2.17.39a21.1,21.1,0,0,0,6.25.2A22,22,0,0,0,61.66,73a21.24,21.24,0,0,0,5.07-2.78,17.6,17.6,0,0,0,4-4l1.19-1.52Z"/><path class="cls-4" d="M62.33,27.91l-.91-2c-.67.63-1.36,1.24-2,1.88a24.46,24.46,0,0,0-4.48,6.28A20.71,20.71,0,0,0,53,40.88a18.2,18.2,0,0,0,.64,6.54,16.3,16.3,0,0,0,3,5.63l1.41,1.7,1.26-1.93a24.48,24.48,0,0,0,3.06-5.87A24.75,24.75,0,0,0,64,40.63,23.43,23.43,0,0,0,62.33,27.91Z"/><path class="cls-4" d="M81.94,49.93a16.31,16.31,0,0,0-11.6-3.18,17.57,17.57,0,0,0-5.88,1.95,18.65,18.65,0,0,0-5,4.23l-1.4,1.83,2.05.79a22.31,22.31,0,0,0,6.08,1.41,22.65,22.65,0,0,0,6-.17,21.79,21.79,0,0,0,5.43-1.54c.81-.4,1.65-.78,2.43-1.24a13.73,13.73,0,0,0,2.19-1.61c.45-.43,1-.77,1.45-1.16Z"/><path class="cls-4" d="M83.47,13.33l-.35-2.22L80.7,12.49a28.94,28.94,0,0,0-3.32,2.23,23.33,23.33,0,0,0-2.73,2.74,24.24,24.24,0,0,0-2.18,3A18.67,18.67,0,0,0,71,23.65a16.75,16.75,0,0,0-1,6.53,16.3,16.3,0,0,0,1.61,6.21l1,2,1.69-1.57c.42-.38.8-.79,1.2-1.19s.79-.78,1.16-1.19a22.34,22.34,0,0,0,2-2.6c.59-.94,1.2-1.82,1.73-2.77a24.56,24.56,0,0,0,1.4-3,30.1,30.1,0,0,0,1.74-6.26A21,21,0,0,0,83.47,13.33Z"/><path class="cls-4" d="M96.66,39.71A17.3,17.3,0,0,0,92,35.66a14.39,14.39,0,0,0-5.68-2,17.25,17.25,0,0,0-3.07-.11,12.33,12.33,0,0,0-3.1.49,19.86,19.86,0,0,0-3,1.15q-.74.35-1.47.77a15.76,15.76,0,0,0-1.36,1l-1.8,1.44,1.82,1.25a22.67,22.67,0,0,0,5.56,2.81,26.61,26.61,0,0,0,5.79,1.33,20.65,20.65,0,0,0,2.79.09,17.43,17.43,0,0,0,2.75-.16,14.22,14.22,0,0,0,2.58-.61,13.32,13.32,0,0,0,2.52-.89L98,41.41Z"/><path class="cls-4" d="M107.55,4.79l.21-2.2-1.32.29c-.44.11-.88.25-1.32.37a25.33,25.33,0,0,0-7,3.19,23,23,0,0,0-5.12,5,16.47,16.47,0,0,0-2.81,12.43l.43,2.17c.66-.39,1.38-.68,2.06-1a28.56,28.56,0,0,0,10-8.37A23,23,0,0,0,107.55,4.79Z"/><path class="cls-4" d="M113.66,33.64a16.54,16.54,0,0,0-8.49-8.49,16.35,16.35,0,0,0-12.45.05c-.71.29-1.45.53-2.14.87L92,27.73a24,24,0,0,0,9.86,7,18.46,18.46,0,0,0,5.41,1.39c.87,0,1.83.19,2.72.16a13.78,13.78,0,0,0,2.7-.3,13.77,13.77,0,0,1,1.85-.32Z"/><path class="cls-4" d="M132.33,2.15,133,0l-2.64.16A23.86,23.86,0,0,0,123,1.69a22.63,22.63,0,0,0-6,3.69,16.48,16.48,0,0,0-4,5.23,16.23,16.23,0,0,0-1.66,6.15l-.13,2.19,2.25-.49a21.75,21.75,0,0,0,3.21-1,31.65,31.65,0,0,0,3-1.22,25.9,25.9,0,0,0,5.43-3.59A21.76,21.76,0,0,0,132.33,2.15Z"/><path class="cls-4" d="M132.27,31.64a17.22,17.22,0,0,0-6.6-10.15A17,17,0,0,0,120,18.95a15.65,15.65,0,0,0-3.2-.52,21,21,0,0,0-3.31.2l-2.29.32,1,2a22.63,22.63,0,0,0,3.47,5.23,22.47,22.47,0,0,0,2.13,2.11c.37.32.75.62,1.13.92s.79.62,1.2.9a18.71,18.71,0,0,0,5.09,2.57c.87.24,1.8.58,2.73.75a15.39,15.39,0,0,0,2.84.31l2,0Z"/><path class="cls-4" d="M215.74,98.84l-2.19.06.61,2a20,20,0,0,0,6.42,9.69,22.47,22.47,0,0,0,11.09,5l2.17.35c-.09-.76-.21-1.52-.32-2.27a17.69,17.69,0,0,0-6.24-10.91A17.32,17.32,0,0,0,215.74,98.84Z"/><path class="cls-4" d="M244.27,91.39a21.44,21.44,0,0,0-8.36,9.48,25.21,25.21,0,0,0-2.23,12.73c.06.76.12,1.53.15,2.29.69-.24,1.38-.49,2.07-.75a17,17,0,0,0,9.26-8.6,21.34,21.34,0,0,0,1.57-13.78l-.56-2.49Z"/><path class="cls-4" d="M209.23,80.36l-2.15.41c.29.6.61,1.19.88,1.8a19.26,19.26,0,0,0,3.23,4.84,22.93,22.93,0,0,0,4.52,3.75,23,23,0,0,0,5.53,2.47,21.59,21.59,0,0,0,6.23.86l2.2,0c-.23-.73-.44-1.47-.69-2.19a17.91,17.91,0,0,0-7.79-9.87A17.09,17.09,0,0,0,209.23,80.36Z"/><path class="cls-4" d="M236.3,68.66a21.77,21.77,0,0,0-6.83,10.66,24.81,24.81,0,0,0-.32,12.91c.2.74.35,1.49.52,2.24l1.92-1.09a16.79,16.79,0,0,0,4.82-4.13,17.57,17.57,0,0,0,3-5.69,19.54,19.54,0,0,0,.93-6.75A22.17,22.17,0,0,0,239,69.66c-.28-.81-.63-1.61-.95-2.42Z"/><path class="cls-4" d="M200,63.69l-2,.81L199.11,66a17.54,17.54,0,0,0,3.94,4,20.53,20.53,0,0,0,5,2.84,21.82,21.82,0,0,0,5.83,1.5,21.27,21.27,0,0,0,6.25-.11l2.17-.36-1-2.06a18.53,18.53,0,0,0-4-5.19A17.45,17.45,0,0,0,212,63.45a17,17,0,0,0-6-1A17.52,17.52,0,0,0,200,63.69Z"/><path class="cls-4" d="M224.39,47.16a20.54,20.54,0,0,0-3.21,5.56A23.06,23.06,0,0,0,219.67,59a26.15,26.15,0,0,0,1.81,12.83l.85,2.14,1.72-1.37a17.08,17.08,0,0,0,4.14-4.85,18.18,18.18,0,0,0,2.06-6.14,20.24,20.24,0,0,0-.26-6.92,23.72,23.72,0,0,0-2.76-7l-1.44-2.25Z"/><path class="cls-4" d="M187.9,49.81l-1.77,1.28c.48.39,1,.76,1.44,1.17a16.37,16.37,0,0,0,4.57,2.92,20.78,20.78,0,0,0,5.39,1.6,23.91,23.91,0,0,0,12.05-1.08l2.06-.76-1.37-1.84a18.58,18.58,0,0,0-4.9-4.29,17.46,17.46,0,0,0-5.85-2A16.2,16.2,0,0,0,187.9,49.81Z"/><path class="cls-4" d="M207.88,28.11A23.13,23.13,0,0,0,206,40.76a24.46,24.46,0,0,0,1.46,6.33,24.32,24.32,0,0,0,3,5.9l1.23,1.95,1.44-1.67a16.42,16.42,0,0,0,3.13-5.57,18,18,0,0,0,.75-6.5,20,20,0,0,0-1.8-6.83,17.37,17.37,0,0,0-1.89-3.28A28.38,28.38,0,0,0,210.8,28c-.61-.68-1.31-1.28-2-1.92Z"/><path class="cls-4" d="M173.16,39.63,171.8,41.3l1.63.82a13.19,13.19,0,0,0,2.5.93,16,16,0,0,0,5.31.84,24.63,24.63,0,0,0,2.79-.07,25.91,25.91,0,0,0,5.79-1.26,22.77,22.77,0,0,0,5.59-2.73l1.83-1.22-1.78-1.46a15.59,15.59,0,0,0-1.34-1q-.72-.43-1.45-.79a19.86,19.86,0,0,0-3-1.19,12.33,12.33,0,0,0-3.09-.54,17.28,17.28,0,0,0-3.06.07,14.39,14.39,0,0,0-5.71,1.93A17.14,17.14,0,0,0,173.16,39.63Z"/><path class="cls-4" d="M186.78,13.47a20.71,20.71,0,0,0-.14,6.49,29.93,29.93,0,0,0,1.63,6.27,24.5,24.5,0,0,0,1.35,3c.51,1,1.1,1.84,1.68,2.79a22.28,22.28,0,0,0,2,2.62q.54.62,1.14,1.2c.38.4.77.82,1.18,1.2l1.66,1.59,1-2A15.95,15.95,0,0,0,199.07,24a20.58,20.58,0,0,0-1.41-3.25,23.89,23.89,0,0,0-2.12-3,27,27,0,0,0-2.67-2.78,28.78,28.78,0,0,0-3.29-2.26l-2.4-1.41Z"/><path class="cls-4" d="M156.14,33.61l-.92,2,.94.13c.31.06.61.14.91.21a15.65,15.65,0,0,0,5.42.22,18.11,18.11,0,0,0,5.4-1.3A24.2,24.2,0,0,0,177.83,28l1.44-1.65c-.68-.35-1.41-.6-2.12-.9a15.86,15.86,0,0,0-21,8.16Z"/><path class="cls-4" d="M162.72,4.85a22.66,22.66,0,0,0,4.64,11.93,28.35,28.35,0,0,0,9.87,8.51c.68.36,1.38.66,2,1.06l.46-2.16a16.45,16.45,0,0,0-2.56-12.45,22.62,22.62,0,0,0-5-5.07,17.61,17.61,0,0,0-3.29-1.89,28.35,28.35,0,0,0-3.68-1.41,26.66,26.66,0,0,0-2.63-.72Z"/><path class="cls-4" d="M137.52,31.64l-.5,2.11h2a17.49,17.49,0,0,0,5.58-1,18.43,18.43,0,0,0,5.11-2.49,26.2,26.2,0,0,0,4.5-3.87,22.74,22.74,0,0,0,3.54-5.18l1-2-2.27-.35a20.93,20.93,0,0,0-3.3-.24,15.69,15.69,0,0,0-3.2.48,16.87,16.87,0,0,0-5.67,2.47A17.16,17.16,0,0,0,137.52,31.64Z"/><path class="cls-4" d="M137.94,2.16a21.58,21.58,0,0,0,7,10.62,25.55,25.55,0,0,0,5.36,3.67,31.75,31.75,0,0,0,3,1.27,21.65,21.65,0,0,0,3.19,1l2.24.52-.1-2.19a16.22,16.22,0,0,0-1.54-6.16,17.62,17.62,0,0,0-1.67-2.81c-.33-.45-.68-.89-1-1.31s-.77-.79-1.18-1.16a22.34,22.34,0,0,0-5.91-3.76,17,17,0,0,0-3.51-1.1A26.92,26.92,0,0,0,140,.2L137.33,0Z"/><path class="cls-5" d="M189,155.58V137.73a5.29,5.29,0,0,1-5.29-5.29H86.29A5.29,5.29,0,0,1,81,137.73v17.86a5.29,5.29,0,0,1,5.29,5.29h97.42A5.29,5.29,0,0,1,189,155.58Z"/><path class="cls-6" d="M122.36,155.19a14.24,14.24,0,0,1-4.69.84,7.18,7.18,0,0,1-7.85-7.71c0-4.56,3.15-7.89,8.28-7.89a9.45,9.45,0,0,1,3.81.7l-.48,1.61a7.93,7.93,0,0,0-3.38-.66c-3.72,0-6.15,2.31-6.15,6.14s2.34,6.17,5.9,6.17a6.43,6.43,0,0,0,2.63-.41v-4.56h-3.11v-1.59h5Z"/><path class="cls-6" d="M138.43,148.07c0,5.26-3.2,8-7.1,8s-6.87-3.13-6.87-7.75c0-4.85,3-8,7.1-8S138.43,143.54,138.43,148.07Zm-11.86.25c0,3.27,1.77,6.19,4.87,6.19s4.9-2.88,4.9-6.35c0-3-1.59-6.21-4.87-6.21S126.57,145,126.57,148.32Z"/><path class="cls-6" d="M143.32,142.27h-4.65v-1.68H150v1.68h-4.67v13.6h-2Z"/><path class="cls-6" d="M151.68,140.8a28.21,28.21,0,0,1,4.19-.32c2.83,0,4.85.66,6.19,1.91a7,7,0,0,1,2.15,5.49,8.08,8.08,0,0,1-2.2,5.94c-1.43,1.43-3.79,2.2-6.76,2.2a31.89,31.89,0,0,1-3.58-.18Zm2,13.51a12.45,12.45,0,0,0,2,.11c4.22,0,6.51-2.36,6.51-6.49,0-3.6-2-5.89-6.19-5.89a11.15,11.15,0,0,0-2.31.2Z"/></g></g></svg>