<svg xmlns="http://www.w3.org/2000/svg" viewBox="0 0 183.17 301.11"><defs><style>.cls-1{fill:#f3cb71;}.cls-2{fill:#e0ac48;}.cls-3{fill:#c58e3a;}</style></defs><title>Asset 5dawdwd</title><g id="Layer_2" data-name="Layer 2"><g id="Layer_1-2" data-name="Layer 1"><rect class="cls-1" y="278.61" width="183.17" height="22.5"/><rect class="cls-2" x="11.45" y="261" width="160.28" height="17.61"/><rect class="cls-3" x="28.59" width="126" height="261"/><rect class="cls-1" x="28.59" width="102.34" height="261"/><path class="cls-3" d="M75.61,192.75c9.06,2.3,17.34,4.47,25.66,6.47,2.34.56,3.45,1.41,3.31,4.11-.33,6.86.86,5.15-5.33,6.76-11.2,2.92-22.46,5.63-33.7,8.42-.59.15-1.19.24-2.26.46a40,40,0,0,1,.11-6.23c.12-.73,1.4-1.61,2.29-1.82,8.85-2.09,17.74-4.05,26.61-6.06.69-.16,1.38-.34,2.8-.69l-19.43-5.06c-3.2-.83-6.37-1.85-9.62-2.39-2.91-.49-2.74-2.31-2.83-4.47s.63-3,2.78-3.56c9-2.15,18-4.51,27.06-6.81.38-.1.75-.28,1.69-.66l-21.12-5.05c-2.41-.57-4.81-1.27-7.26-1.62s-3.52-1.6-3.15-4.14a34,34,0,0,0,0-4.33c2.58.64,4.9,1.2,7.2,1.79,10.41,2.68,20.8,5.45,31.25,8,2.34.57,2.89,1.6,2.84,3.81-.11,5.61,0,5.58-5.48,7C91.5,188.61,83.93,190.59,75.61,192.75Z"/><path class="cls-3" d="M94.47,134.62l-25.42-6c-6.46-1.53-6.72-2-5.37-9l25.21,6.44c4.41,1.13,8.78,2.38,13.22,3.38,1.9.43,2.44,1.31,2.44,3.18,0,6.07.09,6.08-5.84,7.63-7.48,1.94-15,3.86-23,5.95l18.77,4.85c2.6.67,5.18,1.45,7.81,2,1.79.35,2.28,1.21,2.3,3,.08,6.25.15,6.24-6,7.75a30.74,30.74,0,0,0-5.09,1.36c-7.58,3.34-14.52-.16-21.7-2.1L94,157.89l0-.48L63.6,149.47a5.14,5.14,0,0,1-.21-.66c-.46-5.8-.47-5.85,5-7.24,8.21-2.09,16.44-4.1,24.66-6.17A8.23,8.23,0,0,0,94.47,134.62Z"/><path class="cls-3" d="M76.06,99.79c8.55,2.2,16.88,4.47,25.29,6.45,2.52.59,3.32,1.6,3.22,4.17-.19,5.38,0,5.38-5.42,6.68a16.51,16.51,0,0,0-3,.76c-7.84,3.58-15.54,1.75-23.25-.47a10.22,10.22,0,0,1-1.5-.82L94,111.4l0-.51-7.52-2c-6.8-1.76-13.57-3.68-20.43-5.21-2.84-.64-2.71-2.31-2.87-4.47-.19-2.48,1-3.15,3.06-3.65,9.14-2.2,18.24-4.53,27.36-6.83.14,0,.23-.29.53-.69L76.43,83.84c-3.32-.79-6.61-1.71-10-2.29-2.5-.43-3.63-1.47-3.23-4.09a32.16,32.16,0,0,0,0-4.44c5.85,1.49,11.32,2.87,16.79,4.27,7.21,1.85,14.38,3.82,21.63,5.52,2.3.54,2.91,1.56,2.87,3.81-.12,5.6,0,5.64-5.42,7-7.41,1.88-14.84,3.69-22.25,5.56C76.63,99.25,76.43,99.51,76.06,99.79Z"/></g></g></svg>