<svg id="Layer_1" data-name="Layer 1" xmlns="http://www.w3.org/2000/svg" viewBox="0 0 201.37 267.97"><defs><style>.cls-1{fill:#c45449;}.cls-2{opacity:0.05;}.cls-3{fill:none;}.cls-4,.cls-5{fill:#2a1000;}.cls-4{fill-rule:evenodd;}</style></defs><title>head</title><path class="cls-1" d="M169.88,459.66a11,11,0,0,0-.37,3.34H270c-0.66-2.15-.84-4.62-2.06-6.38a128.26,128.26,0,0,0-10.73-13.91c-10-10.89-15.36-23.94-18.9-38a120.55,120.55,0,0,1-2.91-12.1c-1.32-9.15,1.47-17.38,6.39-25,3.78-5.85,7.71-11.6,11.32-17.54,9-14.81,7.7-29.65-.66-44.13-7.52-13-17.48-23.71-32.3-28.32-6.05-1.88-12.62-2-18.88-3.33-8.42-1.74-16.76-1.19-25,.57-7.3,1.55-14.32,3.77-19.92,9.26-2,2-5,3-7.16,4.8a39.22,39.22,0,0,0-10.95,15.82,59.92,59.92,0,0,0-3.52,10.07,45.78,45.78,0,0,0-.83,11.27,26,26,0,0,0,2.05,8.79c1.88,4.39,2,8.38-.4,12.6-2.43,4.37-4.61,8.89-6.75,13.41-2,4.32-1,6.92,3.63,7.91,3.25,0.69,3.8,2.38,3.59,5.19s-0.8,6,2.51,7.78a1.15,1.15,0,0,1,.54.89c-1.57,4,1.58,6.58,2.77,9.77,0.59,1.58.21,3.59,0,5.38-0.71,6.73,1.26,9.48,7.95,9.9,4.36,0.27,8.76-.19,13.14-0.25a50.8,50.8,0,0,1,8.74.14,8,8,0,0,1,7.1,6.92c0.79,4.82,1.94,9.64,2.06,14.48a28.79,28.79,0,0,1-2,11C176.19,446.68,172.83,453.08,169.88,459.66Z" transform="translate(-72.22 -195.78)"/><path class="cls-1" d="M144.48,266.11a0.33,0.33,0,0,0-.06.49l0.11,0.13a0.54,0.54,0,0,1,0,.69,0.53,0.53,0,0,1-.81,0l-0.09-.11a0.33,0.33,0,0,0-.5,0l-0.19.23a0.33,0.33,0,0,0,.07.49l0.14,0.09a0.54,0.54,0,0,1,.21.66,0.53,0.53,0,0,1-.78.23l-0.12-.08a0.33,0.33,0,0,0-.48.14l-0.12.27a0.33,0.33,0,0,0,.21.45l0.17,0.05a0.53,0.53,0,0,1,.35.66,0.3,0.3,0,0,1-.34.45l-0.46-.14a0.33,0.33,0,0,0-.42.27q0,0.15,0,.29a0.33,0.33,0,0,0,.33.37h0.18a0.53,0.53,0,1,1,0,1.06h-0.15a0.33,0.33,0,0,0-.33.37q0,0.15,0,.29a0.33,0.33,0,0,0,.42.26l0.17,0a0.53,0.53,0,0,1,.65.37h0a0.53,0.53,0,0,1-.37.65l-0.14,0a0.33,0.33,0,0,0-.21.45l0.13,0.27a0.33,0.33,0,0,0,.47.13l0.15-.1a0.53,0.53,0,0,1,.73.17h0a0.53,0.53,0,0,1-.17.73l-0.12.08a0.33,0.33,0,0,0-.08.49l0.2,0.22a0.33,0.33,0,0,0,.49,0l0.11-.12a0.54,0.54,0,0,1,.68-0.11,0.53,0.53,0,0,1,.12.8l-0.1.11a0.33,0.33,0,0,0,.07.5l0.25,0.16a0.33,0.33,0,0,0,.47-0.14l0.08-.16a0.53,0.53,0,0,1,.7-0.25h0a0.53,0.53,0,0,1,.25.7l-0.06.13a0.33,0.33,0,0,0,.2.46l0.29,0.08a0.33,0.33,0,0,0,.41-0.27l0-.18a0.53,0.53,0,1,1,1,.16l0,0.14a0.33,0.33,0,0,0,.32.38h0.3a0.33,0.33,0,0,0,.32-0.38l0-.18a0.53,0.53,0,0,1,.45-0.59h0a0.53,0.53,0,0,1,.59.45l0,0.14a0.33,0.33,0,0,0,.42.28l0.28-.09a0.33,0.33,0,0,0,.2-0.45l-0.07-.16a0.53,0.53,0,1,1,1-.43l0.06,0.13a0.33,0.33,0,0,0,.48.15h0l0.25-.16a0.33,0.33,0,0,0,.06-0.49l-0.12-.14a0.53,0.53,0,1,1,.81-0.68l0.09,0.11a0.33,0.33,0,0,0,.5,0l0.19-.23a0.33,0.33,0,0,0-.07-0.49l-0.15-.1a0.53,0.53,0,1,1,.58-0.88l0.12,0.08a0.33,0.33,0,0,0,.48-0.14l0.12-.27a0.33,0.33,0,0,0-.21-0.45l-0.17-.05a0.53,0.53,0,0,1-.35-0.66,0.3,0.3,0,0,1,.34-0.45l0.46,0.14a0.33,0.33,0,0,0,.42-0.27q0-.15,0-0.29a0.33,0.33,0,0,0-.33-0.37h-0.16a0.54,0.54,0,0,1-.53-0.44,0.53,0.53,0,0,1,.53-0.61h0.15a0.33,0.33,0,0,0,.33-0.37q0-.15,0-0.29a0.33,0.33,0,0,0-.42-0.26l-0.16,0a0.54,0.54,0,0,1-.63-0.27,0.53,0.53,0,0,1,.33-0.75l0.14,0a0.33,0.33,0,0,0,.21-0.45l-0.13-.27a0.33,0.33,0,0,0-.47-0.13l-0.15.1a0.53,0.53,0,1,1-.56-0.9l0.12-.08a0.33,0.33,0,0,0,.08-0.49l-0.2-.22a0.33,0.33,0,0,0-.49,0l-0.11.12a0.54,0.54,0,0,1-.68.11,0.53,0.53,0,0,1-.12-0.8l0.1-.11a0.33,0.33,0,0,0-.07-0.5l-0.25-.16a0.33,0.33,0,0,0-.47.14l-0.07.15a0.54,0.54,0,0,1-.62.3,0.53,0.53,0,0,1-.34-0.74l0.06-.13a0.33,0.33,0,0,0-.2-0.46l-0.29-.08a0.33,0.33,0,0,0-.41.27l0,0.16a0.54,0.54,0,0,1-.51.46,0.53,0.53,0,0,1-.53-0.61l0-.14a0.33,0.33,0,0,0-.32-0.38h-0.3a0.33,0.33,0,0,0-.32.38l0,0.18a0.53,0.53,0,0,1-.45.59,0.37,0.37,0,0,1-.57-0.27l0-.33a0.33,0.33,0,0,0-.42-0.28l-0.28.09a0.33,0.33,0,0,0-.2.45l0.07,0.16a0.53,0.53,0,0,1-.36.73,0.54,0.54,0,0,1-.62-0.31l-0.05-.12a0.33,0.33,0,0,0-.48-0.15h0Zm0.09,8.22a0.41,0.41,0,0,1-.63-0.23l-0.37-2.27a0.42,0.42,0,0,1,.54-0.42l0.65,0.15a0.71,0.71,0,0,1,.53.66l0.15,0.95a0.75,0.75,0,0,1-.3.81Zm4.53-4.79-0.22,1a1.66,1.66,0,0,0-1,.17l-0.54-.85A2.66,2.66,0,0,1,149.09,269.55Zm-1.46,1.31a1.66,1.66,0,0,0-.57.81l-1-.22a2.66,2.66,0,0,1,1-1.44Zm-1.62.88,1,0.22a1.66,1.66,0,0,0,.17,1l-0.85.54A2.66,2.66,0,0,1,146,271.74Zm4.18,2.63-0.54-.85a1.66,1.66,0,0,0,.58-0.81l1,0.22A2.66,2.66,0,0,1,150.19,274.37Zm-2,.45,0.22-1a1.66,1.66,0,0,0,1-.16l0.54,0.85A2.66,2.66,0,0,1,148.19,274.82Zm-0.88-1.62a1.66,1.66,0,0,0,.81.58l-0.22,1a2.66,2.66,0,0,1-1.44-1Zm-0.57,3.72-1.89-1.32a0.41,0.41,0,0,1,.07-0.67l0.57-.35a0.75,0.75,0,0,1,.86.08l0.79,0.55a0.71,0.71,0,0,1,.37.76l-0.15.65A0.42,0.42,0,0,1,146.75,276.92Zm3.93-.07-2.21.43a0.41,0.41,0,0,1-.42-0.52l0.15-.66a0.76,0.76,0,0,1,.66-0.55l0.89-.19a0.71,0.71,0,0,1,.8.28l0.35,0.56A0.42,0.42,0,0,1,150.68,276.85Zm2.39-3.38a0.42,0.42,0,0,1,.3.61l-1.23,1.8a0.4,0.4,0,0,1-.66-0.06l-0.36-.57a0.77,0.77,0,0,1,.07-0.87l0.47-.69a0.71,0.71,0,0,1,.76-0.37ZM152.73,270a0.41,0.41,0,0,1,.63.23l0.38,2.09a0.41,0.41,0,0,1-.52.42l-0.66-.15A0.75,0.75,0,0,1,152,272l-0.15-.77a0.74,0.74,0,0,1,.29-0.81Zm-1.45,2.6-1-.22a1.66,1.66,0,0,0-.17-1l0.85-.54A2.66,2.66,0,0,1,151.28,272.64ZM150,271.17a1.66,1.66,0,0,0-.82-0.58l0.22-1a2.66,2.66,0,0,1,1.45,1Zm0.73-3.65,1.72,1.25a0.41,0.41,0,0,1-.07.67l-0.57.35a0.74,0.74,0,0,1-.85-0.09l-0.63-.47a0.75,0.75,0,0,1-.36-0.78l0.15-.66A0.41,0.41,0,0,1,150.71,267.52Zm-3.87-.1,2.16-.33a0.42,0.42,0,0,1,.42.54l-0.15.65a0.71,0.71,0,0,1-.66.52l-0.83.12a0.77,0.77,0,0,1-.81-0.31l-0.36-.57A0.4,0.4,0,0,1,146.84,267.42Zm-0.83,1,0.35,0.56a0.71,0.71,0,0,1-.1.84l-0.55.72a0.76,0.76,0,0,1-.79.36l-0.66-.15a0.41,0.41,0,0,1-.28-0.61l1.35-1.8A0.42,0.42,0,0,1,146,268.4Z" transform="translate(-72.22 -195.78)"/><path class="cls-1" d="M209.61,256.43a0.4,0.4,0,0,0-.08.59l0.13,0.15a0.66,0.66,0,0,1,0,.84,0.65,0.65,0,0,1-1,0l-0.12-.14a0.4,0.4,0,0,0-.61,0l-0.24.28a0.4,0.4,0,0,0,.09.59l0.17,0.11a0.66,0.66,0,0,1,.25.81,0.65,0.65,0,0,1-.95.28l-0.15-.1a0.4,0.4,0,0,0-.59.17l-0.15.33a0.4,0.4,0,0,0,.26.54l0.21,0.06a0.65,0.65,0,0,1,.43.81,0.37,0.37,0,0,1-.42.55l-0.56-.17a0.4,0.4,0,0,0-.52.32q0,0.18,0,.36a0.4,0.4,0,0,0,.4.45h0.22a0.65,0.65,0,1,1,0,1.29h-0.18a0.4,0.4,0,0,0-.41.46q0,0.18.05,0.36a0.41,0.41,0,0,0,.51.32l0.21-.06a0.65,0.65,0,0,1,.8.45h0a0.65,0.65,0,0,1-.45.8l-0.17,0a0.4,0.4,0,0,0-.26.55l0.15,0.33a0.41,0.41,0,0,0,.58.16l0.19-.12a0.65,0.65,0,0,1,.89.2h0a0.65,0.65,0,0,1-.2.89l-0.15.09a0.4,0.4,0,0,0-.09.6l0.24,0.27a0.4,0.4,0,0,0,.6,0l0.13-.15a0.66,0.66,0,0,1,.83-0.14,0.65,0.65,0,0,1,.15,1l-0.12.13a0.4,0.4,0,0,0,.08.61l0.31,0.19a0.4,0.4,0,0,0,.57-0.17l0.09-.2a0.65,0.65,0,0,1,.86-0.31h0a0.65,0.65,0,0,1,.31.86l-0.07.16a0.4,0.4,0,0,0,.25.56l0.35,0.1a0.4,0.4,0,0,0,.5-0.33l0-.22a0.65,0.65,0,1,1,1.28.2l0,0.18a0.4,0.4,0,0,0,.39.47H215a0.4,0.4,0,0,0,.39-0.46l0-.22a0.65,0.65,0,0,1,.55-0.72h0a0.65,0.65,0,0,1,.72.55l0,0.18a0.4,0.4,0,0,0,.51.34l0.35-.11a0.41,0.41,0,0,0,.24-0.55l-0.09-.2a0.65,0.65,0,1,1,1.18-.52l0.07,0.16a0.4,0.4,0,0,0,.58.18h0l0.3-.2a0.4,0.4,0,0,0,.08-0.59l-0.14-.17a0.65,0.65,0,1,1,1-.83l0.12,0.14a0.4,0.4,0,0,0,.61,0l0.24-.28a0.4,0.4,0,0,0-.09-0.59l-0.18-.12a0.65,0.65,0,1,1,.71-1.08l0.15,0.1a0.4,0.4,0,0,0,.59-0.17l0.15-.33a0.4,0.4,0,0,0-.26-0.54l-0.21-.06a0.65,0.65,0,0,1-.43-0.81,0.37,0.37,0,0,1,.42-0.55l0.56,0.17a0.4,0.4,0,0,0,.52-0.32q0-.18,0-0.36a0.4,0.4,0,0,0-.4-0.45H223a0.66,0.66,0,0,1-.65-0.54,0.65,0.65,0,0,1,.64-0.75h0.18a0.4,0.4,0,0,0,.41-0.46q0-.18-0.05-0.36A0.4,0.4,0,0,0,223,262l-0.2.06a0.66,0.66,0,0,1-.77-0.33,0.65,0.65,0,0,1,.4-0.91l0.17,0a0.4,0.4,0,0,0,.26-0.55l-0.15-.33a0.41,0.41,0,0,0-.58-0.16l-0.19.12a0.65,0.65,0,1,1-.69-1.09l0.15-.09a0.4,0.4,0,0,0,.09-0.6l-0.24-.27a0.4,0.4,0,0,0-.6,0l-0.13.15a0.66,0.66,0,0,1-.83.14,0.65,0.65,0,0,1-.15-1l0.12-.13a0.4,0.4,0,0,0-.08-0.61l-0.31-.19a0.4,0.4,0,0,0-.57.17l-0.09.18a0.66,0.66,0,0,1-.76.37,0.65,0.65,0,0,1-.41-0.9l0.07-.16a0.4,0.4,0,0,0-.25-0.56l-0.35-.1a0.4,0.4,0,0,0-.5.33l0,0.2a0.66,0.66,0,0,1-.63.56,0.65,0.65,0,0,1-.65-0.74l0-.17a0.4,0.4,0,0,0-.39-0.47h-0.36a0.4,0.4,0,0,0-.39.46l0,0.22a0.65,0.65,0,0,1-.55.72,0.46,0.46,0,0,1-.69-0.33l-0.05-.41a0.4,0.4,0,0,0-.51-0.34l-0.35.11a0.41,0.41,0,0,0-.24.55l0.09,0.2a0.65,0.65,0,0,1-.43.89,0.66,0.66,0,0,1-.75-0.38l-0.06-.14a0.4,0.4,0,0,0-.58-0.18h0Zm0.1,10a0.49,0.49,0,0,1-.77-0.28l-0.45-2.77a0.51,0.51,0,0,1,.66-0.51l0.79,0.18a0.87,0.87,0,0,1,.64.81l0.19,1.16a0.91,0.91,0,0,1-.37,1Zm5.53-5.84-0.27,1.2a2,2,0,0,0-1.2.21l-0.65-1A3.25,3.25,0,0,1,215.24,260.62Zm-1.78,1.6a2,2,0,0,0-.7,1l-1.2-.27a3.25,3.25,0,0,1,1.24-1.76Zm-2,1.07,1.2,0.27a2,2,0,0,0,.2,1.19l-1,.65A3.25,3.25,0,0,1,211.48,263.29Zm5.1,3.21-0.65-1a2,2,0,0,0,.71-1l1.2,0.27A3.25,3.25,0,0,1,216.58,266.5Zm-2.43.55,0.27-1.2a2,2,0,0,0,1.2-.2l0.65,1A3.25,3.25,0,0,1,214.14,267.05Zm-1.07-2a2,2,0,0,0,1,.7l-0.27,1.2a3.25,3.25,0,0,1-1.75-1.25Zm-0.69,4.54-2.3-1.62a0.49,0.49,0,0,1,.08-0.81l0.69-.43a0.91,0.91,0,0,1,1,.1l1,0.67a0.87,0.87,0,0,1,.45.93l-0.18.79A0.51,0.51,0,0,1,212.38,269.61Zm4.8-.08-2.7.53a0.49,0.49,0,0,1-.51-0.63l0.18-.8a0.92,0.92,0,0,1,.81-0.68l1.08-.23a0.87,0.87,0,0,1,1,.34l0.43,0.69A0.51,0.51,0,0,1,217.18,269.53Zm2.92-4.13a0.52,0.52,0,0,1,.37.75l-1.5,2.2a0.48,0.48,0,0,1-.8-0.08l-0.44-.7a1,1,0,0,1,.09-1.06l0.57-.84a0.86,0.86,0,0,1,.93-0.45Zm-0.43-4.18a0.5,0.5,0,0,1,.77.28l0.47,2.56a0.5,0.5,0,0,1-.64.51l-0.8-.18a0.91,0.91,0,0,1-.67-0.81l-0.18-.94a0.9,0.9,0,0,1,.36-1Zm-1.77,3.18-1.2-.27a2,2,0,0,0-.2-1.2l1-.65A3.25,3.25,0,0,1,217.91,264.39Zm-1.59-1.79a2,2,0,0,0-1-.71l0.27-1.2a3.25,3.25,0,0,1,1.76,1.25Zm0.89-4.46,2.1,1.53a0.5,0.5,0,0,1-.09.82l-0.69.43a0.9,0.9,0,0,1-1-.11l-0.77-.57a0.91,0.91,0,0,1-.44-1l0.18-.8A0.5,0.5,0,0,1,217.21,258.14Zm-4.72-.12,2.63-.4a0.52,0.52,0,0,1,.51.66l-0.18.79a0.86,0.86,0,0,1-.81.64l-1,.14a1,1,0,0,1-1-.38l-0.44-.7A0.48,0.48,0,0,1,212.49,258Zm-1,1.19,0.43,0.69a0.87,0.87,0,0,1-.12,1l-0.68.88a0.92,0.92,0,0,1-1,.43l-0.8-.18a0.49,0.49,0,0,1-.35-0.74l1.65-2.2A0.51,0.51,0,0,1,211.48,259.22Z" transform="translate(-72.22 -195.78)"/><path class="cls-1" d="M249.28,278.63h0l-0.78-.45-0.26.28-0.26.28,0.49,0.75a8,8,0,0,0-.71,1l-0.36-.07h0l-0.52-.12-0.17.34-0.17.34,0.69,0.57a8.08,8.08,0,0,0-.37,1.19l-0.9.07-0.06.37-0.06.37,0.83,0.35a8.14,8.14,0,0,0,0,1.24l-0.84.33,0.05,0.37,0.05,0.37,0.9,0.08a8.05,8.05,0,0,0,.36,1.19l-0.7.56,0.16,0.34,0.16,0.34,0.88-.18a8.08,8.08,0,0,0,.69,1l-0.51.75,0.26,0.28,0.26,0.28,0.79-.44a8.08,8.08,0,0,0,1,.78l-0.26.86,0.33,0.19,0.33,0.19,0.62-.65a8.06,8.06,0,0,0,1.15.46v0.9l0.37,0.09L253,293.4l0.41-.8a8.14,8.14,0,0,0,1.24.1l0.27,0.86,0.38,0,0.38,0,0.15-.89a8.08,8.08,0,0,0,1.21-.27l0.51,0.74,0.35-.14,0.35-.14-0.07-.53h0l0-.36a8,8,0,0,0,1.07-.61l0.71,0.56,0.3-.23,0.3-.23-0.38-.82h0a8.15,8.15,0,0,0,.84-0.89l0.84,0.33,0.22-.31,0.22-.31-0.6-.67a8,8,0,0,0,.55-1.12l0.9,0.06,0.11-.36,0.11-.36-0.77-.46a8.13,8.13,0,0,0,.19-1.23l0.88-.2V284.3l-0.88-.22c0-.09,0-0.18,0-0.26l0-.23c0-.25-0.07-0.5-0.13-0.74l0.78-.45-0.11-.36-0.11-.36-0.9.05a8,8,0,0,0-.53-1.12l0.61-.66-0.21-.31-0.21-.31-0.84.31q-0.19-.24-0.4-0.47t-0.44-.44l0.39-.81-0.29-.24-0.29-.24-0.71.55a8,8,0,0,0-1.07-.63l0.13-.89-0.35-.14-0.35-.14-0.52.73c-0.24-.08-0.48-0.14-0.73-0.19l-0.22,0-0.26,0-0.14-.89-0.38,0-0.38,0-0.28.86a8.13,8.13,0,0,0-1.24.08l-0.39-.81-0.37.08-0.37.08,0,0.9a8,8,0,0,0-1.16.44l-0.61-.66-0.33.19L250,277l0.25,0.87A8.16,8.16,0,0,0,249.28,278.63Zm-0.88,2.91,2.74,3a0.79,0.79,0,0,1,.1.92l-2,3.54A7,7,0,0,1,248.41,281.54Zm5.56,3.77a1,1,0,1,1,1.45.07A1,1,0,0,1,254,285.31Zm-4.11,4.37,3.71-1.68a0.79,0.79,0,0,1,.91.19l2.74,3A7,7,0,0,1,249.86,289.68Zm11.88-5.39a7,7,0,0,1-3.68,6.51l-0.45-4a0.79,0.79,0,0,1,.46-0.81Zm-1.83-4.41a7,7,0,0,1,1.72,3.48l-3.78-.78a1,1,0,0,1-.82-0.9l-0.43-3.83A7,7,0,0,1,259.91,279.89Zm-4.23-2.22-2,3.51a0.79,0.79,0,0,1-.85.38l-4-.82A7,7,0,0,1,255.68,277.66Z" transform="translate(-72.22 -195.78)"/><path class="cls-1" d="M127.34,277.38h0l-0.78-.45-0.26.28-0.26.28,0.49,0.75a8,8,0,0,0-.71,1l-0.36-.07h0l-0.52-.12-0.17.34-0.17.34,0.69,0.57a8.08,8.08,0,0,0-.37,1.19l-0.9.07L124,282l-0.06.37,0.83,0.35a8.14,8.14,0,0,0,0,1.24l-0.84.33,0.05,0.37L124,285l0.9,0.08a8.05,8.05,0,0,0,.36,1.19l-0.7.56,0.16,0.34,0.16,0.34,0.88-.18a8.08,8.08,0,0,0,.69,1l-0.51.75,0.26,0.28,0.26,0.28,0.79-.44a8.08,8.08,0,0,0,1,.78l-0.26.86,0.33,0.19,0.33,0.19,0.62-.65a8.06,8.06,0,0,0,1.15.46V292l0.37,0.09,0.37,0.09,0.41-.8a8.14,8.14,0,0,0,1.24.1l0.27,0.86,0.38,0,0.38,0,0.15-.89a8.08,8.08,0,0,0,1.21-.27l0.51,0.74,0.35-.14,0.35-.14-0.07-.53h0l0-.36a8,8,0,0,0,1.07-.61l0.71,0.56,0.3-.23,0.3-.23-0.38-.82h0a8.15,8.15,0,0,0,.84-0.89l0.84,0.33,0.22-.31,0.22-.31-0.6-.67a8,8,0,0,0,.55-1.12l0.9,0.06,0.11-.36,0.11-.36-0.77-.46a8.13,8.13,0,0,0,.19-1.23l0.88-.2v-0.76l-0.88-.22c0-.09,0-0.18,0-0.26l0-.23c0-.25-0.07-0.5-0.13-0.74l0.78-.45-0.11-.36-0.11-.36-0.9.05a8,8,0,0,0-.53-1.12l0.61-.66-0.21-.31-0.21-.31-0.84.31q-0.19-.24-0.4-0.47t-0.44-.44l0.39-.81-0.29-.24-0.29-.24-0.71.55a8,8,0,0,0-1.07-.63l0.13-.89-0.35-.14-0.35-.14-0.52.73c-0.24-.08-0.48-0.14-0.73-0.19l-0.22,0-0.26,0-0.14-.89-0.38,0-0.38,0-0.28.86a8.13,8.13,0,0,0-1.24.08l-0.39-.81-0.37.08-0.37.08,0,0.9a8,8,0,0,0-1.16.44l-0.61-.66-0.33.19-0.33.19,0.25,0.87A8.16,8.16,0,0,0,127.34,277.38Zm-0.88,2.91,2.74,3a0.79,0.79,0,0,1,.1.92l-2,3.54A7,7,0,0,1,126.46,280.29Zm5.56,3.77a1,1,0,1,1,1.45.07A1,1,0,0,1,132,284.06Zm-4.11,4.37,3.71-1.68a0.79,0.79,0,0,1,.91.19l2.74,3A7,7,0,0,1,127.91,288.44ZM139.79,283a7,7,0,0,1-3.68,6.51l-0.45-4a0.79,0.79,0,0,1,.46-0.81ZM138,278.64a7,7,0,0,1,1.72,3.48l-3.78-.78a1,1,0,0,1-.82-0.9l-0.43-3.83A7,7,0,0,1,138,278.64Zm-4.23-2.22-2,3.51a0.79,0.79,0,0,1-.85.38l-4-.82A7,7,0,0,1,133.74,276.42Z" transform="translate(-72.22 -195.78)"/><path class="cls-1" d="M182.43,252.23h0l-0.78-.45-0.26.28-0.26.28,0.49,0.75a8,8,0,0,0-.71,1l-0.36-.07h0l-0.52-.12-0.17.34-0.17.34,0.69,0.57a8.08,8.08,0,0,0-.37,1.19l-0.9.07-0.06.37-0.06.37,0.83,0.35a8.14,8.14,0,0,0,0,1.24l-0.84.33,0.05,0.37,0.05,0.37,0.9,0.08a8.05,8.05,0,0,0,.36,1.19l-0.7.56,0.16,0.34,0.16,0.34,0.88-.18a8.08,8.08,0,0,0,.69,1L181,264l0.26,0.28,0.26,0.28,0.79-.44a8.08,8.08,0,0,0,1,.78l-0.26.86,0.33,0.19,0.33,0.19,0.62-.65a8.06,8.06,0,0,0,1.15.46v0.9l0.37,0.09,0.37,0.09,0.41-.8a8.14,8.14,0,0,0,1.24.1l0.27,0.86,0.38,0,0.38,0,0.15-.89a8.08,8.08,0,0,0,1.21-.27l0.51,0.74,0.35-.14,0.35-.14-0.07-.53h0l0-.36a8,8,0,0,0,1.07-.61l0.71,0.56,0.3-.23,0.3-.23-0.38-.82h0a8.15,8.15,0,0,0,.84-0.89l0.84,0.33,0.22-.31,0.22-.31-0.6-.67a8,8,0,0,0,.55-1.12l0.9,0.06,0.11-.36,0.11-.36-0.77-.46a8.13,8.13,0,0,0,.19-1.23l0.88-.2V257.9l-0.88-.22c0-.09,0-0.18,0-0.26l0-.23c0-.25-0.07-0.5-0.13-0.74l0.78-.45-0.11-.36-0.11-.36-0.9.05a8,8,0,0,0-.53-1.12l0.61-.66-0.21-.31-0.21-.31-0.84.31q-0.19-.24-0.4-0.47t-0.44-.44l0.39-.81-0.29-.24-0.29-.24-0.71.55a8,8,0,0,0-1.07-.63l0.13-.89-0.35-.14-0.35-.14-0.52.73c-0.24-.08-0.48-0.14-0.73-0.19l-0.22,0-0.26,0-0.14-.89-0.38,0-0.38,0-0.28.86a8.13,8.13,0,0,0-1.24.08l-0.39-.81-0.37.08-0.37.08,0,0.9a8,8,0,0,0-1.16.44l-0.61-.66-0.33.19-0.33.19,0.25,0.87A8.16,8.16,0,0,0,182.43,252.23Zm-0.88,2.91,2.74,3a0.79,0.79,0,0,1,.1.92l-2,3.54A7,7,0,0,1,181.55,255.15Zm5.56,3.77a1,1,0,1,1,1.45.07A1,1,0,0,1,187.11,258.91ZM183,263.29l3.71-1.68a0.79,0.79,0,0,1,.91.19l2.74,3A7,7,0,0,1,183,263.29Zm11.88-5.39a7,7,0,0,1-3.68,6.51l-0.45-4a0.79,0.79,0,0,1,.46-0.81Zm-1.83-4.41a7,7,0,0,1,1.72,3.48l-3.78-.78a1,1,0,0,1-.82-0.9l-0.43-3.83A7,7,0,0,1,193.06,253.49Zm-4.23-2.22-2,3.51a0.79,0.79,0,0,1-.85.38l-4-.82A7,7,0,0,1,188.83,251.27Z" transform="translate(-72.22 -195.78)"/><path class="cls-1" d="M148.61,234.84a0.74,0.74,0,0,0,.06,1.09l0.28,0.23a1.2,1.2,0,0,1,.31,1.51,1.18,1.18,0,0,1-1.77.32l-0.25-.21a0.74,0.74,0,0,0-1.1.18l-0.33.57a0.74,0.74,0,0,0,.36,1l0.34,0.15a1.21,1.21,0,0,1,.72,1.37,1.17,1.17,0,0,1-1.6.81l-0.3-.13a0.73,0.73,0,0,0-1,.49q-0.08.32-.15,0.64a0.74,0.74,0,0,0,.64.9l0.4,0a1.19,1.19,0,0,1,1,1.31,0.67,0.67,0,0,1-.57,1.12l-1.05-.13a0.73,0.73,0,0,0-.82.75q0,0.33,0,.66a0.74,0.74,0,0,0,.86.68l0.39-.07a1.19,1.19,0,0,1,1.36,1,1.17,1.17,0,0,1-1,1.35l-0.32.05a0.73,0.73,0,0,0-.58,1q0.1,0.31.22,0.63a0.74,0.74,0,0,0,1,.41l0.36-.18a1.19,1.19,0,0,1,1.58.55h0a1.17,1.17,0,0,1-.54,1.57l-0.29.14a0.74,0.74,0,0,0-.28,1.08l0.38,0.54a0.74,0.74,0,0,0,1.09.11l0.29-.27a1.18,1.18,0,0,1,1.59,1.74l-0.24.22a0.74,0.74,0,0,0,0,1.11l0.52,0.41a0.74,0.74,0,0,0,1.08-.2l0.19-.31a1.18,1.18,0,1,1,2,1.2l-0.17.28a0.74,0.74,0,0,0,.34,1.06l0.61,0.25a0.73,0.73,0,0,0,1-.5l0.1-.39a1.17,1.17,0,0,1,1.44-.83h0a1.19,1.19,0,0,1,.84,1.44l-0.08.31a0.74,0.74,0,0,0,.63.93l0.66,0.07a0.73,0.73,0,0,0,.79-0.75v-0.4a1.17,1.17,0,0,1,1.14-1.2,1.19,1.19,0,0,1,1.21,1.15V262a0.74,0.74,0,0,0,.86.71l0.65-.12a0.73,0.73,0,0,0,.55-0.95l-0.12-.38a1.17,1.17,0,0,1,.75-1.48,1.19,1.19,0,0,1,1.48.76l0.1,0.31a0.74,0.74,0,0,0,1,.44L168,261a0.74,0.74,0,0,0,.26-1.06l-0.23-.33a1.17,1.17,0,1,1,1.94-1.32l0.18,0.27a0.74,0.74,0,0,0,1.1.14h0l0.48-.45a0.74,0.74,0,0,0-.06-1.09l-0.31-.25a1.17,1.17,0,1,1,1.49-1.81l0.25,0.21a0.74,0.74,0,0,0,1.1-.18l0.33-.57a0.74,0.74,0,0,0-.36-1l-0.37-.16a1.19,1.19,0,0,1-.63-1.55,1.17,1.17,0,0,1,1.54-.62l0.3,0.13a0.73,0.73,0,0,0,1-.49q0.08-.32.15-0.64a0.74,0.74,0,0,0-.64-0.9l-0.4,0a1.19,1.19,0,0,1-1-1.31,0.67,0.67,0,0,1,.57-1.12l1.05,0.13a0.73,0.73,0,0,0,.82-0.75q0-.33,0-0.66a0.74,0.74,0,0,0-.86-0.68l-0.36.06a1.21,1.21,0,0,1-1.34-.76,1.17,1.17,0,0,1,.91-1.55l0.32-.05a0.73,0.73,0,0,0,.58-1q-0.1-.31-0.22-0.63a0.74,0.74,0,0,0-1-.41l-0.33.16a1.2,1.2,0,0,1-1.49-.34,1.18,1.18,0,0,1,.42-1.76l0.29-.14a0.74,0.74,0,0,0,.28-1.08l-0.38-.54a0.74,0.74,0,0,0-1.09-.11l-0.29.27a1.18,1.18,0,0,1-1.59-1.74l0.24-.22a0.74,0.74,0,0,0,0-1.11l-0.52-.41a0.74,0.74,0,0,0-1.08.2l-0.19.31a1.18,1.18,0,1,1-2-1.2l0.17-.28a0.74,0.74,0,0,0-.34-1.06l-0.61-.25a0.73,0.73,0,0,0-1,.5l-0.09.36a1.18,1.18,0,1,1-2.28-.58l0.08-.31a0.74,0.74,0,0,0-.63-0.93l-0.66-.07a0.73,0.73,0,0,0-.79.75v0.36a1.18,1.18,0,1,1-2.35.09v-0.32a0.74,0.74,0,0,0-.86-0.71l-0.65.12a0.73,0.73,0,0,0-.55.95l0.12,0.38a1.17,1.17,0,0,1-.75,1.48,0.83,0.83,0,0,1-1.35-.36l-0.23-.71a0.74,0.74,0,0,0-1-.44l-0.59.3a0.74,0.74,0,0,0-.26,1.06l0.23,0.33a1.18,1.18,0,0,1-.48,1.73,1.2,1.2,0,0,1-1.48-.44l-0.16-.24a0.74,0.74,0,0,0-1.1-.14h0Zm15.23,21.75a1.13,1.13,0,1,1,.69-1.44A1.13,1.13,0,0,1,163.83,256.59Zm5.56-7.11a1.13,1.13,0,1,1-1.51.54A1.13,1.13,0,0,1,169.39,249.49ZM165,250.6a0.74,0.74,0,1,1-1.05,0A0.74,0.74,0,0,1,165,250.6Zm-11.22-5.13a0.74,0.74,0,1,1-.78.71A0.74,0.74,0,0,1,153.79,245.47Zm-2.38,5.37a1.13,1.13,0,1,1,.69-1.44A1.13,1.13,0,0,1,151.41,250.84Zm3.5,0.44a0.74,0.74,0,1,1,1.05,0A0.74,0.74,0,0,1,154.91,251.28Zm0.66,5a1.13,1.13,0,1,1,1.51-.54A1.13,1.13,0,0,1,155.57,256.24Zm4.29-2.69a0.74,0.74,0,1,1,.78-0.71A0.74,0.74,0,0,1,159.86,253.55Zm7.37-6.85a0.74,0.74,0,1,1-.71-0.78A0.74,0.74,0,0,1,167.23,246.7Zm1.6-4.66a1.13,1.13,0,1,1-.69,1.44A1.13,1.13,0,0,1,168.83,242Zm-3.5-.44a0.74,0.74,0,1,1-1.05,0A0.74,0.74,0,0,1,165.33,241.6Zm-2.68,2.61a3.55,3.55,0,1,1-5-.23A3.55,3.55,0,0,1,162.65,244.21Zm2-7.58a1.13,1.13,0,1,1-1.51.54A1.13,1.13,0,0,1,164.67,236.64Zm-4.29,2.69a0.74,0.74,0,1,1-.78.71A0.74,0.74,0,0,1,160.38,239.33Zm-4.05,1.95a0.74,0.74,0,1,1-1.05,0A0.74,0.74,0,0,1,156.33,241.28Zm-5.48,2.12a1.13,1.13,0,1,1,1.51-.54A1.13,1.13,0,0,1,150.85,243.39Zm5.56-7.11a1.13,1.13,0,1,1-.69,1.44A1.13,1.13,0,0,1,156.41,236.29Z" transform="translate(-72.22 -195.78)"/><path class="cls-1" d="M205.34,241.6a0.26,0.26,0,0,0-.05.39l0.08,0.1a0.43,0.43,0,0,1,0,.55,0.42,0.42,0,0,1-.64,0l-0.08-.09a0.26,0.26,0,0,0-.4,0l-0.15.18a0.26,0.26,0,0,0,.06.39l0.11,0.07a0.43,0.43,0,0,1,.16.52,0.42,0.42,0,0,1-.62.18l-0.1-.06a0.26,0.26,0,0,0-.38.11l-0.1.22a0.26,0.26,0,0,0,.17.35l0.14,0a0.42,0.42,0,0,1,.28.52,0.24,0.24,0,0,1-.27.36l-0.36-.11a0.26,0.26,0,0,0-.34.21q0,0.12,0,.23a0.26,0.26,0,0,0,.26.29h0.14a0.42,0.42,0,1,1,0,.84h-0.12a0.26,0.26,0,0,0-.26.3q0,0.12,0,.23a0.26,0.26,0,0,0,.33.21l0.14,0a0.42,0.42,0,0,1,.52.29h0a0.42,0.42,0,0,1-.29.52l-0.11,0a0.26,0.26,0,0,0-.17.36l0.1,0.21a0.26,0.26,0,0,0,.38.11l0.12-.08a0.42,0.42,0,0,1,.58.13h0a0.42,0.42,0,0,1-.13.58l-0.1.06a0.26,0.26,0,0,0-.06.39l0.16,0.18a0.26,0.26,0,0,0,.39,0l0.09-.1a0.43,0.43,0,0,1,.54-0.09,0.42,0.42,0,0,1,.09.64l-0.08.09a0.26,0.26,0,0,0,.05.39l0.2,0.13a0.26,0.26,0,0,0,.37-0.11l0.06-.13a0.42,0.42,0,0,1,.56-0.2h0a0.42,0.42,0,0,1,.2.56l0,0.1a0.26,0.26,0,0,0,.16.36l0.23,0.06a0.26,0.26,0,0,0,.33-0.21l0-.14a0.42,0.42,0,1,1,.83.13l0,0.11a0.26,0.26,0,0,0,.26.3h0.24a0.26,0.26,0,0,0,.25-0.3l0-.14a0.42,0.42,0,0,1,.36-0.47h0a0.42,0.42,0,0,1,.47.36l0,0.11a0.26,0.26,0,0,0,.33.22l0.23-.07a0.26,0.26,0,0,0,.16-0.36l-0.06-.13a0.42,0.42,0,1,1,.77-0.34l0,0.11a0.26,0.26,0,0,0,.38.12h0l0.2-.13a0.26,0.26,0,0,0,.05-0.39l-0.09-.11a0.42,0.42,0,1,1,.64-0.54l0.08,0.09a0.26,0.26,0,0,0,.4,0l0.15-.18a0.26,0.26,0,0,0-.06-0.39l-0.12-.08a0.42,0.42,0,1,1,.46-0.7l0.1,0.06a0.26,0.26,0,0,0,.38-0.11l0.1-.22a0.26,0.26,0,0,0-.17-0.35l-0.14,0a0.42,0.42,0,0,1-.28-0.52,0.24,0.24,0,0,1,.27-0.36l0.36,0.11a0.26,0.26,0,0,0,.34-0.21q0-.12,0-0.23a0.26,0.26,0,0,0-.26-0.29h-0.13a0.43,0.43,0,0,1-.42-0.35,0.42,0.42,0,0,1,.42-0.49h0.12a0.26,0.26,0,0,0,.26-0.3q0-.12,0-0.23a0.26,0.26,0,0,0-.33-0.21l-0.13,0a0.43,0.43,0,0,1-.5-0.21,0.42,0.42,0,0,1,.26-0.59l0.11,0a0.26,0.26,0,0,0,.17-0.36l-0.1-.21a0.26,0.26,0,0,0-.38-0.11l-0.12.08a0.42,0.42,0,1,1-.45-0.71L213,243a0.26,0.26,0,0,0,.06-0.39l-0.16-.18a0.26,0.26,0,0,0-.39,0l-0.09.1a0.43,0.43,0,0,1-.54.09,0.42,0.42,0,0,1-.09-0.64l0.08-.09a0.26,0.26,0,0,0-.05-0.39l-0.2-.13a0.26,0.26,0,0,0-.37.11l-0.06.12a0.43,0.43,0,0,1-.49.24,0.42,0.42,0,0,1-.27-0.58l0-.1a0.26,0.26,0,0,0-.16-0.36l-0.23-.06a0.26,0.26,0,0,0-.33.21l0,0.13a0.43,0.43,0,0,1-.41.37,0.42,0.42,0,0,1-.42-0.48l0-.11a0.26,0.26,0,0,0-.26-0.3h-0.24a0.26,0.26,0,0,0-.25.3l0,0.14a0.42,0.42,0,0,1-.36.47,0.3,0.3,0,0,1-.45-0.21l0-.26a0.26,0.26,0,0,0-.33-0.22l-0.23.07a0.26,0.26,0,0,0-.16.36l0.06,0.13a0.42,0.42,0,0,1-.28.58,0.43,0.43,0,0,1-.49-0.25l0-.09a0.26,0.26,0,0,0-.38-0.12h0Zm0.07,6.52a0.32,0.32,0,0,1-.5-0.18l-0.3-1.8a0.33,0.33,0,0,1,.43-0.33l0.51,0.12a0.57,0.57,0,0,1,.42.53l0.12,0.75a0.59,0.59,0,0,1-.24.64Zm3.59-3.8-0.18.78a1.32,1.32,0,0,0-.78.14l-0.42-.68A2.11,2.11,0,0,1,209,244.32Zm-1.16,1a1.32,1.32,0,0,0-.45.64l-0.78-.18a2.11,2.11,0,0,1,.81-1.14Zm-1.28.7,0.78,0.18a1.32,1.32,0,0,0,.13.77l-0.68.42A2.11,2.11,0,0,1,206.55,246.06Zm3.31,2.09-0.42-.68a1.32,1.32,0,0,0,.46-0.64l0.78,0.18A2.11,2.11,0,0,1,209.87,248.15Zm-1.58.36,0.18-.78a1.32,1.32,0,0,0,.78-0.13l0.42,0.68A2.11,2.11,0,0,1,208.28,248.51Zm-0.69-1.29a1.32,1.32,0,0,0,.64.46l-0.18.78a2.11,2.11,0,0,1-1.14-.81Zm-0.45,3-1.49-1.05a0.32,0.32,0,0,1,.05-0.53l0.45-.28a0.59,0.59,0,0,1,.68.06l0.62,0.44a0.57,0.57,0,0,1,.29.61l-0.12.51A0.33,0.33,0,0,1,207.14,250.17Zm3.12-.05-1.75.34a0.32,0.32,0,0,1-.33-0.41l0.12-.52a0.6,0.6,0,0,1,.53-0.44l0.7-.15a0.56,0.56,0,0,1,.63.22l0.28,0.45A0.33,0.33,0,0,1,210.26,250.11Zm1.9-2.68a0.34,0.34,0,0,1,.24.49l-1,1.43a0.31,0.31,0,0,1-.52,0l-0.28-.45a0.61,0.61,0,0,1,.06-0.69l0.37-.55a0.56,0.56,0,0,1,.6-0.29Zm-0.28-2.72a0.33,0.33,0,0,1,.5.18l0.3,1.66a0.32,0.32,0,0,1-.41.33l-0.52-.12a0.59,0.59,0,0,1-.44-0.53l-0.12-.61a0.58,0.58,0,0,1,.23-0.64Zm-1.15,2.06L210,246.6a1.32,1.32,0,0,0-.13-0.78l0.68-.42A2.11,2.11,0,0,1,210.73,246.78Zm-1-1.16a1.32,1.32,0,0,0-.65-0.46l0.18-.78a2.11,2.11,0,0,1,1.15.81Zm0.58-2.9,1.36,1a0.33,0.33,0,0,1-.06.53l-0.45.28a0.58,0.58,0,0,1-.68-0.07l-0.5-.37a0.59,0.59,0,0,1-.28-0.62l0.12-.52A0.32,0.32,0,0,1,210.28,242.72Zm-3.07-.08,1.71-.26a0.34,0.34,0,0,1,.33.43l-0.12.51a0.56,0.56,0,0,1-.53.41l-0.65.09a0.61,0.61,0,0,1-.64-0.25l-0.28-.45A0.31,0.31,0,0,1,207.21,242.64Zm-0.66.78,0.28,0.45a0.56,0.56,0,0,1-.08.67l-0.44.57a0.6,0.6,0,0,1-.62.28l-0.52-.12a0.32,0.32,0,0,1-.23-0.48l1.07-1.43A0.33,0.33,0,0,1,206.55,243.41Z" transform="translate(-72.22 -195.78)"/><g class="cls-2"><path class="cls-3" d="M154.84,419.41l4.84-.77c1.16-.17,2.28-0.3,3.1-0.37s1.35-.1,1.35-0.1l-0.6-11.23s-0.72,0-1.76.13-2.39.25-3.69,0.44l-5,.79Z" transform="translate(-72.22 -195.78)"/><path class="cls-4" d="M161.22,412.38l0.12,1.12,0.91-.09,0.91-.07-0.08-1.12-0.93.08Z" transform="translate(-72.22 -195.78)"/><polygon class="cls-4" points="85.7 217.04 85.87 218.15 87.68 217.89 87.53 216.78 85.7 217.04"/><rect class="cls-5" x="154.73" y="413.19" width="1.85" height="1.13" transform="translate(-136.35 -165.58) rotate(-9.2)"/><path class="cls-3" d="M164.13,418.18s0.53,0,1.29,0a16.42,16.42,0,0,1,2.53.16,6.42,6.42,0,0,1,1.72.47,1.32,1.32,0,0,1,.38.22l6.71-9a12.19,12.19,0,0,0-2.29-1.36,17.64,17.64,0,0,0-4.83-1.42,27.47,27.47,0,0,0-4.29-.28c-1.11,0-1.82.06-1.82,0.06Z" transform="translate(-72.22 -195.78)"/><path class="cls-4" d="M171.25,412.91L170.89,414s0.41,0.14.79,0.32a6.69,6.69,0,0,1,.75.39l0.58-1a7.89,7.89,0,0,0-.86-0.45C171.71,413.07,171.25,412.91,171.25,412.91Z" transform="translate(-72.22 -195.78)"/><path class="cls-4" d="M167.93,412.22l-0.11,1.12,0.88,0.11,0.86,0.16,0.24-1.1-0.93-.17Z" transform="translate(-72.22 -195.78)"/><path class="cls-4" d="M164.57,412.13l0,1.12,0.9,0h0.9l0-1.12h-0.94Z" transform="translate(-72.22 -195.78)"/><path class="cls-3" d="M170.05,419a0.76,0.76,0,0,1,.19.17,1.64,1.64,0,0,1,.31.71,3.71,3.71,0,0,0,.07.39c0,0.16,0,.31,0,0.46l0.07,1.49,0.05,1.47,11.24-.31L182,421.73,181.9,420l-0.13-1.33c-0.08-.47-0.17-1-0.27-1.43a13,13,0,0,0-2.67-5.38,12.59,12.59,0,0,0-1.47-1.47c-0.38-.32-0.61-0.47-0.61-0.47Z" transform="translate(-72.22 -195.78)"/><polygon class="cls-4" points="104.5 225.15 103.37 225.2 103.45 227.04 104.57 227 104.5 225.15"/><path class="cls-4" d="M176.14,417.56l-1.06.38a2.06,2.06,0,0,1,.08.25l0.16,0.56,0.16,0.84,1.11-.15-0.18-.94-0.18-.64A2.61,2.61,0,0,0,176.14,417.56Z" transform="translate(-72.22 -195.78)"/><path class="cls-4" d="M174.26,414.66l-0.77.82,0.19,0.17,0.37,0.42c0.25,0.32.47,0.67,0.47,0.67l1-.58s-0.26-.41-0.56-0.8l-0.45-.5Z" transform="translate(-72.22 -195.78)"/><path class="cls-3" d="M170.8,423.68s0.08,2.34,0,4.56a37.51,37.51,0,0,1-.43,4.31l11.1,1.8a50.18,50.18,0,0,0,.57-5.58c0.13-2.76,0-5.39,0-5.39Z" transform="translate(-72.22 -195.78)"/><path class="cls-4" d="M176.62,430.93l-1.12-.11-0.1.9c0,0.45-.12.9-0.12,0.9l1.11,0.16s0.08-.46.12-0.92Z" transform="translate(-72.22 -195.78)"/><path class="cls-4" d="M176.82,427.6l-1.12,0,0,0.91c0,0.46-.05.91-0.05,0.91l1.12,0.07s0-.46.05-0.93Z" transform="translate(-72.22 -195.78)"/><path class="cls-4" d="M176.83,424.27l-1.12,0v1.83h1.12v-1.86Z" transform="translate(-72.22 -195.78)"/><path class="cls-3" d="M170.34,432.55s-0.08.53-.24,1.3a28.79,28.79,0,0,1-.71,2.82c-0.3,1-.66,2-1,2.76s-0.52,1.24-.52,1.24l10.29,4.55s0.3-.63.68-1.62,0.89-2.32,1.29-3.69,0.75-2.76,1-3.81,0.32-1.75.32-1.75Z" transform="translate(-72.22 -195.78)"/><polygon class="cls-4" points="102.17 244.93 101.12 244.53 100.45 246.22 101.49 246.66 102.17 244.93"/><path class="cls-4" d="M175.42,437.52l-1.08-.3-0.26.87c-0.12.44-.27,0.87-0.27,0.87l1.07,0.35s0.15-.44.28-0.89Z" transform="translate(-72.22 -195.78)"/><path class="cls-4" d="M176.15,434.27l-1.11-.2-0.18.89c-0.08.45-.19,0.88-0.19,0.88l1.1,0.26s0.12-.45.2-0.91Z" transform="translate(-72.22 -195.78)"/><path class="cls-3" d="M167.89,440.68a40.17,40.17,0,0,1-2,3.93l-0.49.88c-0.19.34-.37,0.68-0.53,1-0.33.65-.59,1.25-0.81,1.77s-0.38.93-.49,1.22l-0.18.46L174,453.86l0.13-.34c0.08-.22.2-0.53,0.35-0.87s0.32-.75.52-1.13c0.1-.2.2-0.4,0.31-0.58l0.41-.75a52.6,52.6,0,0,0,2.51-4.94Z" transform="translate(-72.22 -195.78)"/><path class="cls-4" d="M170,449.68l-1-.48-0.39.87-0.36.87,1,0.41,0.35-.84Z" transform="translate(-72.22 -195.78)"/><polygon class="cls-4" points="99.37 251 98.38 250.46 97.48 252.07 98.47 252.62 99.37 251"/><path class="cls-4" d="M173.09,443.81l-1-.47s-0.18.42-.39,0.82l-0.41.81,1,0.51,0.42-.83C172.91,444.24,173.09,443.81,173.09,443.81Z" transform="translate(-72.22 -195.78)"/><path class="cls-3" d="M163.41,449.93l-0.57,1.6-1.09,3.25c-0.38,1.11-.75,2.1-1.05,2.79-0.15.35-.27,0.62-0.37,0.8l-0.14.29,10,5.08,0.23-.48c0.15-.31.35-0.74,0.57-1.25,0.44-1,.94-2.36,1.37-3.61l1.09-3.24,0.47-1.33Z" transform="translate(-72.22 -195.78)"/><path class="cls-4" d="M166.63,459l-1-.41-0.34.84-0.37.82,1,0.48,0.38-.86Z" transform="translate(-72.22 -195.78)"/><polygon class="cls-4" points="95.53 260.08 94.46 259.72 93.87 261.45 94.93 261.83 95.53 260.08"/><polygon class="cls-4" points="96.58 256.96 95.52 256.58 94.92 258.34 95.99 258.7 96.58 256.96"/></g><g class="cls-2"><path class="cls-3" d="M150.87,234.83s-1.49-2.24-3.13-4.41-3.4-4.25-3.4-4.25l-8.55,7.31s1.54,1.78,3,3.7,2.76,3.89,2.76,3.89Z" transform="translate(-72.22 -195.78)"/><path class="cls-4" d="M141.43,232.12l0.88-.7-0.6-.74c-0.29-.37-0.61-0.73-0.61-0.73l-0.86.72s0.31,0.35.6,0.72Z" transform="translate(-72.22 -195.78)"/><polygon class="cls-4" points="71.27 39.01 72.18 38.34 71.03 36.82 70.14 37.51 71.27 39.01"/><path class="cls-4" d="M145.42,237.54l0.93-.63-0.54-.79-0.55-.78-0.92.65,0.54,0.77Z" transform="translate(-72.22 -195.78)"/><path class="cls-3" d="M144.34,226.18s-1.76-2.09-3.71-4c-1-1-2-1.94-2.75-2.63s-1.3-1.15-1.3-1.15l-7.33,8.53s0.44,0.37,1.08,1,1.48,1.38,2.3,2.2c1.64,1.65,3.16,3.46,3.16,3.46Z" transform="translate(-72.22 -195.78)"/><polygon class="cls-4" points="62.39 28.88 63.16 28.06 61.74 26.77 60.99 27.62 62.39 28.88"/><path class="cls-4" d="M137,227l0.81-.78-0.66-.69-0.68-.67-0.79.8,0.67,0.66Z" transform="translate(-72.22 -195.78)"/><polygon class="cls-4" points="67.05 33.72 67.89 32.98 66.62 31.57 65.79 32.33 67.05 33.72"/><path class="cls-3" d="M136.57,218.34s-2.1-1.84-4.43-3.46c-1.14-.83-2.36-1.58-3.26-2.14l-1.55-.89-5.47,9.83a41.4,41.4,0,0,1,3.79,2.4c1.86,1.29,3.59,2.8,3.59,2.8Z" transform="translate(-72.22 -195.78)"/><path class="cls-4" d="M126.65,218.45l0.6-.95-0.81-.51-0.83-.48-0.56,1,0.81,0.47Z" transform="translate(-72.22 -195.78)"/><polygon class="cls-4" points="57.21 24.56 57.88 23.65 56.31 22.55 55.68 23.48 57.21 24.56"/><path class="cls-4" d="M132.06,222.42l0.72-.86-0.73-.61-0.76-.59-0.69.89,0.74,0.57Z" transform="translate(-72.22 -195.78)"/><path class="cls-3" d="M127.33,211.85l-0.43-.24-1.16-.6c-1-.51-2.26-1.1-3.61-1.66l-2-.77c-0.66-.23-1.29-0.4-1.82-0.57a16.57,16.57,0,0,0-1.8-.48l-2.63,10.94a9.61,9.61,0,0,1,1.27.34c0.38,0.12.83,0.24,1.3,0.4l1.46,0.55c1,0.43,2,.87,2.74,1.27l0.89,0.46,0.33,0.19Z" transform="translate(-72.22 -195.78)"/><polygon class="cls-4" points="45.38 18.3 45.73 17.23 43.88 16.68 43.59 17.76 45.38 18.3"/><path class="cls-4" d="M120.72,215.28l0.45-1s-0.43-.21-0.88-0.38l-0.9-.34-0.4,1.05,0.87,0.33C120.3,215.07,120.72,215.28,120.72,215.28Z" transform="translate(-72.22 -195.78)"/><polygon class="cls-4" points="51.52 20.96 52.05 19.97 50.34 19.09 49.85 20.11 51.52 20.96"/><path class="cls-3" d="M116.49,207.52l-1.82-.41c-1.11-.17-2.58-0.44-4.08-0.53a21.21,21.21,0,0,0-2.2-.11c-0.7,0-1.36,0-1.92,0l-1.87.1,0.92,11.21,1.31-.07c0.39,0,.85,0,1.34,0a12.5,12.5,0,0,1,1.54.07c1,0.05,2.08.26,2.86,0.37l1.28,0.29Z" transform="translate(-72.22 -195.78)"/><path class="cls-4" d="M107.71,212.49v-1.12h-0.3a6.38,6.38,0,0,0-.66,0l-1,.05,0.07,1.12,0.93-.05a6,6,0,0,1,.64,0h0.29Z" transform="translate(-72.22 -195.78)"/><polygon class="cls-4" points="38.83 16.89 38.95 15.77 37.03 15.61 36.98 16.73 38.83 16.89"/><path class="cls-4" d="M114.34,213.21l0.24-1.1s-0.47-.12-0.94-0.2l-1-.15-0.17,1.11,0.92,0.14C113.89,213.09,114.34,213.21,114.34,213.21Z" transform="translate(-72.22 -195.78)"/><path class="cls-3" d="M104.61,206.59a42.53,42.53,0,0,0-5.89,1,36.69,36.69,0,0,0-5.64,1.86l4.3,10.39a25.35,25.35,0,0,1,4-1.32,30.94,30.94,0,0,1,4.14-.68Z" transform="translate(-72.22 -195.78)"/><path class="cls-4" d="M97.83,214.07L97.48,213l-0.91.31c-0.46.14-.9,0.33-0.9,0.33l0.41,1s0.43-.19.88-0.32Z" transform="translate(-72.22 -195.78)"/><path class="cls-4" d="M101.06,213.19l-0.24-1.1s-0.48.08-.94,0.22l-0.93.25,0.3,1.08S101,213.16,101.06,213.19Z" transform="translate(-72.22 -195.78)"/><path class="cls-4" d="M104.35,212.67l-0.12-1.12-1,.12-0.66.08-0.3.06,0.18,1.11,0.29-.05,0.64-.08Z" transform="translate(-72.22 -195.78)"/><path class="cls-3" d="M93.08,209.41a38.32,38.32,0,0,0-5.27,2.65c-0.65.35-1.24,0.79-1.82,1.16s-1.11.74-1.54,1.08L83,215.38l7,8.78,1.08-.81a12.59,12.59,0,0,1,1.13-.79c0.43-.27.86-0.6,1.33-0.85a26.61,26.61,0,0,1,3.81-1.91Z" transform="translate(-72.22 -195.78)"/><path class="cls-4" d="M88.85,218.53l-0.64-.93s-0.4.26-.78,0.56l-0.77.58,0.69,0.89,0.75-.56C88.46,218.79,88.85,218.53,88.85,218.53Z" transform="translate(-72.22 -195.78)"/><path class="cls-4" d="M91.69,216.76l-0.55-1-0.84.48c-0.42.23-.82,0.5-0.82,0.5l0.6,1a9.23,9.23,0,0,1,.8-0.49Z" transform="translate(-72.22 -195.78)"/><path class="cls-4" d="M94.68,215.26l-0.45-1-0.28.12-0.6.29-0.87.42,0.51,1,0.84-.41,0.58-.28Z" transform="translate(-72.22 -195.78)"/></g><g class="cls-2"><path class="cls-3" d="M166.23,278.37s-0.16-2.17-.44-4.33-0.66-4.29-.66-4.29l-11.07,2s0.34,1.86.58,3.73,0.38,3.74.38,3.74Z" transform="translate(-72.22 -195.78)"/><polygon class="cls-4" points="87.32 77.1 88.43 76.93 88.19 75.43 87.08 75.62 87.32 77.1"/><polygon class="cls-4" points="87.68 79.77 88.8 79.64 88.61 78.13 87.49 78.28 87.68 79.77"/><polygon class="cls-4" points="87.95 82.43 89.08 82.34 88.93 80.83 87.81 80.94 87.95 82.43"/><path class="cls-3" d="M165.12,269.75s-0.38-2.14-.88-4.25-1.09-4.2-1.09-4.2l-10.82,3.09s0.52,1.82.95,3.66,0.76,3.7.76,3.7Z" transform="translate(-72.22 -195.78)"/><polygon class="cls-4" points="85.7 69.2 86.78 68.92 86.39 67.45 85.31 67.75 85.7 69.2"/><polygon class="cls-4" points="86.32 71.81 87.42 71.56 87.08 70.08 85.98 70.35 86.32 71.81"/><polygon class="cls-4" points="86.86 74.44 87.97 74.23 87.67 72.74 86.57 72.97 86.86 74.44"/></g><g class="cls-2"><path class="cls-3" d="M126.55,284.15l-1.46-.51c-0.87-.32-2.06-0.67-3.2-1.16s-2.31-.91-3.16-1.28l-1.41-.64-4.63,10.25,1.59,0.72c1,0.41,2.26.92,3.55,1.44s2.62,0.95,3.6,1.31l1.65,0.57Z" transform="translate(-72.22 -195.78)"/><path class="cls-4" d="M117.35,287.15l0.43-1-0.9-.37-0.88-.4-0.45,1,0.89,0.41Z" transform="translate(-72.22 -195.78)"/><polygon class="cls-4" points="48.41 92.68 48.8 91.63 47 90.9 46.58 91.95 48.41 92.68"/><polygon class="cls-4" points="51.72 93.84 52.08 92.77 50.24 92.13 49.87 93.19 51.72 93.84"/><path class="cls-3" d="M117.32,280.56s-2.28-1-4.45-2.16c-0.55-.29-1.1-0.56-1.61-0.84l-1.36-.79-1.33-.77-5.79,9.65,1.52,0.88,1.56,0.9c0.57,0.32,1.2.63,1.82,0.95,2.47,1.33,5,2.44,5,2.44Z" transform="translate(-72.22 -195.78)"/><polygon class="cls-4" points="35.62 86.76 36.17 85.78 34.49 84.81 33.92 85.78 35.62 86.76"/><polygon class="cls-4" points="38.74 88.41 39.24 87.4 37.52 86.52 36.99 87.51 38.74 88.41"/><path class="cls-4" d="M114.11,285.72l0.47-1-0.88-.4c-0.44-.2-0.88-0.41-0.88-0.41l-0.49,1s0.44,0.22.89,0.42Z" transform="translate(-72.22 -195.78)"/><path class="cls-3" d="M108.56,276l-0.37-.21c-0.24-.13-0.56-0.33-0.94-0.59l-2.82-1.84-2.7-2c-0.75-.53-1.2-0.93-1.2-0.93l-7,8.77s0.54,0.47,1.4,1.09,2,1.49,3.14,2.31l3.24,2.12c0.44,0.3.81,0.52,1.08,0.67l0.42,0.24Z" transform="translate(-72.22 -195.78)"/><polygon class="cls-4" points="26.74 81.03 27.41 80.12 25.85 78.97 25.16 79.86 26.74 81.03"/><path class="cls-4" d="M101.83,278.85l0.63-.93-0.81-.53c-0.4-.27-0.78-0.57-0.78-0.57l-0.65.92s0.39,0.3.8,0.58Z" transform="translate(-72.22 -195.78)"/><path class="cls-4" d="M104.77,280.76l0.59-1-0.82-.52-0.81-.53-0.61.94,0.82,0.54Z" transform="translate(-72.22 -195.78)"/><path class="cls-3" d="M100.54,270.45l-1.15-1c-0.69-.59-1.64-1.34-2.47-2.2s-1.75-1.64-2.33-2.31l-1-1.11-8.41,7.47,1.2,1.35c0.72,0.81,1.79,1.77,2.81,2.78s2.12,1.91,2.94,2.61l1.36,1.15Z" transform="translate(-72.22 -195.78)"/><path class="cls-4" d="M90.95,269.88l0.8-.79a7.06,7.06,0,0,1-.67-0.69l-0.64-.72-0.83.76,0.65,0.74A7.31,7.31,0,0,0,90.95,269.88Z" transform="translate(-72.22 -195.78)"/><polygon class="cls-4" points="21.27 76.56 22.03 75.73 20.64 74.38 19.85 75.19 21.27 76.56"/><polygon class="cls-4" points="23.94 78.84 24.65 77.97 23.17 76.73 22.43 77.58 23.94 78.84"/><path class="cls-3" d="M93.6,263.86l-1-1.11c-0.61-.65-1.24-1.63-2-2.55a24.38,24.38,0,0,1-1.77-2.66l-0.76-1.23-9.79,5.54,1,1.57a33.94,33.94,0,0,0,2.24,3.36c0.89,1.16,1.72,2.38,2.45,3.18l1.2,1.36Z" transform="translate(-72.22 -195.78)"/><polygon class="cls-4" points="12.11 65.84 13.05 65.23 12.04 63.59 11.07 64.16 12.11 65.84"/><polygon class="cls-4" points="14.14 68.73 15.04 68.05 13.88 66.51 12.96 67.15 14.14 68.73"/><path class="cls-4" d="M88.56,267.25l0.85-.73s-1.29-1.44-1.25-1.47l-0.88.7S88.56,267.25,88.56,267.25Z" transform="translate(-72.22 -195.78)"/><path class="cls-3" d="M88.11,256.31L87.9,256,87.45,255c-0.36-.78-0.92-1.79-1.35-2.84L85,249.26a7.35,7.35,0,0,1-.27-1l-0.09-.38L73.8,250.84l0.13,0.5a12.09,12.09,0,0,0,.37,1.31l1.42,3.87c0.56,1.38,1.28,2.69,1.75,3.7l0.6,1.21,0.26,0.43Z" transform="translate(-72.22 -195.78)"/><path class="cls-4" d="M79.66,252.1l1.06-.37-0.33-.9a4.2,4.2,0,0,1-.2-0.63l-0.07-.29-1.08.32,0.07,0.3a4.43,4.43,0,0,0,.21.64Z" transform="translate(-72.22 -195.78)"/><path class="cls-4" d="M80.93,255.41l1-.46a5.38,5.38,0,0,1-.38-0.88l-0.33-.9-1,.41,0.34,0.93A5.65,5.65,0,0,0,80.93,255.41Z" transform="translate(-72.22 -195.78)"/><polygon class="cls-4" points="10.26 62.79 11.25 62.26 10.41 60.53 9.39 61.02 10.26 62.79"/><path class="cls-3" d="M84.66,247.9l-0.34-1.37c-0.09-.41-0.25-0.89-0.33-1.41l-0.21-1.65-0.22-1.65a10.47,10.47,0,0,1-.09-1.31c0-.37,0-0.68,0-0.89v-0.34l-11.23-.64,0,0.57c0,0.36,0,.87,0,1.5a19.7,19.7,0,0,0,.13,2.06L72.63,245l0.29,2.19c0.12,0.69.31,1.33,0.43,1.87l0.45,1.82Z" transform="translate(-72.22 -195.78)"/><path class="cls-4" d="M77.49,241.72l1.12-.08s-0.07-1.89,0-1.89l-1.12,0a8.48,8.48,0,0,0,0,1Z" transform="translate(-72.22 -195.78)"/><polygon class="cls-4" points="5.72 49.45 6.83 49.28 6.59 47.38 5.47 47.5 5.72 49.45"/><polygon class="cls-4" points="6.44 52.91 7.53 52.63 7.07 50.77 5.96 50.99 6.44 52.91"/><path class="cls-3" d="M83.5,239.28a18.23,18.23,0,0,1,.69-4,24.83,24.83,0,0,1,1-2.79l0.56-1.28-10.2-4.74-0.76,1.74a36.08,36.08,0,0,0-1.4,4.05,32,32,0,0,0-.9,4.33l-0.15,1.48c0,0.36,0,.56,0,0.56Z" transform="translate(-72.22 -195.78)"/><path class="cls-4" d="M79.17,231.23l1.05,0.39,0.35-.89c0.17-.45.38-0.88,0.38-0.88l-1-.45s-0.21.45-.39,0.91Z" transform="translate(-72.22 -195.78)"/><path class="cls-4" d="M78.13,234.63l1.09,0.26s0.1-.46.24-0.92l0.27-.91-1.07-.34s-0.14.47-.28,1S78.13,234.63,78.13,234.63Z" transform="translate(-72.22 -195.78)"/><path class="cls-4" d="M77.55,238.13l1.12,0.1,0.1-.94,0.15-.94-1.11-.2-0.16,1Z" transform="translate(-72.22 -195.78)"/><path class="cls-3" d="M85.7,231.22a42.73,42.73,0,0,1,2.21-4.09c1.23-2,2.69-4.11,2.69-4.11l-9.24-6.41s-1.58,2.24-3.07,4.71c-0.75,1.22-1.45,2.51-2,3.5l-0.82,1.68Z" transform="translate(-72.22 -195.78)"/><polygon class="cls-4" points="11.9 26.08 12.84 26.69 13.92 25.08 12.99 24.45 11.9 26.08"/><path class="cls-4" d="M82.26,224.86l1,0.57,0.49-.83,0.5-.82-1-.6-0.51.84Z" transform="translate(-72.22 -195.78)"/><path class="cls-4" d="M80.59,228l1,0.49s0.2-.43.43-0.86l0.45-.85-1-.54-0.46.87C80.8,227.51,80.59,228,80.59,228Z" transform="translate(-72.22 -195.78)"/></g><g class="cls-2"><polygon class="cls-3" points="70.55 92.3 65.65 91.38 63.34 102.38 68.71 103.39 70.55 92.3"/><polygon class="cls-4" points="65.75 97.52 65.97 96.42 65.02 96.24 64.79 97.34 65.75 97.52"/><polygon class="cls-4" points="67.46 97.84 67.67 96.74 66.72 96.56 66.51 97.66 67.46 97.84"/><polygon class="cls-4" points="69.17 98.17 69.36 97.06 68.42 96.88 68.22 97.98 69.17 98.17"/></g><g class="cls-2"><path class="cls-3" d="M258.47,335.8L258,337.2c-0.3.84-.66,2-1.14,3.07s-0.89,2.22-1.28,3l-0.63,1.37,10.18,4.79,0.71-1.56c0.45-.92,1-2.21,1.47-3.49s1-2.59,1.32-3.57l0.57-1.64Z" transform="translate(-72.22 -195.78)"/><polygon class="cls-4" points="189.28 149.02 188.24 148.58 187.45 150.3 188.48 150.77 189.28 149.02"/><polygon class="cls-4" points="190.58 145.83 189.53 145.43 188.81 147.18 189.85 147.61 190.58 145.83"/><polygon class="cls-4" points="191.73 142.59 190.66 142.24 190.03 144.03 191.09 144.41 191.73 142.59"/><path class="cls-3" d="M254.92,344.68l-0.17.38c-0.1.24-.27,0.58-0.48,1-0.42.81-.94,1.9-1.53,3-1.15,2.15-2.42,4.27-2.42,4.27L260,359s1.38-2.3,2.66-4.69c0.65-1.18,1.24-2.42,1.71-3.33,0.23-.45.42-0.84,0.54-1.11l0.2-.43Z" transform="translate(-72.22 -195.78)"/><path class="cls-4" d="M256.85,354l-1-.55s-0.23.42-.47,0.82l-0.48.82,1,0.57,0.49-.83C256.62,354.47,256.85,354,256.85,354Z" transform="translate(-72.22 -195.78)"/><path class="cls-4" d="M258.5,351l-1-.52s-0.22.42-.45,0.84l-0.46.83,1,0.54,0.46-.84C258.28,351.45,258.5,351,258.5,351Z" transform="translate(-72.22 -195.78)"/><polygon class="cls-4" points="187.83 152.18 186.82 151.69 185.96 153.39 186.97 153.9 187.83 152.18"/><path class="cls-3" d="M250.32,353.29s-0.3.53-.79,1.33-1.13,1.85-1.81,2.91c-1.34,2.11-2.76,4.23-2.76,4.23l9.38,6.22s1.44-2.16,2.87-4.4c0.72-1.11,1.41-2.26,1.94-3.1S260,359,260,359Z" transform="translate(-72.22 -195.78)"/><rect class="cls-5" x="249.49" y="362.78" width="1.91" height="1.13" transform="translate(-262.92 178.61) rotate(-56.86)"/><polygon class="cls-4" points="181.09 164.18 180.14 163.58 179.11 165.18 180.05 165.79 181.09 164.18"/><path class="cls-4" d="M255.1,357l-1-.58s-0.24.41-.49,0.81l-0.5.81,1,0.59,0.5-.82C254.86,357.45,255.1,357,255.1,357Z" transform="translate(-72.22 -195.78)"/><path class="cls-3" d="M245,361.76l-2.86,4.31c-0.72,1.08-1.45,2.24-2,3.08l-0.9,1.48,9.66,5.77,0.78-1.27c0.5-.78,1.15-1.81,1.86-2.87l2.84-4.28Z" transform="translate(-72.22 -195.78)"/><path class="cls-4" d="M245.78,371.45l-0.95-.61-0.52.81-0.5.82,1,0.59,0.49-.81Z" transform="translate(-72.22 -195.78)"/><polygon class="cls-4" points="175.43 172.8 174.5 172.18 173.44 173.78 174.38 174.4 175.43 172.8"/><rect class="cls-5" x="247.59" y="365.66" width="1.91" height="1.13" transform="translate(-266.25 174.78) rotate(-56.4)"/><path class="cls-3" d="M239.21,370.63s-0.36.57-.89,1.54a34.47,34.47,0,0,0-1.87,3.79,24.71,24.71,0,0,0-1.31,4.35c-0.25,1.17-.34,1.94-0.34,1.94l11.13,1.62a12.35,12.35,0,0,1,.22-1.23,13.61,13.61,0,0,1,.72-2.43,23.85,23.85,0,0,1,1.27-2.55c0.39-.73.72-1.25,0.72-1.25Z" transform="translate(-72.22 -195.78)"/><path class="cls-4" d="M241.27,380.53l-1.09-.28a9.67,9.67,0,0,0-.23,1l-0.2,1,1.11,0.19,0.19-.92A8.94,8.94,0,0,1,241.27,380.53Z" transform="translate(-72.22 -195.78)"/><path class="cls-4" d="M242.4,377.37l-1-.47-0.13.28a4.78,4.78,0,0,0-.27.63l-0.35.94,1.07,0.36,0.33-.87a4.33,4.33,0,0,1,.25-0.59Z" transform="translate(-72.22 -195.78)"/><polygon class="cls-4" points="171.76 178.6 170.79 178.03 169.84 179.73 170.84 180.26 171.76 178.6"/><path class="cls-3" d="M234.8,382.24l-0.07.53c-0.05.34-.11,0.82-0.15,1.39a35.55,35.55,0,0,0-.12,4.16c0,1.49.16,2.95,0.28,4l0.23,1.78,11.13-1.63-0.18-1.41c-0.09-.84-0.19-2-0.21-3a24.29,24.29,0,0,1,.08-2.92,9.31,9.31,0,0,1,.1-0.93l0-.35Z" transform="translate(-72.22 -195.78)"/><path class="cls-4" d="M240.61,390.63l-1.12.1,0.09,1c0,0.48.12,1,.12,1l1.12-.15s-0.07-.47-0.12-0.94Z" transform="translate(-72.22 -195.78)"/><path class="cls-4" d="M240.46,387.24h-1.12l0,1c0,0.49,0,1,0,1l1.12-.06s0-.47,0-0.95v-0.95Z" transform="translate(-72.22 -195.78)"/><path class="cls-4" d="M240.65,383.87l-1.12-.13s0,0.49-.09,1-0.07,1-.07,1l1.12,0.06s0-.47.07-0.94S240.65,383.87,240.65,383.87Z" transform="translate(-72.22 -195.78)"/><path class="cls-3" d="M235,394.13s0.41,2.84,1.07,5.53,1.42,5.29,1.42,5.29l10.78-3.2s-0.71-2.35-1.25-4.66-0.89-4.58-.89-4.58Z" transform="translate(-72.22 -195.78)"/><polygon class="cls-4" points="170.28 204.89 169.19 205.18 169.71 207.04 170.79 206.73 170.28 204.89"/><path class="cls-4" d="M241.68,397.36l-1.1.24,0.21,0.94,0.23,0.94,1.09-.27-0.23-.92Z" transform="translate(-72.22 -195.78)"/><path class="cls-4" d="M241,394l-1.11.18,0.16,1,0.18,1,1.1-.22L241.2,395Z" transform="translate(-72.22 -195.78)"/><path class="cls-3" d="M237.45,405l1.42,4.93c0.74,2.56,1.61,5.13,1.61,5.13l10.66-3.6s-0.79-2.31-1.48-4.7l-1.44-5Z" transform="translate(-72.22 -195.78)"/><path class="cls-4" d="M245.37,410.55l-1.07.34,0.29,0.92,0.3,0.91,1.07-.35-0.3-.91Z" transform="translate(-72.22 -195.78)"/><polygon class="cls-4" points="172.17 211.49 171.09 211.8 171.63 213.65 172.71 213.32 172.17 211.49"/><polygon class="cls-4" points="171.23 208.2 170.15 208.53 170.68 210.35 171.76 210.05 171.23 208.2"/><path class="cls-3" d="M240.49,415s0.85,2.57,1.86,5.1c0.49,1.27,1,2.52,1.43,3.47l0.71,1.56,10.23-4.67-0.62-1.38c-0.35-.84-0.83-1.95-1.27-3.09-0.9-2.26-1.67-4.58-1.67-4.58Z" transform="translate(-72.22 -195.78)"/><path class="cls-4" d="M248.89,420.19l-1,.44,0.37,0.89,0.4,0.88,1-.46-0.39-.87Z" transform="translate(-72.22 -195.78)"/><path class="cls-4" d="M247.61,417l-1.05.4,0.35,0.9c0.17,0.45.35,0.9,0.35,0.9l1-.42s-0.18-.44-0.35-0.89Z" transform="translate(-72.22 -195.78)"/><polygon class="cls-4" points="174.23 218.04 173.16 218.41 173.81 220.22 174.87 219.84 174.23 218.04"/><path class="cls-3" d="M244.48,425.13s0.27,0.63.72,1.55,1,2.17,1.71,3.37,1.31,2.43,1.86,3.31l0.89,1.49,9.56-5.93-0.76-1.28c-0.47-.76-1-1.81-1.61-2.87s-1.08-2.15-1.49-2.95-0.63-1.37-.63-1.37Z" transform="translate(-72.22 -195.78)"/><polygon class="cls-4" points="181.19 233.61 180.22 234.17 181.21 235.83 182.17 235.25 181.19 233.61"/><polygon class="cls-4" points="179.56 230.62 178.56 231.13 179.48 232.83 180.46 232.29 179.56 230.62"/><path class="cls-4" d="M250.28,423.34l-1,.48s0.19,0.44.41,0.87l0.43,0.86,1-.5-0.42-.85C250.47,423.78,250.28,423.34,250.28,423.34Z" transform="translate(-72.22 -195.78)"/><path class="cls-3" d="M249.65,434.85s0.37,0.59.94,1.46,1.33,2,2.18,3.15c0.42,0.56.82,1.13,1.22,1.65l1.14,1.4,1.11,1.36,8.52-7.35-0.92-1.14-0.95-1.16-1-1.39c-0.71-.94-1.36-1.93-1.85-2.67s-0.81-1.24-.81-1.24Z" transform="translate(-72.22 -195.78)"/><polygon class="cls-4" points="186.91 242.1 186.03 242.8 187.25 244.3 188.11 243.58 186.91 242.1"/><polygon class="cls-4" points="184.87 239.38 183.95 240.02 185.09 241.59 185.99 240.91 184.87 239.38"/><polygon class="cls-4" points="182.97 236.55 182.02 237.16 183.08 238.77 184.02 238.14 182.97 236.55"/></g><g class="cls-2"><path class="cls-3" d="M221.53,254.35l0.11-1.52c0.07-.91.13-2.13,0.28-3.33,0.22-2.42.59-4.79,0.59-4.79l-11.13-1.63s-0.41,2.66-.65,5.33c-0.16,1.33-.23,2.66-0.3,3.66l-0.12,1.66Z" transform="translate(-72.22 -195.78)"/><polygon class="cls-4" points="143.96 50.69 145.07 50.83 145.33 48.97 144.22 48.81 143.96 50.69"/><polygon class="cls-4" points="143.6 54.08 144.72 54.18 144.92 52.31 143.8 52.19 143.6 54.08"/><polygon class="cls-4" points="143.35 57.47 144.47 57.53 144.61 55.66 143.49 55.57 143.35 57.47"/><path class="cls-3" d="M222.5,244.72l0.21-1.49L223.3,240c0.24-1.17.53-2.32,0.72-3.19a14.44,14.44,0,0,1,.37-1.43l-10.86-2.92s-0.21.66-.43,1.66-0.55,2.32-.83,3.65l-0.67,3.66-0.24,1.66Z" transform="translate(-72.22 -195.78)"/><polygon class="cls-4" points="145.72 40.61 146.82 40.87 147.25 39.04 146.16 38.76 145.72 40.61"/><path class="cls-4" d="M217.23,239.73l1.1,0.21,0.17-.92c0.08-.46.2-0.92,0.2-0.92l-1.1-.24s-0.12.46-.2,0.93Z" transform="translate(-72.22 -195.78)"/><path class="cls-4" d="M216.65,243.07l1.11,0.17s0.06-.47.14-0.93l0.17-.92L217,241.2l-0.17.93C216.7,242.6,216.65,243.07,216.65,243.07Z" transform="translate(-72.22 -195.78)"/><path class="cls-3" d="M224.4,235.38L224.8,234l0.42-1.45,0.57-1.61,0.56-1.61c0.2-.5.41-1,0.57-1.36l0.56-1.32L217.22,222l-0.69,1.61c-0.2.48-.45,1-0.69,1.66l-0.68,1.92-0.67,1.92L214,230.8l-0.47,1.65Z" transform="translate(-72.22 -195.78)"/><polygon class="cls-4" points="148.73 30.82 149.77 31.23 150.5 29.51 149.47 29.06 148.73 30.82"/><polygon class="cls-4" points="147.57 34.03 148.64 34.39 149.25 32.62 148.2 32.23 147.57 34.03"/><polygon class="cls-4" points="146.58 37.28 147.66 37.59 148.18 35.79 147.1 35.45 146.58 37.28"/><path class="cls-3" d="M227.48,226.62l0.15-.36a9.18,9.18,0,0,1,.45-0.92c0.4-.74.88-1.78,1.45-2.74l1.62-2.58,0.83-1.08-9-6.78-1.1,1.45c-0.59.9-1.35,2.13-2.11,3.35s-1.33,2.51-1.83,3.46c-0.25.47-.45,0.87-0.56,1.15l-0.19.44Z" transform="translate(-72.22 -195.78)"/><path class="cls-4" d="M225.63,217.47l0.94,0.62,0.49-.79,0.56-.74-0.91-.66-0.58.76Z" transform="translate(-72.22 -195.78)"/><path class="cls-4" d="M223.85,220.4l1,0.55s1-1.6,1-1.6l-1-.59S223.81,220.37,223.85,220.4Z" transform="translate(-72.22 -195.78)"/><polygon class="cls-4" points="150.07 27.65 151.09 28.13 151.95 26.47 150.95 25.95 150.07 27.65"/><path class="cls-3" d="M232,218.93l0.82-1.09c0.49-.66,1.28-1.38,2-2.19a8.43,8.43,0,0,1,1.14-1.07l1-.88c0.3-.26.55-0.48,0.73-0.63l0.3-.2-6.68-9.05-0.42.29c-0.26.2-.61,0.51-1,0.86l-1.45,1.24a14.64,14.64,0,0,0-1.58,1.49c-1,1.08-2.06,2.12-2.72,3L223,212.15Z" transform="translate(-72.22 -195.78)"/><polygon class="cls-4" points="160.15 13.94 160.88 14.79 162.29 13.59 161.6 12.7 160.15 13.94"/><path class="cls-4" d="M229.89,212.09l0.82,0.77,0.63-.68,0.44-.47a1.26,1.26,0,0,1,.21-0.2l-0.77-.82a1.34,1.34,0,0,0-.22.21l-0.45.48Z" transform="translate(-72.22 -195.78)"/><path class="cls-4" d="M227.65,214.68l0.88,0.7,0.56-.74a4,4,0,0,1,.41-0.49l0.2-.21-0.85-.74-0.2.22a4.21,4.21,0,0,0-.42.5Z" transform="translate(-72.22 -195.78)"/><path class="cls-3" d="M238,212.87l1.1-.73,1.12-.76c0.43-.25.91-0.46,1.38-0.71L243,210a9.84,9.84,0,0,1,1.27-.5l1.25-.46-3.64-10.64-1.74.64a16.74,16.74,0,0,0-1.76.71l-2,1c-0.66.35-1.34,0.67-1.94,1l-1.59,1.06-1.55,1Z" transform="translate(-72.22 -195.78)"/><polygon class="cls-4" points="168.83 8.45 169.27 9.48 171.01 8.84 170.63 7.79 168.83 8.45"/><polygon class="cls-4" points="165.76 9.98 166.31 10.97 167.96 10.13 167.47 9.11 165.76 9.98"/><polygon class="cls-4" points="162.87 11.81 163.51 12.73 165.05 11.7 164.46 10.74 162.87 11.81"/><path class="cls-3" d="M245.51,209l0.34-.13c0.22-.07.52-0.22,0.92-0.32,0.78-.23,1.85-0.5,2.93-0.72a42.14,42.14,0,0,1,4.43-.63l-1-11.21a53.14,53.14,0,0,0-5.66.8c-1.41.29-2.82,0.64-3.87,1-0.53.14-1,.33-1.26,0.43l-0.48.17Z" transform="translate(-72.22 -195.78)"/><path class="cls-4" d="M251,201.51l0.16,1.11,0.92-.13,0.93-.1-0.11-1.12-0.95.1Z" transform="translate(-72.22 -195.78)"/><path class="cls-4" d="M247.59,202.13l0.25,1.1,0.91-.19,0.91-.17-0.2-1.11-0.94.18Z" transform="translate(-72.22 -195.78)"/><path class="cls-4" d="M244.29,203l0.34,1.07a7,7,0,0,1,.88-0.29l0.89-.25-0.29-1.09-0.92.26A7.47,7.47,0,0,0,244.29,203Z" transform="translate(-72.22 -195.78)"/><path class="cls-3" d="M254.13,207.21s2.25-.21,4.56-0.17,4.64,0.23,4.64.23l1-11.21s-2.74-.26-5.54-0.27-5.62.22-5.62,0.22Z" transform="translate(-72.22 -195.78)"/><path class="cls-4" d="M261.2,201.08l-0.05,1.12,0.93,0.05,0.93,0.07,0.09-1.12-0.95-.07Z" transform="translate(-72.22 -195.78)"/><path class="cls-4" d="M257.79,201v1.12h0.93l0.93,0,0-1.12-1,0h-1Z" transform="translate(-72.22 -195.78)"/><path class="cls-4" d="M254.38,201.14l0.08,1.12,0.93-.06,0.93,0,0-1.12-1,0Z" transform="translate(-72.22 -195.78)"/></g><g class="cls-2"><polygon class="cls-3" points="149.5 80.24 149.31 76.27 138.07 76.75 138.27 80.85 149.5 80.24"/><polygon class="cls-4" points="143.34 77.57 144.47 77.52 144.43 76.77 143.31 76.82 143.34 77.57"/><rect class="cls-5" x="215.61" y="273.92" width="1.12" height="0.75" transform="translate(-85.55 -184.72) rotate(-2.84)"/><polygon class="cls-4" points="143.47 80.26 144.6 80.2 144.56 79.45 143.44 79.51 143.47 80.26"/></g><g class="cls-2"><polygon class="cls-3" points="184.78 113.49 190.45 105.64 181.29 99.11 175.69 106.86 184.78 113.49"/><polygon class="cls-4" points="184.09 104.18 185.01 104.83 186.05 103.38 185.13 102.73 184.09 104.18"/><rect class="cls-5" x="254.52" y="301.6" width="1.79" height="1.12" transform="translate(-211.36 135.71) rotate(-54.04)"/><rect class="cls-5" x="252.65" y="304.18" width="1.79" height="1.13" transform="matrix(0.59, -0.81, 0.81, 0.59, -214.28, 134.42)"/><path class="cls-3" d="M262.67,301.43l2.81-4,2.77-4-9.33-6.29-2.67,3.9-2.74,3.88Z" transform="translate(-72.22 -195.78)"/><polygon class="cls-4" points="189.63 96.32 190.56 96.96 191.56 95.48 190.63 94.85 189.63 96.32"/><polygon class="cls-4" points="187.81 98.95 188.73 99.6 189.75 98.13 188.82 97.49 187.81 98.95"/><polygon class="cls-4" points="185.97 101.56 186.88 102.21 187.92 100.75 187 100.1 185.97 101.56"/><path class="cls-3" d="M268.24,293.41s1.37-2,2.71-4.1,2.64-4.17,2.64-4.17l-9.58-5.9s-1.22,2-2.5,4l-2.59,3.92Z" transform="translate(-72.22 -195.78)"/><polygon class="cls-4" points="194.92 88.31 195.87 88.92 196.82 87.4 195.87 86.8 194.92 88.31"/><polygon class="cls-4" points="193.19 91 194.14 91.62 195.11 90.11 194.16 89.51 193.19 91"/><polygon class="cls-4" points="191.44 93.66 192.37 94.29 193.36 92.8 192.43 92.18 191.44 93.66"/></g><rect class="cls-3" x="152.06" y="411.17" width="5.79" height="4.89" transform="translate(-130.3 -169.08) rotate(-8.3)"/><polygon class="cls-1" points="85.25 215 84.57 217.57 85.95 219.84 79.87 218.25 85.25 215"/><rect class="cls-3" x="260.25" y="334.08" width="5.79" height="4.89" transform="translate(-169.39 370.22) rotate(-84.47)"/><polygon class="cls-1" points="193.08 143.86 190.75 142.59 188.21 143.38 191.2 137.86 193.08 143.86"/></svg>