<svg id="Layer_1" data-name="Layer 1" xmlns="http://www.w3.org/2000/svg" viewBox="0 0 69.75 60.05"><defs><style>.cls-1{fill:#fff;}</style></defs><title>icon2</title><path class="cls-1" d="M84.85,26.85l-3.17-1.28,0-3.19a42.61,42.61,0,0,0-15.9-3.17A44.81,44.81,0,0,0,50,22.26a44.85,44.85,0,0,0-15.8-3.06,40.63,40.63,0,0,0-15.58,3.11l0,3.55L15.12,27l0,52.29,2.37-1.17c0.08,0,8-3.92,15.39-3.92,6.3,0,13.66,2.18,15.88,2.89l1.48,0.5L51.64,77a48.48,48.48,0,0,1,14.7-2.86c7.29,0,16.12,3.91,16.21,4l2.32,1ZM48.37,71.93a53.94,53.94,0,0,0-14.63-2.57A46.16,46.16,0,0,0,20,71.86V26.15A45.72,45.72,0,0,1,33.39,24a46.43,46.43,0,0,1,15,2.69V71.93Zm31.6,0a53.94,53.94,0,0,0-14.63-2.57,45.53,45.53,0,0,0-13.29,2.37v-45A45.13,45.13,0,0,1,66.83,24,44.59,44.59,0,0,1,80,26.13v45.8Z" transform="translate(-15.12 -19.2)"/><path class="cls-1" d="M57.21,31.87a54.67,54.67,0,0,1,10.08-1.08,46.84,46.84,0,0,1,9.59,1.08l0.39-1.55a47.54,47.54,0,0,0-10-1.12,55.57,55.57,0,0,0-10.43,1.12Z" transform="translate(-15.12 -19.2)"/><path class="cls-1" d="M76.88,36.23l0.39-1.55a47.63,47.63,0,0,0-10-1.12,55.5,55.5,0,0,0-10.43,1.12l0.36,1.56a54.53,54.53,0,0,1,10.08-1.08A47.09,47.09,0,0,1,76.88,36.23Z" transform="translate(-15.12 -19.2)"/><path class="cls-1" d="M57.21,40.4a54.67,54.67,0,0,1,10.08-1.08,46.83,46.83,0,0,1,9.59,1.08l0.39-1.55a47.54,47.54,0,0,0-10-1.12,55.46,55.46,0,0,0-10.44,1.12Z" transform="translate(-15.12 -19.2)"/><path class="cls-1" d="M67.29,43.68a46.83,46.83,0,0,1,9.59,1.08l0.39-1.55a47.53,47.53,0,0,0-10-1.12A55.53,55.53,0,0,0,56.85,43.2l0.35,1.56A54.5,54.5,0,0,1,67.29,43.68Z" transform="translate(-15.12 -19.2)"/><path class="cls-1" d="M67.29,47.9A46.84,46.84,0,0,1,76.88,49l0.39-1.55a47.64,47.64,0,0,0-10-1.12,55.57,55.57,0,0,0-10.43,1.12L57.21,49A54.79,54.79,0,0,1,67.29,47.9Z" transform="translate(-15.12 -19.2)"/><path class="cls-1" d="M67.29,50.67a55.48,55.48,0,0,0-10.43,1.12l0.35,1.56a54.42,54.42,0,0,1,10.08-1.08,47,47,0,0,1,9.59,1.07l0.39-1.55A47.58,47.58,0,0,0,67.29,50.67Z" transform="translate(-15.12 -19.2)"/><path class="cls-1" d="M56.85,55.94l0.35,1.56a54.6,54.6,0,0,1,10.08-1.08,46.7,46.7,0,0,1,9.59,1.08l0.39-1.55a47.52,47.52,0,0,0-10-1.12A55.6,55.6,0,0,0,56.85,55.94Z" transform="translate(-15.12 -19.2)"/><path class="cls-1" d="M56.85,60.09l0.35,1.56a54.6,54.6,0,0,1,10.08-1.08,46.85,46.85,0,0,1,9.59,1.08l0.39-1.55a47.58,47.58,0,0,0-10-1.12A55.43,55.43,0,0,0,56.85,60.09Z" transform="translate(-15.12 -19.2)"/><path class="cls-1" d="M56.85,64.5l0.35,1.56A54.87,54.87,0,0,1,67.29,65a46.66,46.66,0,0,1,9.59,1.08l0.39-1.55a47.69,47.69,0,0,0-10-1.12A55.55,55.55,0,0,0,56.85,64.5Z" transform="translate(-15.12 -19.2)"/><path class="cls-1" d="M23.45,31.11A54.62,54.62,0,0,1,33.53,30a46.84,46.84,0,0,1,9.59,1.08l0.39-1.55a47.58,47.58,0,0,0-10-1.12,55.45,55.45,0,0,0-10.43,1.12Z" transform="translate(-15.12 -19.2)"/><path class="cls-1" d="M43.13,35.47l0.39-1.55a47.58,47.58,0,0,0-10-1.12A55.4,55.4,0,0,0,23.1,33.91l0.35,1.56a54.58,54.58,0,0,1,10.08-1.08A46.87,46.87,0,0,1,43.13,35.47Z" transform="translate(-15.12 -19.2)"/><path class="cls-1" d="M23.45,39.64a54.62,54.62,0,0,1,10.08-1.08,46.74,46.74,0,0,1,9.59,1.08l0.39-1.55a47.63,47.63,0,0,0-10-1.12,55.45,55.45,0,0,0-10.44,1.12Z" transform="translate(-15.12 -19.2)"/><path class="cls-1" d="M33.53,42.92A46.86,46.86,0,0,1,43.13,44l0.39-1.55a47.58,47.58,0,0,0-10-1.12,55.41,55.41,0,0,0-10.43,1.12L23.45,44A54.54,54.54,0,0,1,33.53,42.92Z" transform="translate(-15.12 -19.2)"/><path class="cls-1" d="M33.53,47.15a46.84,46.84,0,0,1,9.59,1.08l0.39-1.55a47.58,47.58,0,0,0-10-1.12,55.56,55.56,0,0,0-10.43,1.12l0.35,1.56A54.53,54.53,0,0,1,33.53,47.15Z" transform="translate(-15.12 -19.2)"/><path class="cls-1" d="M33.53,49.91A55.4,55.4,0,0,0,23.1,51l0.35,1.56a54.59,54.59,0,0,1,10.08-1.08,46.84,46.84,0,0,1,9.59,1.08L43.51,51A47.57,47.57,0,0,0,33.53,49.91Z" transform="translate(-15.12 -19.2)"/><path class="cls-1" d="M23.1,55.18l0.35,1.56a54.76,54.76,0,0,1,10.08-1.08,46.64,46.64,0,0,1,9.59,1.08l0.39-1.55a47.68,47.68,0,0,0-10-1.12A55.58,55.58,0,0,0,23.1,55.18Z" transform="translate(-15.12 -19.2)"/><path class="cls-1" d="M23.1,59.33l0.35,1.56a54.45,54.45,0,0,1,10.08-1.08,46.85,46.85,0,0,1,9.59,1.08l0.39-1.55a47.75,47.75,0,0,0-10-1.12A55,55,0,0,0,23.1,59.33Z" transform="translate(-15.12 -19.2)"/><path class="cls-1" d="M23.1,63.75l0.35,1.56a54.72,54.72,0,0,1,10.08-1.08,46.84,46.84,0,0,1,9.59,1.08l0.39-1.55a47.58,47.58,0,0,0-10-1.12A55.69,55.69,0,0,0,23.1,63.75Z" transform="translate(-15.12 -19.2)"/></svg>