<?xml version="1.0" encoding="utf-8"?>
<!-- Generator: Adobe Illustrator 19.2.0, SVG Export Plug-In . SVG Version: 6.00 Build 0)  -->
<svg version="1.1" id="Layer_1" xmlns="http://www.w3.org/2000/svg" xmlns:xlink="http://www.w3.org/1999/xlink" x="0px" y="0px"
	 viewBox="0 0 76.3 67.7" style="enable-background:new 0 0 76.3 67.7;" xml:space="preserve">
<style type="text/css">
	.st0{fill:#fff;}
</style>
<title>icon1</title>
<path class="st0" d="M29.9,48.3c0,5.5,0.1,10.9,0,16.2c-0.1,2.5,0.8,3.3,3.3,3.2c3.1-0.2,6.2,0,9.2,0c4.2,0,4.2,0,4.2-4.3
	c0-5,0-10,0-15.1c0.6-0.1,1.3-0.1,1.9-0.1c2.7,0.4,3.6-0.6,3.7-3.4c0.3-7,0.9-14.1,1.5-21.1c0.2-2.2-0.5-3-2.8-3
	c-8.4,0.1-16.9,0.1-25.3,0c-2.2,0-3,0.6-2.8,2.9c0.6,6.5,0.9,13.1,1.5,19.6C24.6,48,24.7,48,29.9,48.3z M55.9,24.3
	c-0.5,14-1,27.5-1.6,41.1c-0.1,1.7,0.7,2.2,2.3,2.2c3.1,0,6.2,0,9.2,0c3.9,0,3.9,0,3.9-4c0-4.6,0-9.2,0-13.8c5-0.5,5-0.5,5.3-5.3
	c0.4-5.8,0.8-11.7,1.2-17.5c0.1-1.4,0.4-2.9-1.9-2.8C68.4,24.3,62.5,24.3,55.9,24.3L55.9,24.3z M38.2,18.9c5.2,0,9.4-4.2,9.4-9.4
	S43.4,0,38.1,0c-5.2,0-9.4,4.2-9.4,9.4C28.7,14.6,32.9,18.9,38.2,18.9z M14.3,5.1c-4.8,0-8.7,3.9-8.7,8.6c0,0,0,0,0,0.1
	c0.2,4.8,4.3,8.6,9.1,8.4c4.6-0.2,8.3-3.9,8.4-8.5C23.1,8.9,19.2,5.1,14.3,5.1C14.4,5.1,14.3,5.1,14.3,5.1z M62,5.1
	c-4.8-0.1-8.7,3.7-8.8,8.5c0,0,0,0,0,0.1c0,4.8,3.8,8.8,8.7,8.8s8.8-3.8,8.8-8.7C70.7,9.1,66.9,5.1,62,5.1C62.1,5.1,62.1,5.1,62,5.1
	z"/>
<path class="st0" d="M29.9,48.3c-5.2-0.3-5.3-0.3-5.7-5c-0.5-6.5-0.9-13.1-1.5-19.6c-0.2-2.3,0.6-2.9,2.8-2.9
	c8.4,0.1,16.9,0.1,25.3,0c2.3,0,2.9,0.8,2.8,3c-0.6,7-1.2,14.1-1.5,21.1c-0.1,2.8-1,3.8-3.7,3.4c-0.6,0-1.3,0-1.9,0.1
	c0,5.1,0,10.1,0,15.1c0,4.3,0,4.3-4.2,4.3c-3.1,0-6.2-0.1-9.2,0c-2.4,0.1-3.3-0.7-3.3-3.2C30,59.2,29.9,53.8,29.9,48.3z"/>
<path class="st0" d="M55.8,24.3c6.7,0,12.6,0,18.5,0c2.2,0,2,1.4,1.9,2.8c-0.4,5.8-0.8,11.7-1.2,17.5c-0.3,4.7-0.3,4.7-5.3,5.3
	c0,4.5,0,9.2,0,13.8c0,4,0,4-3.9,4c-3.1,0-6.2,0-9.2,0c-1.6,0-2.4-0.5-2.3-2.2C54.8,51.8,55.3,38.2,55.8,24.3z"/>
<path class="st0" d="M38.2,18.9c-5.2,0-9.4-4.3-9.4-9.5C28.8,4.2,33,0,38.2,0c5.2,0,9.4,4.2,9.4,9.4C47.6,14.6,43.4,18.9,38.2,18.9z
	"/>
<path class="st0" d="M14.3,5.1c4.8-0.1,8.7,3.8,8.8,8.6c0,0,0,0,0,0c-0.1,4.8-4.2,8.6-9,8.5c-4.6-0.1-8.3-3.8-8.5-8.4
	C5.6,9,9.5,5.1,14.3,5.1C14.3,5.1,14.3,5.1,14.3,5.1z"/>
<path class="st0" d="M62,5.1c4.8,0,8.7,3.9,8.7,8.7c0,0,0,0,0,0.1c0,4.8-4,8.7-8.8,8.7s-8.7-4-8.7-8.8C53.3,8.9,57.2,5,62,5.1
	C62,5.1,62,5.1,62,5.1z"/>
<path class="st0" d="M20.5,24.3c-6.7,0-12.6,0-18.5,0c-2.2,0-2,1.4-1.9,2.8c0.4,5.8,0.8,11.7,1.2,17.5c0.3,4.7,0.3,4.7,5.3,5.3
	c0,4.5,0,9.2,0,13.8c0,4,0,4,3.9,4c3.1,0,6.1,0,9.2,0c1.6,0,2.4-0.5,2.4-2.3C21.5,51.8,21,38.2,20.5,24.3z"/>
</svg>
