<svg id="Layer_1" data-name="Layer 1" xmlns="http://www.w3.org/2000/svg" viewBox="0 0 34.76 59.93"><defs><style>.cls-1{fill:#fff;}</style></defs><title>icon4</title><path class="cls-1" d="M42.09,12.67a54.67,54.67,0,0,1,10.08-1.08,46.84,46.84,0,0,1,9.59,1.08l0.39-1.55a47.54,47.54,0,0,0-10-1.12,55.57,55.57,0,0,0-10.43,1.12Z" transform="translate(-34.99 -0.01)"/><path class="cls-1" d="M61.76,17l0.39-1.55a47.63,47.63,0,0,0-10-1.12,55.5,55.5,0,0,0-10.43,1.12L42.08,17A54.53,54.53,0,0,1,52.16,16,47.09,47.09,0,0,1,61.76,17Z" transform="translate(-34.99 -0.01)"/><path class="cls-1" d="M42.09,21.2a54.67,54.67,0,0,1,10.08-1.08,46.83,46.83,0,0,1,9.59,1.08l0.39-1.55a47.54,47.54,0,0,0-10-1.12,55.46,55.46,0,0,0-10.44,1.12Z" transform="translate(-34.99 -0.01)"/><path class="cls-1" d="M52.17,24.48a46.83,46.83,0,0,1,9.59,1.08L62.15,24a47.53,47.53,0,0,0-10-1.12A55.53,55.53,0,0,0,41.73,24l0.35,1.56A54.5,54.5,0,0,1,52.17,24.48Z" transform="translate(-34.99 -0.01)"/><path class="cls-1" d="M52.17,28.7a46.84,46.84,0,0,1,9.59,1.1l0.39-1.55a47.64,47.64,0,0,0-10-1.12,55.57,55.57,0,0,0-10.43,1.12l0.37,1.55A54.79,54.79,0,0,1,52.17,28.7Z" transform="translate(-34.99 -0.01)"/><path class="cls-1" d="M52.17,31.47a55.48,55.48,0,0,0-10.43,1.12l0.35,1.56a54.42,54.42,0,0,1,10.08-1.08,47,47,0,0,1,9.59,1.07l0.39-1.55A47.58,47.58,0,0,0,52.17,31.47Z" transform="translate(-34.99 -0.01)"/><path class="cls-1" d="M41.73,36.74l0.35,1.56a54.6,54.6,0,0,1,10.08-1.08,46.7,46.7,0,0,1,9.59,1.08l0.39-1.55a47.52,47.52,0,0,0-10-1.12A55.6,55.6,0,0,0,41.73,36.74Z" transform="translate(-34.99 -0.01)"/><path class="cls-1" d="M41.73,40.89l0.35,1.56a54.6,54.6,0,0,1,10.08-1.08,46.85,46.85,0,0,1,9.59,1.08l0.39-1.55a47.58,47.58,0,0,0-10-1.12A55.43,55.43,0,0,0,41.73,40.89Z" transform="translate(-34.99 -0.01)"/><path class="cls-1" d="M41.73,45.3l0.35,1.56A54.87,54.87,0,0,1,52.17,45.8a46.66,46.66,0,0,1,9.59,1.08l0.39-1.55a47.69,47.69,0,0,0-10-1.12A55.55,55.55,0,0,0,41.73,45.3Z" transform="translate(-34.99 -0.01)"/><path class="cls-1" d="M69.73,7.65L66.56,6.37V3.18A42.61,42.61,0,0,0,50.66,0,44.81,44.81,0,0,0,35,3V58.34l0.13,0,1.4-.59a48.48,48.48,0,0,1,14.7-2.86c7.29,0,16.12,3.91,16.21,4l2.32,1ZM64.88,52.73h0a53.94,53.94,0,0,0-14.63-2.57,45.53,45.53,0,0,0-13.29,2.37v-45A45.13,45.13,0,0,1,51.71,4.8,44.59,44.59,0,0,1,64.88,6.93v45.8Z" transform="translate(-34.99 -0.01)"/></svg>