<?xml version="1.0" encoding="utf-8"?>
<!-- Generator: Adobe Illustrator 19.2.0, SVG Export Plug-In . SVG Version: 6.00 Build 0)  -->
<svg version="1.1" id="Layer_1" xmlns="http://www.w3.org/2000/svg" xmlns:xlink="http://www.w3.org/1999/xlink" x="0px" y="0px"
	 viewBox="0 0 72.6 62.7" style="enable-background:new 0 0 72.6 62.7;" xml:space="preserve">
<style type="text/css">
	.st0{fill:#fff;}
</style>
<title>icon3</title>
<g id="_Group_">
	<path id="_Path_" class="st0" d="M61.6,31.3C61.6,14.1,47.8,0,30.8,0S0,14.1,0,31.3s13.8,31.3,30.8,31.3c2.1,0,3.8-1.7,3.8-3.8
		S32.9,55,30.8,55l0,0C17.7,55,7.1,44.4,7.1,31.3c0-13.1,10.6-23.7,23.7-23.7c13,0.1,23.4,10.7,23.3,23.7c0,2.1,1.7,3.8,3.8,3.8
		S61.6,33.4,61.6,31.3z"/>
	<path id="_Path_2" class="st0" d="M51.3,55.3h-6v-0.1l2-1.7c3.1-2.8,5.7-5.7,5.7-9.4c0-3.9-2.7-6.8-7.5-6.8c-1.9,0-3.8,0.4-5.5,1.3
		c-0.9,0.4-1.2,1.5-0.9,2.4v0.1c0.2,0.5,0.5,0.8,1,1c0.5,0.2,1,0.2,1.5-0.1c0.9-0.5,1.9-0.7,2.9-0.7c2.6,0.1,3.6,1.5,3.6,3.3
		c-0.1,2.5-2.3,5-7,9.2l-2.4,2.2c-0.2,0.2-0.4,0.5-0.4,0.8v1.4c0,0.6,0.5,1.1,1.1,1.1c0,0,0,0,0,0h12c1.2,0,2.1-1,2.1-2.1
		C53.5,56.2,52.5,55.3,51.3,55.3z"/>
	<path id="_Compound_Path_" class="st0" d="M70.8,50.5h-0.7V38.9c0-0.6-0.5-1.1-1.1-1.1c0,0,0,0,0,0h-4.4c-0.4,0-0.8,0.2-1,0.5
		L56,50.7c-0.1,0.2-0.2,0.4-0.2,0.6v1.8c0,0.6,0.5,1.1,1.1,1.2c0,0,0.1,0,0.1,0h8.3v2.8c0,1.3,1.1,2.4,2.4,2.4
		c1.3,0,2.4-1.1,2.4-2.4v-2.8h0.7c1-0.2,1.6-1.3,1.4-2.3C72,51.2,71.4,50.7,70.8,50.5z M65.3,45.7v4.8h-4.8v-0.1l2.8-4.7
		c0.7-1.4,1.3-2.6,2-4h0.1C65.4,43,65.3,44.4,65.3,45.7z"/>
</g>
</svg>
