<svg id="Layer_1" data-name="Layer 1" xmlns="http://www.w3.org/2000/svg" viewBox="0 0 56.93 56.79"><defs><style>.cls-1{fill:#c45449;}</style></defs><title>wheel3</title><path class="cls-1" d="M91.46,225.6L92,226a2.08,2.08,0,0,1,.53,2.62,2.05,2.05,0,0,1-3.08.57L89,228.84a1.28,1.28,0,0,0-1.91.32q-0.3.49-.58,1a1.28,1.28,0,0,0,.62,1.8l0.59,0.25a2.08,2.08,0,0,1,1.25,2.37A2.05,2.05,0,0,1,86.14,236l-0.52-.22a1.28,1.28,0,0,0-1.74.85q-0.15.56-.27,1.12a1.28,1.28,0,0,0,1.1,1.55l0.69,0.08a2.05,2.05,0,0,1,1.79,2.27,1.16,1.16,0,0,1-1,1.94l-1.83-.21a1.28,1.28,0,0,0-1.43,1.3q0,0.57.05,1.15a1.28,1.28,0,0,0,1.5,1.18l0.68-.12a2,2,0,1,1,.69,4L85.3,251a1.28,1.28,0,0,0-1,1.65q0.18,0.55.37,1.09a1.28,1.28,0,0,0,1.77.71l0.63-.31a2.05,2.05,0,0,1,2.73.94h0a2.05,2.05,0,0,1-.94,2.73l-0.5.25a1.28,1.28,0,0,0-.5,1.87q0.32,0.47.66,0.94a1.28,1.28,0,0,0,1.9.18l0.51-.47a2.05,2.05,0,0,1,2.89.13h0a2.05,2.05,0,0,1-.13,2.89l-0.41.38a1.28,1.28,0,0,0,0,1.94l0.9,0.71a1.28,1.28,0,0,0,1.87-.36l0.33-.54a2.08,2.08,0,0,1,2.52-.9,2.05,2.05,0,0,1,1,3l-0.29.48a1.28,1.28,0,0,0,.59,1.85l1.07,0.43a1.28,1.28,0,0,0,1.69-.87l0.18-.67a2.05,2.05,0,0,1,2.5-1.45h0a2.05,2.05,0,0,1,1.45,2.5l-0.14.54a1.28,1.28,0,0,0,1.09,1.6l1.14,0.11A1.28,1.28,0,0,0,110.6,271l0-.69a2,2,0,0,1,4.09-.11v0.56a1.28,1.28,0,0,0,1.49,1.23l1.13-.21a1.28,1.28,0,0,0,1-1.65l-0.21-.66a2.05,2.05,0,0,1,1.32-2.57h0a2.05,2.05,0,0,1,2.57,1.32l0.17,0.54a1.28,1.28,0,0,0,1.78.76l1-.53a1.28,1.28,0,0,0,.45-1.85l-0.39-.58a2,2,0,0,1,3.38-2.3l0.32,0.46a1.28,1.28,0,0,0,1.92.23h0q0.43-.39.83-0.79a1.28,1.28,0,0,0-.09-1.9l-0.53-.44a2,2,0,1,1,2.6-3.16l0.44,0.36a1.28,1.28,0,0,0,1.91-.32q0.3-.49.58-1a1.28,1.28,0,0,0-.62-1.8l-0.64-.27a2,2,0,1,1,1.6-3.76l0.52,0.22a1.28,1.28,0,0,0,1.74-.85q0.15-.56.27-1.11a1.28,1.28,0,0,0-1.1-1.55l-0.69-.08a2.05,2.05,0,0,1-1.79-2.27,1.16,1.16,0,0,1,1-1.94l1.83,0.21a1.28,1.28,0,0,0,1.43-1.3q0-.57-0.05-1.15a1.28,1.28,0,0,0-1.5-1.18l-0.62.11a2.08,2.08,0,0,1-2.33-1.32A2.05,2.05,0,0,1,137,237l0.56-.09a1.28,1.28,0,0,0,1-1.65q-0.18-.55-0.37-1.09a1.28,1.28,0,0,0-1.77-.71l-0.58.28a2.08,2.08,0,0,1-2.58-.59A2.05,2.05,0,0,1,134,230l0.5-.25a1.28,1.28,0,0,0,.5-1.87q-0.32-.47-0.66-0.94a1.28,1.28,0,0,0-1.9-.18l-0.51.47a2,2,0,0,1-2.76-3l0.41-.38a1.28,1.28,0,0,0,0-1.94l-0.9-.71a1.28,1.28,0,0,0-1.87.36l-0.33.54a2.08,2.08,0,0,1-2.52.9,2.05,2.05,0,0,1-1-3l0.29-.48a1.28,1.28,0,0,0-.59-1.85l-1.07-.43a1.28,1.28,0,0,0-1.69.87l-0.16.62a2.08,2.08,0,0,1-2.17,1.57,2.05,2.05,0,0,1-1.8-2.56l0.14-.54a1.28,1.28,0,0,0-1.09-1.6l-1.14-.11a1.28,1.28,0,0,0-1.38,1.31l0,0.63a2.08,2.08,0,0,1-1.64,2.12,2.05,2.05,0,0,1-2.45-2v-0.56a1.28,1.28,0,0,0-1.49-1.23l-1.13.21a1.28,1.28,0,0,0-1,1.65l0.21,0.66a2.05,2.05,0,0,1-1.32,2.57,1.44,1.44,0,0,1-2.35-.62l-0.4-1.23a1.28,1.28,0,0,0-1.78-.76l-1,.53a1.28,1.28,0,0,0-.45,1.85l0.39,0.58a2.05,2.05,0,0,1-.85,3,2.08,2.08,0,0,1-2.56-.76l-0.28-.42a1.28,1.28,0,0,0-1.92-.23h0q-0.43.39-.83,0.79A1.28,1.28,0,0,0,91.46,225.6Zm26.42,23.2a1.74,1.74,0,1,1-2.45-.11A1.73,1.73,0,0,1,117.89,248.8Zm-13.72,1.72a1.74,1.74,0,1,1,2.45.11A1.74,1.74,0,0,1,104.17,250.52Zm14.33-12.88a1.74,1.74,0,1,1-2.45-.11A1.74,1.74,0,0,1,118.5,237.64Zm-3.78,3.24a4.48,4.48,0,1,1-6.33-.29A4.48,4.48,0,0,1,114.72,240.89ZM107.35,237a1.74,1.74,0,1,1-2.45-.11A1.74,1.74,0,0,1,107.35,237Z" transform="translate(-82.94 -215.54)"/></svg>