<svg id="Layer_1" data-name="Layer 1" xmlns="http://www.w3.org/2000/svg" viewBox="0 0 60.65 60.52"><defs><style>.cls-1{fill:#c45449;}</style></defs><title>wheeloprava</title><path class="cls-1" d="M230.06,217.5a1.37,1.37,0,0,0,.11,2l0.52,0.43a2.23,2.23,0,0,1,.57,2.8,2.18,2.18,0,0,1-3.28.6l-0.47-.38a1.36,1.36,0,0,0-2,.34q-0.32.52-.61,1.06a1.37,1.37,0,0,0,.67,1.92l0.63,0.27a2.24,2.24,0,0,1,1.34,2.53,2.17,2.17,0,0,1-3,1.5l-0.55-.24a1.36,1.36,0,0,0-1.85.9q-0.15.59-.28,1.19A1.38,1.38,0,0,0,223,234.1l0.73,0.09a2.2,2.2,0,0,1,1.92,2.43,1.24,1.24,0,0,1-1.05,2.07l-1.95-.24a1.36,1.36,0,0,0-1.52,1.38q0,0.61.06,1.22a1.38,1.38,0,0,0,1.6,1.26l0.73-.12a2.2,2.2,0,0,1,2.52,1.79,2.17,2.17,0,0,1-1.77,2.51l-0.59.1a1.36,1.36,0,0,0-1.07,1.76q0.19,0.58.4,1.16a1.37,1.37,0,0,0,1.89.76l0.67-.32a2.2,2.2,0,0,1,2.92,1h0a2.18,2.18,0,0,1-1,2.91l-0.54.26a1.36,1.36,0,0,0-.52,2q0.34,0.5.71,1a1.37,1.37,0,0,0,2,.2l0.54-.5a2.19,2.19,0,0,1,2.95,3.23l-0.44.4a1.37,1.37,0,0,0,.06,2.06q0.47,0.39,1,.76a1.36,1.36,0,0,0,2-.37l0.35-.58a2.19,2.19,0,1,1,3.77,2.22l-0.31.51a1.37,1.37,0,0,0,.64,2l1.14,0.46a1.36,1.36,0,0,0,1.8-.92l0.19-.72a2.17,2.17,0,0,1,2.66-1.54h0A2.2,2.2,0,0,1,247,267l-0.15.58a1.38,1.38,0,0,0,1.17,1.71l1.22,0.12a1.36,1.36,0,0,0,1.47-1.39l0-.74a2.17,2.17,0,0,1,2.11-2.23,2.2,2.2,0,0,1,2.24,2.13l0,0.6a1.38,1.38,0,0,0,1.6,1.32l1.2-.22a1.36,1.36,0,0,0,1-1.75l-0.23-.71a2.17,2.17,0,0,1,1.4-2.74,2.2,2.2,0,0,1,2.75,1.42l0.19,0.57a1.37,1.37,0,0,0,1.9.82l1.09-.56a1.36,1.36,0,0,0,.47-2l-0.42-.62a2.17,2.17,0,1,1,3.59-2.44l0.34,0.5a1.36,1.36,0,0,0,2,.26h0q0.45-.41.88-0.84a1.37,1.37,0,0,0-.11-2l-0.57-.47a2.17,2.17,0,1,1,2.76-3.36l0.47,0.38a1.36,1.36,0,0,0,2-.34q0.32-.52.61-1.06a1.37,1.37,0,0,0-.67-1.92l-0.69-.29a2.2,2.2,0,0,1-1.16-2.86,2.17,2.17,0,0,1,2.85-1.14L279,248a1.36,1.36,0,0,0,1.85-.9q0.15-.59.28-1.19a1.38,1.38,0,0,0-1.18-1.66l-0.73-.09a2.2,2.2,0,0,1-1.92-2.43,1.24,1.24,0,0,1,1.05-2.07l1.95,0.24a1.36,1.36,0,0,0,1.52-1.38q0-.61-0.06-1.22a1.38,1.38,0,0,0-1.6-1.26l-0.66.11a2.24,2.24,0,0,1-2.49-1.42,2.17,2.17,0,0,1,1.68-2.88l0.59-.1a1.36,1.36,0,0,0,1.07-1.76q-0.19-.58-0.4-1.16A1.37,1.37,0,0,0,278,228l-0.62.3a2.22,2.22,0,0,1-2.75-.64,2.18,2.18,0,0,1,.78-3.26l0.54-.26a1.36,1.36,0,0,0,.52-2q-0.34-.5-0.71-1a1.37,1.37,0,0,0-2-.2l-0.54.5a2.19,2.19,0,0,1-2.95-3.23l0.44-.4a1.37,1.37,0,0,0-.06-2.06q-0.47-.39-1-0.76a1.36,1.36,0,0,0-2,.37l-0.35.58a2.19,2.19,0,1,1-3.77-2.22l0.31-.51a1.37,1.37,0,0,0-.64-2l-1.14-.46a1.36,1.36,0,0,0-1.8.92l-0.17.66a2.18,2.18,0,1,1-4.23-1.07l0.15-.57a1.38,1.38,0,0,0-1.17-1.71l-1.22-.12a1.36,1.36,0,0,0-1.47,1.39l0,0.67a2.18,2.18,0,1,1-4.35.16l0-.6a1.38,1.38,0,0,0-1.6-1.32l-1.2.22a1.36,1.36,0,0,0-1,1.75l0.23,0.71a2.17,2.17,0,0,1-1.4,2.74,1.54,1.54,0,0,1-2.51-.67L240,212.64a1.37,1.37,0,0,0-1.9-.82l-1.09.56a1.36,1.36,0,0,0-.47,2l0.42,0.62a2.18,2.18,0,0,1-.89,3.21,2.23,2.23,0,0,1-2.74-.82l-0.3-.44a1.36,1.36,0,0,0-2-.26h0Q230.49,217.08,230.06,217.5Zm28.2,40.29a2.09,2.09,0,1,1,1.27-2.67A2.09,2.09,0,0,1,258.26,257.79Zm10.29-13.16a2.09,2.09,0,1,1-2.79,1A2.09,2.09,0,0,1,268.54,244.63Zm-8.11,2.06a1.38,1.38,0,1,1-1.95-.09A1.38,1.38,0,0,1,260.44,246.69Zm-20.79-9.5a1.38,1.38,0,1,1-1.44,1.31A1.38,1.38,0,0,1,239.65,237.19Zm-4.4,9.94a2.09,2.09,0,1,1,1.27-2.67A2.09,2.09,0,0,1,235.25,247.14Zm6.48,0.82a1.38,1.38,0,1,1,1.95.09A1.38,1.38,0,0,1,241.73,248Zm1.22,9.19a2.09,2.09,0,1,1,2.79-1A2.09,2.09,0,0,1,242.95,257.15Zm8-5a1.38,1.38,0,1,1,1.44-1.31A1.38,1.38,0,0,1,250.9,252.15Zm13.65-12.69a1.38,1.38,0,1,1-1.31-1.44A1.38,1.38,0,0,1,264.55,239.47Zm3-8.63a2.09,2.09,0,1,1-1.27,2.67A2.09,2.09,0,0,1,267.51,230.84ZM261,230a1.38,1.38,0,1,1-1.95-.09A1.38,1.38,0,0,1,261,230Zm-5,4.84a6.57,6.57,0,1,1-9.28-.42A6.57,6.57,0,0,1,256.06,234.86Zm3.75-14a2.09,2.09,0,1,1-2.79,1A2.09,2.09,0,0,1,259.81,220.83Zm-8,5a1.38,1.38,0,1,1-1.44,1.31A1.38,1.38,0,0,1,251.86,225.82Zm-7.5,3.6a1.38,1.38,0,1,1-1.95-.09A1.38,1.38,0,0,1,244.36,229.43Zm-10.14,3.92a2.09,2.09,0,1,1,2.79-1A2.09,2.09,0,0,1,234.21,233.34Zm10.29-13.16a2.09,2.09,0,1,1-1.27,2.67A2.09,2.09,0,0,1,244.5,220.19Z" transform="translate(-221.15 -208.89)"/></svg>