<svg id="Layer_1" data-name="Layer 1" xmlns="http://www.w3.org/2000/svg" viewBox="0 0 27.29 27.24"><defs><style>.cls-1{fill:#c45449;}</style></defs><title>wheel2</title><path class="cls-1" d="M84.54,284.09a0.62,0.62,0,0,0,0,.91l0.24,0.19a1,1,0,0,1,.26,1.26,1,1,0,0,1-1.48.27l-0.21-.17a0.61,0.61,0,0,0-.92.15l-0.28.48a0.62,0.62,0,0,0,.3.87l0.28,0.12a1,1,0,0,1,.6,1.14A1,1,0,0,1,82,290l-0.25-.11a0.61,0.61,0,0,0-.83.4q-0.07.27-.13,0.53a0.62,0.62,0,0,0,.53.75l0.33,0a1,1,0,0,1,.86,1.09,0.56,0.56,0,0,1-.47.93l-0.88-.11a0.61,0.61,0,0,0-.68.62q0,0.27,0,.55a0.62,0.62,0,0,0,.72.57l0.33-.05a1,1,0,0,1,1.13.81,1,1,0,0,1-.8,1.13l-0.27,0a0.61,0.61,0,0,0-.48.79q0.09,0.26.18,0.52a0.62,0.62,0,0,0,.85.34l0.3-.15a1,1,0,0,1,1.31.46h0a1,1,0,0,1-.45,1.31l-0.24.12a0.61,0.61,0,0,0-.24.9l0.32,0.45a0.62,0.62,0,0,0,.91.09l0.24-.22a1,1,0,0,1,1.33,1.45l-0.2.18a0.62,0.62,0,0,0,0,.93L86,304.7a0.61,0.61,0,0,0,.9-0.17l0.16-.26a1,1,0,1,1,1.69,1l-0.14.23a0.62,0.62,0,0,0,.29.89l0.51,0.21a0.61,0.61,0,0,0,.81-0.41l0.08-.32a1,1,0,0,1,1.2-.69h0a1,1,0,0,1,.7,1.2l-0.07.26a0.62,0.62,0,0,0,.52.77l0.55,0.05a0.61,0.61,0,0,0,.66-0.63v-0.33a1,1,0,0,1,1-1,1,1,0,0,1,1,1v0.27a0.62,0.62,0,0,0,.72.59l0.54-.1a0.61,0.61,0,0,0,.46-0.79l-0.1-.32a1,1,0,0,1,.63-1.23,1,1,0,0,1,1.24.64l0.08,0.26a0.62,0.62,0,0,0,.86.37l0.49-.25a0.61,0.61,0,0,0,.21-0.89l-0.19-.28a1,1,0,1,1,1.62-1.1l0.15,0.22a0.61,0.61,0,0,0,.92.12h0l0.4-.38a0.62,0.62,0,0,0,0-.91l-0.26-.21a1,1,0,1,1,1.24-1.51l0.21,0.17a0.61,0.61,0,0,0,.92-0.15l0.28-.48a0.62,0.62,0,0,0-.3-0.87l-0.31-.13a1,1,0,0,1-.52-1.29,1,1,0,0,1,1.28-.51l0.25,0.11a0.61,0.61,0,0,0,.83-0.4q0.07-.27.13-0.53a0.62,0.62,0,0,0-.53-0.75l-0.33,0a1,1,0,0,1-.86-1.09,0.56,0.56,0,0,1,.47-0.93l0.88,0.11a0.61,0.61,0,0,0,.68-0.62q0-.27,0-0.55a0.62,0.62,0,0,0-.72-0.57l-0.3,0a1,1,0,0,1-1.12-.64,1,1,0,0,1,.75-1.29l0.27,0a0.61,0.61,0,0,0,.48-0.79q-0.09-.26-0.18-0.52a0.62,0.62,0,0,0-.85-0.34l-0.28.14a1,1,0,0,1-1.24-.29,1,1,0,0,1,.35-1.47l0.24-.12a0.61,0.61,0,0,0,.24-0.9l-0.32-.45a0.62,0.62,0,0,0-.91-0.09l-0.24.22a1,1,0,0,1-1.33-1.45l0.2-.18a0.62,0.62,0,0,0,0-.93l-0.43-.34a0.61,0.61,0,0,0-.9.17l-0.16.26a1,1,0,1,1-1.69-1l0.14-.23a0.62,0.62,0,0,0-.29-0.89L99,281.07a0.61,0.61,0,0,0-.81.41l-0.08.3a1,1,0,1,1-1.9-.48l0.07-.26a0.62,0.62,0,0,0-.52-0.77l-0.55-.05a0.61,0.61,0,0,0-.66.63v0.3a1,1,0,1,1-2,.07v-0.27a0.62,0.62,0,0,0-.72-0.59l-0.54.1a0.61,0.61,0,0,0-.46.79l0.1,0.32a1,1,0,0,1-.63,1.23,0.7,0.7,0,0,1-1.13-.3L89,281.9a0.62,0.62,0,0,0-.86-0.37l-0.49.25a0.61,0.61,0,0,0-.21.89l0.19,0.28a1,1,0,0,1-.4,1.44A1,1,0,0,1,86,284l-0.14-.2a0.61,0.61,0,0,0-.92-0.12h0Zm12.69,18.13a0.94,0.94,0,1,1,.57-1.2A0.94,0.94,0,0,1,97.23,302.22Zm4.63-5.92a0.94,0.94,0,1,1-1.26.45A0.94,0.94,0,0,1,101.86,296.3Zm-3.65.93a0.62,0.62,0,1,1-.88,0A0.62,0.62,0,0,1,98.21,297.23ZM88.85,293a0.62,0.62,0,1,1-.65.59A0.62,0.62,0,0,1,88.85,293Zm-2,4.47a0.94,0.94,0,1,1,.57-1.2A0.94,0.94,0,0,1,86.87,297.42Zm2.92,0.37a0.62,0.62,0,1,1,.88,0A0.62,0.62,0,0,1,89.79,297.8Zm0.55,4.13a0.94,0.94,0,1,1,1.26-.45A0.94,0.94,0,0,1,90.34,301.93Zm3.58-2.25a0.62,0.62,0,1,1,.65-0.59A0.62,0.62,0,0,1,93.91,299.68Zm6.14-5.71a0.62,0.62,0,1,1-.59-0.65A0.62,0.62,0,0,1,100.06,294Zm1.33-3.88a0.94,0.94,0,1,1-.57,1.2A0.94,0.94,0,0,1,101.39,290.09Zm-2.92-.37a0.62,0.62,0,1,1-.88,0A0.62,0.62,0,0,1,98.47,289.72Zm-2.24,2.18a3,3,0,1,1-4.18-.19A3,3,0,0,1,96.24,291.9Zm1.69-6.31a0.94,0.94,0,1,1-1.26.45A0.94,0.94,0,0,1,97.93,285.59Zm-3.58,2.25a0.62,0.62,0,1,1-.65.59A0.62,0.62,0,0,1,94.35,287.83ZM91,289.45a0.62,0.62,0,1,1-.88,0A0.62,0.62,0,0,1,91,289.45Zm-4.56,1.76a0.94,0.94,0,1,1,1.26-.45A0.94,0.94,0,0,1,86.41,291.22ZM91,285.3a0.94,0.94,0,1,1-.57,1.2A0.94,0.94,0,0,1,91,285.3Z" transform="translate(-80.53 -280.21)"/></svg>