<svg id="Layer_1" data-name="Layer 1" xmlns="http://www.w3.org/2000/svg" viewBox="0 0 61.77 61.77"><defs><style>.cls-1{fill:#c45449;}</style></defs><title>wheel5</title><path class="cls-1" d="M174.09,186.72c-0.67.61-2,.24-3-0.82q-0.55.55-1.06,1.13c1.08,0.91,1.51,2.18,1,2.87s-1.88.55-3-.3q-0.45.63-.87,1.28c1.17,0.73,1.76,1.89,1.33,2.64s-1.73.84-3,.21q-0.35.69-.65,1.39c1.23,0.55,2,1.58,1.66,2.38s-1.53,1.09-2.82.69q-0.23.73-.43,1.47c1.26,0.36,2.11,1.24,1.94,2.07s-1.3,1.3-2.6,1.13q-0.12.76-.2,1.53c1.27,0.18,2.21.9,2.17,1.73s-1.05,1.47-2.34,1.52q0,0.77,0,1.54c1.26,0,2.28.56,2.37,1.37s-0.79,1.59-2,1.86q0.12,0.76.28,1.51c1.22-.19,2.29.21,2.51,1s-0.52,1.68-1.68,2.14q0.24,0.73.51,1.45c1.17-.36,2.27-0.13,2.6.59s-0.24,1.73-1.3,2.37q0.35,0.69.73,1.36c1.09-.53,2.21-0.47,2.64.19s0,1.73-.9,2.53q0.45,0.62.93,1.23c1-.68,2.09-0.8,2.62-0.22s0.31,1.7-.49,2.63q0.54,0.55,1.11,1.08c0.87-.83,1.94-1.12,2.56-0.63s0.57,1.64-.08,2.69q0.62,0.46,1.26.89c0.73-1,1.75-1.42,2.44-1s0.82,1.55.33,2.69q0.68,0.36,1.38.69c0.57-1.08,1.51-1.71,2.26-1.43s1.06,1.42.74,2.63q0.73,0.25,1.47.46c0.39-1.18,1.23-2,2-1.79s1.28,1.25,1.14,2.52q0.76,0.13,1.52.23c0.19-1.24.91-2.16,1.72-2.13s1.47,1.07,1.53,2.36q0.77,0,1.54,0c0-1.28.54-2.33,1.37-2.43s1.65,0.85,1.89,2.16q0.76-.1,1.52-0.24c-0.25-1.29.15-2.45,1-2.67s1.8,0.61,2.23,1.9q0.74-.22,1.46-0.48c-0.48-1.26-.28-2.51.5-2.86s1.91,0.35,2.53,1.6q0.69-.33,1.37-0.7c-0.71-1.18-.72-2.49,0-3s2,0.06,2.79,1.24q0.64-.44,1.25-0.91c-0.93-1.07-1.15-2.39-.5-3s2-.23,3,0.84q0.57-.54,1.1-1.1c-1.13-.91-1.58-2.22-1-2.92s2-.55,3.1.37l0.06,0q0.48-.63.92-1.27l0,0c-1.28-.72-1.94-2-1.49-2.75s1.85-.85,3.12-0.12l0.13,0.08q0.38-.7.72-1.42l-0.12,0c-1.37-.52-2.23-1.62-1.91-2.48s1.69-1.12,3.07-.61l0.21,0.08q0.26-.76.49-1.53l-0.19,0c-1.44-.29-2.45-1.26-2.27-2.15s1.5-1.38,2.93-1.08l0.27,0.07q0.14-.8.24-1.6h-0.25c-1.47-.07-2.62-0.86-2.58-1.77s1.26-1.59,2.73-1.53l0.34,0c0-.55,0-1.09,0-1.64l-0.3,0c-1.46.16-2.72-.44-2.82-1.34s1-1.77,2.45-1.93l0.39,0q-0.11-.82-0.27-1.63l-0.34.11c-1.41.39-2.76,0-3-.88s0.71-1.91,2.12-2.29l0.43-.09q-0.24-.8-0.53-1.58l-0.35.18c-1.34.61-2.72,0.43-3.1-.4s0.4-2,1.74-2.6l0.43-.17q-0.37-.75-0.78-1.49a4,4,0,0,1-.34.25c-1.22.81-2.62,0.85-3.12,0.09s0.09-2,1.31-2.84a4.25,4.25,0,0,1,.41-0.24q-0.48-.68-1-1.34c-0.09.1-.19,0.2-0.3,0.3-1.08,1-2.46,1.25-3.07.57s-0.23-2,.85-3a4.22,4.22,0,0,1,.37-0.3q-0.59-.6-1.21-1.17c-0.08.12-.16,0.23-0.25,0.34-0.91,1.15-2.23,1.61-2.94,1s-0.55-2,.37-3.1a4.11,4.11,0,0,1,.32-0.35q-0.68-.5-1.38-1a4.16,4.16,0,0,1-.19.37c-0.72,1.28-2,1.94-2.74,1.49s-0.85-1.85-.12-3.12a4.1,4.1,0,0,1,.25-0.38q-0.74-.38-1.51-0.72c0,0.12-.07.25-0.12,0.37-0.52,1.37-1.62,2.23-2.48,1.91s-1.12-1.69-.61-3.06c0.05-.13.11-0.26,0.17-0.38-0.53-.17-1.06-0.33-1.59-0.47,0,0.11,0,.23-0.06.35-0.29,1.44-1.26,2.45-2.15,2.27s-1.38-1.5-1.08-2.93c0-.12.06-0.24,0.09-0.36q-0.81-.13-1.63-0.21c0,0.1,0,.2,0,0.3-0.07,1.47-.86,2.62-1.77,2.58s-1.59-1.26-1.53-2.73c0-.11,0-0.21,0-0.32-0.54,0-1.08,0-1.62,0,0,0.08,0,.16,0,0.24,0.16,1.46-.44,2.72-1.34,2.82s-1.77-1-1.93-2.46c0-.09,0-0.17,0-0.25q-0.79.13-1.58,0.3l0.05,0.17c0.39,1.41,0,2.75-.88,3s-1.91-.71-2.29-2.12l0-.19q-0.75.25-1.5,0.54l0.05,0.1c0.61,1.34.42,2.72-.4,3.1s-2-.4-2.6-1.74l0-.11q-0.7.36-1.38,0.76l0,0c0.81,1.22.85,2.62,0.09,3.12s-2-.09-2.84-1.31l0,0q-0.62.46-1.23,1C174.51,184.76,174.75,186.11,174.09,186.72Zm-1.32,16.6a2.25,2.25,0,1,1,2.82-1.46A2.25,2.25,0,0,1,172.77,203.32Zm2,21.05c-5.58-6.11-8-14.72-4.76-17.65s10.42,1.28,16,7.38,9.1,13.68,5.9,16.6S180.32,230.47,174.74,224.37ZM198.2,230a2.25,2.25,0,1,1,1.71-2.68A2.25,2.25,0,0,1,198.2,230Zm15.58-32.86c4.13,1.31,5.58,10.13,3.08,18S208.1,229.37,204,228.06s-4.11-9.67-1.61-17.55S209.65,195.79,213.79,197.1Zm-3.52-5.17a2.25,2.25,0,1,1-3.17-.14A2.25,2.25,0,0,1,210.27,191.93Zm-12.62,11.52a6.11,6.11,0,1,1-8.64-.39A6.11,6.11,0,0,1,197.65,203.45Zm-9.85-20.2c8.08-1.78,16.73.47,17.66,4.71s-6.32,8.39-14.39,10.16-16.4,1-17.33-3.19S179.72,185,187.79,183.26Z" transform="translate(-162.24 -176.68)"/><path class="cls-1" d="M187.73,238q0.76,0.13,1.52.23a3.84,3.84,0,0,1,.12-0.52q-0.81-.1-1.62-0.25A3.93,3.93,0,0,1,187.73,238Zm6.31,0.46a4,4,0,0,1,0-.53q-0.81,0-1.62,0a4,4,0,0,1,.06.53Q193.27,238.46,194,238.43Zm29.62-30.28,0.34,0c0-.55,0-1.09,0-1.64l-0.3,0-0.23,0q0,0.77,0,1.54h0.19Zm-0.34-4.84,0.39,0q-0.11-.82-0.27-1.63l-0.34.11-0.17,0q0.15,0.76.25,1.52Zm-1.09-4.72,0.43-.09q-0.24-.8-0.53-1.58l-0.35.18-0.13.06q0.27,0.73.49,1.47Zm-37.66,38.65a3.91,3.91,0,0,1,.2-0.5q-0.79-.23-1.57-0.49a4,4,0,0,1-.1.53Q183.83,237,184.57,237.24Zm-4.48-1.67a3.87,3.87,0,0,1,.28-0.46q-0.75-.35-1.49-0.74a3.91,3.91,0,0,1-.18.51Q179.39,235.25,180.09,235.57Zm-4.16-2.34a3.75,3.75,0,0,1,.36-0.41q-0.69-.46-1.36-1a3.91,3.91,0,0,1-.25.48Q175.3,232.8,175.94,233.23ZM223.24,213l0.27,0.07q0.14-.8.24-1.6h-0.25l-0.28,0q-0.1.76-.23,1.52Zm-2.83-18.89,0.43-.17q-0.37-.75-0.78-1.49a4,4,0,0,1-.34.25l-0.1.06q0.38,0.68.72,1.37Zm-2.8,32.17,0.06,0q0.48-.63.92-1.27l0,0a4.24,4.24,0,0,1-.4-0.26q-0.44.63-.91,1.25A4.24,4.24,0,0,1,217.61,226.27ZM168,189.6q-0.45.63-.87,1.28a4.15,4.15,0,0,1,.45.33q0.42-.66.88-1.3A4.12,4.12,0,0,1,168,189.6Zm42.35,43a4.16,4.16,0,0,1,.32.41q0.64-.44,1.25-0.91a4.23,4.23,0,0,1-.32-0.42Q211,232.13,210.34,232.57Zm-11.53,5.35a4,4,0,0,1-.07-0.52q-0.79.15-1.58,0.25a4,4,0,0,1,.13.51Q198.05,238.06,198.81,237.92Zm-27.29-51.64a4.28,4.28,0,0,1-.41-0.38q-0.55.55-1.06,1.13a4.13,4.13,0,0,1,.4.39Q171,186.84,171.52,186.28Zm50.55,31.41,0.21,0.08q0.26-.76.49-1.53l-0.19,0-0.33-.08q-0.22.74-.47,1.46Zm-15.58,17.72q0.69-.33,1.37-0.7a4.21,4.21,0,0,1-.24-0.47q-0.69.38-1.4,0.71A4.21,4.21,0,0,1,206.49,235.41Zm-3,1.26a4.11,4.11,0,0,1-.16-0.5q-0.75.26-1.5,0.49a4.1,4.1,0,0,1,.2.49Q202.73,236.93,203.46,236.67Zm16.72-14.52,0.13,0.08q0.38-.7.72-1.42l-0.12,0-0.37-.16q-0.33.69-.7,1.37ZM214,229.56a4.22,4.22,0,0,1,.38.36q0.57-.54,1.1-1.1a4.27,4.27,0,0,1-.39-0.35Q214.61,229,214,229.56Zm-51.1-25.05q0.08-.81.21-1.61a3.94,3.94,0,0,1-.56,0q-0.12.76-.2,1.53A4,4,0,0,1,162.95,204.51Zm33.33-27.11q0.76,0.08,1.53.2c0-.06,0-0.12,0-0.18s0.06-.24.09-0.36q-0.81-.13-1.63-0.21c0,0.1,0,.2,0,0.3S196.29,177.32,196.28,177.4Zm-4.81-.12q0.77,0,1.54,0c0-.08,0-0.16,0-0.24s0-.21,0-0.32c-0.54,0-1.08,0-1.62,0,0,0.08,0,.16,0,0.24S191.46,177.18,191.47,177.28Zm-27.68,22.58q0.2-.78.45-1.54a4.06,4.06,0,0,1-.54-0.13q-0.23.73-.43,1.47A4,4,0,0,1,163.78,199.86Zm-1,9.36q0-.82,0-1.64a4,4,0,0,1-.55.07q0,0.77,0,1.54A3.93,3.93,0,0,1,162.83,209.22Zm23.87-31.3q0.75-.16,1.51-0.29c0-.1,0-0.2,0-0.3s0-.17,0-0.25q-0.79.13-1.58,0.3l0.05,0.17C186.66,177.68,186.68,177.8,186.7,177.92Zm-8.9,3.47q0.67-.39,1.35-0.75a4.38,4.38,0,0,1-.2-0.39l0-.11q-0.7.36-1.38,0.76l0,0A4.27,4.27,0,0,1,177.8,181.38Zm4.31-2.09q0.72-.28,1.45-0.52c0-.11-0.08-0.23-0.11-0.35l0-.19q-0.75.25-1.5,0.54l0.05,0.1A4.17,4.17,0,0,1,182.11,179.3Zm-7,3.87a4.35,4.35,0,0,1-.31-0.42l0,0q-0.62.46-1.23,1a4.18,4.18,0,0,1,.34.44Q174.49,183.62,175.11,183.17Zm-9.77,12.22q0.32-.73.68-1.44a4.09,4.09,0,0,1-.51-0.22q-0.35.69-.65,1.39A4,4,0,0,1,165.34,195.39ZM201,178.27q0.74,0.2,1.48.44l0-.13c0.05-.13.11-0.26,0.17-0.38-0.53-.17-1.06-0.33-1.59-0.47,0,0.11,0,.23-0.06.35Zm8.79,3.95q0.65,0.42,1.27.89l0-.06a4.11,4.11,0,0,1,.32-0.35q-0.68-.5-1.38-1a4.16,4.16,0,0,1-.19.37Zm-40.86,44.56a3.93,3.93,0,0,1,.47-0.28q-0.53-.66-1-1.34a3.91,3.91,0,0,1-.39.39Q168.46,226.17,168.95,226.78Zm-5.5-12.9q-0.17-.81-0.3-1.63a4.1,4.1,0,0,1-.53.16q0.12,0.76.28,1.51A4,4,0,0,1,163.45,213.88Zm8.74,16.39a3.81,3.81,0,0,1,.42-0.35q-0.61-.57-1.2-1.17a3.9,3.9,0,0,1-.33.44Q171.63,229.75,172.19,230.27Zm41.43-45.08q0.57,0.52,1.12,1.08l0,0a4.22,4.22,0,0,1,.37-0.3q-0.59-.6-1.21-1.17c-0.08.12-.16,0.23-0.25,0.34Zm-48.85,33.19q-0.3-.78-0.55-1.57a3.94,3.94,0,0,1-.5.24q0.24,0.73.51,1.45A3.8,3.8,0,0,1,164.77,218.39Zm52.14-29.65q0.48,0.61.93,1.24l0.05,0a4.25,4.25,0,0,1,.41-0.24q-0.48-.68-1-1.34c-0.09.1-.19,0.2-0.3,0.3Zm-11.35-8.84q0.7,0.32,1.39.67l0-.08a4.1,4.1,0,0,1,.25-0.38q-0.74-.38-1.51-0.72c0,0.12-.07.25-0.12,0.37Zm-38.79,42.74q-0.42-.73-0.79-1.47a3.92,3.92,0,0,1-.45.32q0.35,0.69.73,1.36A4,4,0,0,1,166.78,222.63Z" transform="translate(-162.24 -176.68)"/></svg>