<svg id="Layer_1" data-name="Layer 1" xmlns="http://www.w3.org/2000/svg" viewBox="0 0 51.98 51.98"><defs><style>.cls-1{fill:#c45449;}</style></defs><title>wheel1</title><path class="cls-1" d="M88.93,320.44c-0.64.4-1.68-.1-2.34-1.12q-0.54.38-1,.78c0.76,0.92.92,2,.36,2.52s-1.64.17-2.45-.7q-0.47.45-.91,0.93c0.85,0.78,1.17,1.83.7,2.39s-1.56.43-2.48-.27q-0.39.52-.75,1.05c0.93,0.64,1.39,1.6,1,2.22s-1.43.67-2.44,0.15q-0.3.57-.58,1.16c1,0.49,1.56,1.35,1.3,2s-1.27.88-2.33,0.55q-0.21.61-.39,1.23c1,0.34,1.7,1.08,1.54,1.76S77,336.13,76,336q-0.11.64-.2,1.28c1,0.18,1.8.8,1.75,1.49s-0.89,1.2-2,1.24q0,0.65,0,1.3c1,0,1.87.52,1.93,1.19s-0.68,1.31-1.71,1.52q0.09,0.64.2,1.28c1-.12,1.9.23,2.07,0.88s-0.46,1.39-1.43,1.76q0.18,0.62.4,1.24a1.76,1.76,0,0,1,2.16.55c0.26,0.62-.23,1.44-1.12,2q0.28,0.58.59,1.16a1.75,1.75,0,0,1,2.21.21c0.36,0.57,0,1.46-.8,2.11q0.37,0.54.76,1.06a1.75,1.75,0,0,1,2.21-.13c0.44,0.51.23,1.44-.47,2.21q0.44,0.48.91,0.93a1.76,1.76,0,0,1,2.18-.49c0.52,0.44.45,1.4-.13,2.28q0.51,0.4,1,.77c0.63-.81,1.51-1.18,2.09-0.84s0.66,1.33.22,2.29q0.57,0.32,1.15.6c0.5-.92,1.31-1.43,1.94-1.18s0.87,1.23.57,2.26q0.61,0.22,1.23.42c0.34-1,1.08-1.65,1.74-1.5s1.06,1.1.91,2.19q0.63,0.13,1.27.23c0.17-1.07.8-1.85,1.5-1.8s1.24,1,1.24,2.07q0.65,0,1.29,0c0-1.11.49-2,1.2-2.07s1.39,0.78,1.56,1.91q0.64-.07,1.28-0.18c-0.21-1.11.15-2.12,0.85-2.29s1.53,0.58,1.85,1.7q0.62-.17,1.24-0.38c-0.41-1.09-.22-2.17.46-2.45s1.63,0.35,2.12,1.45q0.59-.27,1.17-0.57c-0.61-1-.6-2.15,0-2.55s1.7,0.11,2.36,1.15q0.55-.36,1.08-0.75c-0.79-.93-1-2.07-0.4-2.57s1.7-.16,2.51.77l0,0q0.49-.45,1-0.92l0,0c-0.95-.79-1.32-1.91-0.82-2.5s1.66-.42,2.6.37l0.1,0.09q0.42-.52.81-1.07l-0.09-.05c-1.06-.63-1.6-1.68-1.21-2.34s1.57-.68,2.63,0l0.16,0.1q0.33-.59.64-1.19l-0.15-.06c-1.15-.46-1.84-1.41-1.56-2.12s1.45-.91,2.59-0.45l0.22,0.1q0.24-.64.44-1.29l-0.21,0c-1.2-.27-2-1.1-1.87-1.85s1.29-1.13,2.49-.85l0.28,0.08q0.14-.67.24-1.36H127c-1.23-.08-2.19-0.77-2.14-1.54s1.09-1.32,2.32-1.23l0.33,0q0-.7,0-1.39l-0.3,0c-1.23.11-2.28-.42-2.35-1.18s0.87-1.47,2.1-1.58h0.37q-0.08-.7-0.2-1.39l-0.32.1c-1.2.3-2.32-.06-2.5-0.8s0.63-1.59,1.83-1.89l0.38-.07q-0.19-.68-0.42-1.35l-0.32.16c-1.13.48-2.3,0.31-2.6-.4s0.38-1.67,1.51-2.15l0.38-.14q-0.3-.64-0.64-1.26l-0.29.21c-1,.66-2.22.66-2.63,0s0.11-1.71,1.16-2.36L123,326q-0.4-.59-0.82-1.15l-0.26.25c-0.93.81-2.09,1-2.6,0.42s-0.16-1.7.77-2.51l0.31-.24q-0.49-.52-1-1a3.45,3.45,0,0,1-.21.28c-0.79.95-1.91,1.32-2.5,0.82s-0.42-1.66.37-2.6a3.44,3.44,0,0,1,.26-0.28q-0.56-.43-1.14-0.83c0,0.1-.1.19-0.15,0.29-0.63,1.06-1.68,1.6-2.34,1.21s-0.68-1.57,0-2.63c0.06-.1.13-0.2,0.2-0.29-0.41-.22-0.82-0.43-1.24-0.63,0,0.09-.06.19-0.1,0.28-0.46,1.15-1.41,1.84-2.12,1.56s-0.91-1.45-.45-2.59c0-.1.08-0.19,0.13-0.28q-0.65-.23-1.31-0.42c0,0.08,0,.16,0,0.25-0.27,1.2-1.1,2-1.85,1.87s-1.13-1.28-.85-2.49c0-.09,0-0.17.07-0.26q-0.67-.12-1.35-0.2c0,0.07,0,.14,0,0.2-0.08,1.23-.77,2.19-1.54,2.13s-1.32-1.09-1.23-2.32c0-.07,0-0.14,0-0.21q-0.68,0-1.35,0c0,0.05,0,.1,0,0.15,0.11,1.23-.42,2.28-1.18,2.35s-1.47-.87-1.58-2.1c0-.05,0-0.11,0-0.16q-0.66.09-1.32,0.22l0,0.09c0.3,1.2-.06,2.32-0.8,2.51s-1.59-.63-1.89-1.83l0-.1q-0.63.2-1.26,0.42v0c0.48,1.13.31,2.3-.4,2.6s-1.67-.38-2.15-1.51v0q-0.59.29-1.16,0.61C89.57,318.88,89.57,320,88.93,320.44Zm30.93,22.18c1.71,0.91,1.15,4.2-.53,7.36s-4.08,5.48-5.79,4.57c-1.42-.75-1.51-4.63.06-7.6S118.44,341.86,119.86,342.62Zm-17.8,11.57c3.36-.12,6.81,1.64,6.87,3.25,0.07,1.93-3.06,3.09-6.63,3.22s-6.78-.79-6.85-2.73C95.39,356.33,98.7,354.31,102.06,354.19Zm-17.53-2.93c-1.9-3-2.7-6.27-1.07-7.3,1.36-.86,4.77,1,6.55,3.85s2,6.72.62,7.58C89,356.42,86.43,354.28,84.53,351.25Zm34.06-21.37c1.9,3,2.71,6.27,1.07,7.3-1.36.86-4.77-1-6.55-3.85s-2-6.72-.62-7.58C114.12,324.72,116.69,326.85,118.59,329.88Zm-9.31,5.84a9.12,9.12,0,1,1-12.57-2.88A9.12,9.12,0,0,1,109.28,335.72Zm-8.46-15.25c3.57-.13,6.78.79,6.85,2.73,0.06,1.61-3.25,3.62-6.61,3.75s-6.81-1.64-6.87-3.25C94.12,321.76,97.25,320.61,100.82,320.48Zm-11.24,6.11c1.42,0.75,1.51,4.63-.06,7.6s-4.83,5.08-6.25,4.33c-1.71-.91-1.15-4.2.53-7.36S87.87,325.68,89.58,326.59Z" transform="translate(-75.57 -314.57)"/><path class="cls-1" d="M92.52,364.92q0.61,0.22,1.23.42a3.23,3.23,0,0,1,.17-0.41q-0.66-.21-1.3-0.45A3.33,3.33,0,0,1,92.52,364.92Zm5.15,1.33a3.34,3.34,0,0,1,.1-0.43q-0.67-.1-1.34-0.24a3.38,3.38,0,0,1,0,.45Q97,366.15,97.67,366.25Zm29.07-20.62,0.28,0.08q0.14-.67.24-1.36H127l-0.19,0q-0.1.64-.22,1.28Zm0.44-4.06,0.33,0q0-.7,0-1.39l-0.3,0h-0.15q0,0.65,0,1.3h0.12ZM127,337.5h0.37q-0.08-.7-0.2-1.39l-0.32.1-0.12,0q0.11,0.64.19,1.29H127ZM90,363.84a3.29,3.29,0,0,1,.24-0.38q-0.62-.31-1.23-0.65a3.34,3.34,0,0,1-.16.42Q89.43,363.55,90,363.84Zm-3.45-2.06a3.24,3.24,0,0,1,.3-0.34q-0.57-.4-1.12-0.84a3.31,3.31,0,0,1-.22.4Q86,361.41,86.56,361.79Zm-3.09-2.56a3.17,3.17,0,0,1,.36-0.28q-0.5-.49-1-1a3.27,3.27,0,0,1-.28.36Q83,358.77,83.47,359.22Zm42.2-9.65,0.22,0.1q0.24-.64.44-1.29l-0.21,0-0.23-.06q-0.19.62-.42,1.22Zm0.49-16.06,0.38-.07q-0.19-.68-0.42-1.35l-0.32.16-0.1,0q0.21,0.62.39,1.24ZM119,359.72l0,0q0.49-.45,1-0.92l0,0a3.6,3.6,0,0,1-.29-0.27q-0.46.46-.94,0.9A3.53,3.53,0,0,1,119,359.72ZM83.45,321.91q-0.47.45-.91,0.93a3.47,3.47,0,0,1,.32.34q0.45-.48.93-0.95A3.5,3.5,0,0,1,83.45,321.91Zm28.6,41.94a3.48,3.48,0,0,1,.21.39q0.59-.27,1.17-0.57a3.53,3.53,0,0,1-.2-0.39Q112.65,363.58,112.05,363.84Zm-10.35,2.7a3.38,3.38,0,0,1,0-.44q-0.67,0-1.35,0a3.38,3.38,0,0,1,0,.44Q101.05,366.55,101.7,366.54ZM86.87,319.69a3.61,3.61,0,0,1-.28-0.38q-0.54.38-1,.78a3.46,3.46,0,0,1,.27.38Q86.33,320.07,86.87,319.69ZM124,353.29l0.16,0.1q0.33-.59.64-1.19l-0.15-.06-0.26-.12q-0.29.58-.61,1.14Zm-15.56,12.33q0.62-.17,1.24-0.38a3.53,3.53,0,0,1-.13-0.42q-0.63.21-1.26,0.38A3.52,3.52,0,0,1,108.44,365.62Zm-2.7.59a3.48,3.48,0,0,1-.05-0.44q-0.66.11-1.32,0.18a3.49,3.49,0,0,1,.09.44Q105.1,366.31,105.74,366.21Zm16-9.51,0.1,0.09q0.42-.52.81-1.07l-0.09-.05-0.28-.19q-0.38.52-.78,1Zm-6.19,5.21a3.57,3.57,0,0,1,.26.36q0.55-.36,1.08-0.75a3.6,3.6,0,0,1-.27-0.35Q116.12,361.55,115.57,361.91ZM77,333.49q0.19-.66.41-1.3a3.35,3.35,0,0,1-.46-0.11q-0.21.61-.39,1.23A3.31,3.31,0,0,1,77,333.49Zm31.67-17.43q0.62,0.18,1.23.39l0.05-.15c0-.1.08-0.19,0.13-0.28q-0.65-.23-1.31-0.42c0,0.08,0,.16,0,0.25Zm-4-.82q0.64,0.08,1.28.19l0-.2c0-.09,0-0.17.07-0.26q-0.67-.12-1.35-0.2c0,0.07,0,.14,0,0.2S104.75,315.15,104.74,315.24ZM78.42,329.77q0.29-.61.6-1.21a3.41,3.41,0,0,1-.43-0.19q-0.3.57-.58,1.16A3.37,3.37,0,0,1,78.42,329.77Zm-2.19,7.61q0.09-.69.21-1.37a3.34,3.34,0,0,1-.47,0q-0.11.64-.2,1.28A3.33,3.33,0,0,1,76.23,337.38ZM100.7,315q0.65,0,1.29,0c0-.08,0-0.17,0-0.25s0-.14,0-0.21q-0.68,0-1.35,0c0,0.05,0,.1,0,0.15S100.7,314.95,100.7,315Zm-7.89,1.53q0.61-.22,1.23-0.41a3.66,3.66,0,0,1-.11-0.36l0-.1q-0.63.2-1.26,0.42v0A3.58,3.58,0,0,1,92.81,316.58Zm3.88-1.08q0.64-.12,1.28-0.21c0-.1,0-0.2,0-0.31s0-.11,0-0.16q-0.66.09-1.32,0.22l0,0.09A3.51,3.51,0,0,1,96.69,315.5Zm-6.38,2.15a3.64,3.64,0,0,1-.2-0.39v0q-0.59.29-1.16,0.61a3.49,3.49,0,0,1,.22.42Q89.73,317.94,90.31,317.65Zm-9.92,8.65q0.37-.55.78-1.09a3.46,3.46,0,0,1-.39-0.26q-0.39.52-.75,1.05A3.34,3.34,0,0,1,80.38,326.3Zm32.11-8.81q0.59,0.28,1.16.59l0.05-.1c0.06-.1.13-0.2,0.2-0.29-0.41-.22-0.82-0.43-1.24-0.63,0,0.09-.06.19-0.1,0.28Zm6.68,4.59q0.47,0.45.92,0.92l0,0,0.31-.24q-0.49-.52-1-1a3.45,3.45,0,0,1-.21.28ZM78.65,352.83a3.31,3.31,0,0,1,.43-0.16q-0.34-.63-0.64-1.26a3.33,3.33,0,0,1-.38.26Q78.34,352.26,78.65,352.83ZM76,341.33q0-.7,0-1.39a3.41,3.41,0,0,1-.47,0q0,0.65,0,1.3A3.35,3.35,0,0,1,76,341.33Zm4.77,14.88a3.2,3.2,0,0,1,.4-0.22q-0.42-.56-0.82-1.15a3.31,3.31,0,0,1-.34.32Q80.42,355.7,80.81,356.21Zm41.07-31.09q0.39,0.52.76,1.06l0,0L123,326q-0.4-.59-0.82-1.15l-0.26.25ZM76.46,345.26q-0.13-.69-0.22-1.38a3.31,3.31,0,0,1-.45.13q0.09,0.64.2,1.28A3.23,3.23,0,0,1,76.46,345.26Zm47.63-16.71q0.31,0.58.59,1.17l0.05,0,0.38-.14q-0.3-.64-0.64-1.26l-0.29.21Zm-8.07-9q0.54,0.37,1.05.76l0-.06a3.44,3.44,0,0,1,.26-0.28q-0.56-.43-1.14-0.83c0,0.1-.1.19-0.15,0.29ZM77.48,349.07q-0.24-.67-0.43-1.34a3.3,3.3,0,0,1-.42.2q0.18,0.62.4,1.24A3.31,3.31,0,0,1,77.48,349.07Z" transform="translate(-75.57 -314.57)"/><path class="cls-1" d="M111.88,334.09a12.18,12.18,0,1,1-16.79-3.84A12.19,12.19,0,0,1,111.88,334.09ZM91.93,346.61a11.37,11.37,0,1,0,3.59-15.67A11.38,11.38,0,0,0,91.93,346.61Z" transform="translate(-75.57 -314.57)"/></svg>