<svg id="Layer_1" data-name="Layer 1" xmlns="http://www.w3.org/2000/svg" viewBox="0 0 347.46 70.52"><defs><style>.cls-1{fill:#f2f2f2;stroke:#efefef;stroke-miterlimit:10;}.cls-2{fill:#be4135;}</style></defs><title>logo</title><path class="cls-1" d="M180.61,563a15.88,15.88,0,0,1-4.14-.61,7.39,7.39,0,0,1-3-1.66,7,7,0,0,1-1.8-2.88,13.67,13.67,0,0,1-.61-4.43V507.36l4.68-.86v46.8a9.63,9.63,0,0,0,.32,2.77,3.74,3.74,0,0,0,1,1.66,3.93,3.93,0,0,0,1.69.9,21.17,21.17,0,0,0,2.48.5Z" transform="translate(-140.24 -505.9)"/><path class="cls-1" d="M187.3,543.72a23.65,23.65,0,0,1,1.4-8.53,18.81,18.81,0,0,1,3.67-6.08,14.46,14.46,0,0,1,5.18-3.64,15.79,15.79,0,0,1,6-1.19,14,14,0,0,1,10.91,4.46q4.07,4.46,4.07,13.75,0,0.58,0,1.15t-0.11,1.08H192.27q0.22,6.84,3.38,10.51t10.08,3.67a20.39,20.39,0,0,0,6-.72A25.11,25.11,0,0,0,215,557l0.86,4a19.46,19.46,0,0,1-3.78,1.37,23.89,23.89,0,0,1-6.52.79,21.69,21.69,0,0,1-8.35-1.44,14.93,14.93,0,0,1-5.69-4,15.93,15.93,0,0,1-3.24-6.16A28.62,28.62,0,0,1,187.3,543.72Zm26.42-3q-0.15-5.83-2.74-9.07a8.86,8.86,0,0,0-7.34-3.24,9.78,9.78,0,0,0-4.5,1,11.44,11.44,0,0,0-3.46,2.7,12.53,12.53,0,0,0-2.3,3.92,16.09,16.09,0,0,0-1,4.68h21.31Z" transform="translate(-140.24 -505.9)"/><path class="cls-1" d="M229,526.44q2.09-.57,5.62-1.3a44.14,44.14,0,0,1,8.64-.72,18,18,0,0,1,7.09,1.22,10.91,10.91,0,0,1,4.54,3.49,14.27,14.27,0,0,1,2.41,5.44,31.57,31.57,0,0,1,.72,7v20.81h-4.68v-19.3a35.23,35.23,0,0,0-.54-6.7,11.17,11.17,0,0,0-1.8-4.46,7,7,0,0,0-3.31-2.48,15,15,0,0,0-5.15-.76,39.34,39.34,0,0,0-5.72.36,17.59,17.59,0,0,0-3.13.65v32.69H229V526.44Z" transform="translate(-140.24 -505.9)"/><path class="cls-1" d="M294.22,558a8.11,8.11,0,0,1-1.3.83,20.31,20.31,0,0,1-2.12,1,16.39,16.39,0,0,1-2.88.83,18.63,18.63,0,0,1-3.64.32,19.66,19.66,0,0,1-6.26-1,14,14,0,0,1-5.29-3.17,15.53,15.53,0,0,1-3.64-5.58,22.41,22.41,0,0,1-1.37-8.32,21.42,21.42,0,0,1,1.22-7.34,17.34,17.34,0,0,1,3.49-5.87,15.83,15.83,0,0,1,5.54-3.89,18.55,18.55,0,0,1,7.38-1.4,40.48,40.48,0,0,1,8.32.68q3.13,0.68,5.15,1.33v34q0,8.35-4.32,11.92t-13,3.56a36,36,0,0,1-6.52-.54,35.3,35.3,0,0,1-5-1.26l0.94-4.25a21.38,21.38,0,0,0,4.72,1.37,31.7,31.7,0,0,0,6,.58q6.62,0,9.61-2.56t3-8.75V558Zm-0.07-28.37A27.9,27.9,0,0,0,291,529a36,36,0,0,0-5.54-.32,13,13,0,0,0-5.36,1,11.34,11.34,0,0,0-4,3,13,13,0,0,0-2.52,4.54,18.48,18.48,0,0,0-.86,5.8,17.59,17.59,0,0,0,1,6.3,12.34,12.34,0,0,0,2.63,4.28A9.8,9.8,0,0,0,280,556a12.39,12.39,0,0,0,4.25.76,17.17,17.17,0,0,0,5.8-.94,13,13,0,0,0,4.07-2.16v-24Z" transform="translate(-140.24 -505.9)"/><path class="cls-1" d="M311.21,562.37v-55l4.68-.86v19.73a29.73,29.73,0,0,1,4.68-1.33,24.58,24.58,0,0,1,4.75-.47,18.48,18.48,0,0,1,7.2,1.22,11.14,11.14,0,0,1,4.61,3.49,13.56,13.56,0,0,1,2.41,5.44,33.17,33.17,0,0,1,.68,7v20.81h-4.68v-19.3a35.23,35.23,0,0,0-.54-6.7,11.17,11.17,0,0,0-1.8-4.46,7,7,0,0,0-3.35-2.48,15.62,15.62,0,0,0-5.26-.76,17.38,17.38,0,0,0-2.63.22q-1.4.22-2.63,0.47t-2.2.54a9.71,9.71,0,0,0-1.26.43v32h-4.68Z" transform="translate(-140.24 -505.9)"/><path class="cls-1" d="M363.48,524.28a16.5,16.5,0,0,1,6.23,1,10.69,10.69,0,0,1,4.14,2.88,11.34,11.34,0,0,1,2.3,4.36,19.88,19.88,0,0,1,.72,5.47v23.47a20.93,20.93,0,0,1-2.09.47q-1.37.25-3.17,0.54t-4,.47q-2.2.18-4.5,0.18a21.47,21.47,0,0,1-5.44-.65,12,12,0,0,1-4.32-2.05,9.68,9.68,0,0,1-2.88-3.6,12.42,12.42,0,0,1-1-5.36,10.88,10.88,0,0,1,1.15-5.18,9.79,9.79,0,0,1,3.24-3.56,14.51,14.51,0,0,1,5-2.05,28.48,28.48,0,0,1,6.26-.65q1,0,2.12.11t2.16,0.29q1,0.18,1.8.36a5.53,5.53,0,0,1,1,.32v-2.3a24.44,24.44,0,0,0-.29-3.78,8.29,8.29,0,0,0-1.26-3.31,7,7,0,0,0-2.74-2.38,10.26,10.26,0,0,0-4.64-.9,24,24,0,0,0-6.12.58q-2,.58-3,0.94l-0.65-4.1a17.35,17.35,0,0,1,3.78-1.08A32.33,32.33,0,0,1,363.48,524.28Zm0.43,34.7q2.73,0,4.79-.18a32.47,32.47,0,0,0,3.49-.47v-13.1a14.5,14.5,0,0,0-2.52-.76,22.4,22.4,0,0,0-4.75-.4,27,27,0,0,0-3.6.25,10.41,10.41,0,0,0-3.46,1.08,7.17,7.17,0,0,0-2.59,2.27,6.53,6.53,0,0,0-1,3.82A8.17,8.17,0,0,0,355,555a5.69,5.69,0,0,0,1.94,2.3,8.61,8.61,0,0,0,3,1.26A18.27,18.27,0,0,0,363.92,559Z" transform="translate(-140.24 -505.9)"/><path class="cls-1" d="M401.5,524.43a25.19,25.19,0,0,1,4.36.36,13.44,13.44,0,0,1,2.84.72l-0.94,4a10.44,10.44,0,0,0-2.34-.61,26.74,26.74,0,0,0-4.64-.32,22,22,0,0,0-4.86.43,13.46,13.46,0,0,0-2.41.72v32.62h-4.68v-35.5a34.63,34.63,0,0,1,5-1.62A30.88,30.88,0,0,1,401.5,524.43Z" transform="translate(-140.24 -505.9)"/><path class="cls-1" d="M420.15,525.15H435v4H420.15v19.8a20.11,20.11,0,0,0,.54,5.15,7.18,7.18,0,0,0,1.55,3.06,4.9,4.9,0,0,0,2.45,1.44,13,13,0,0,0,3.17.36,13.62,13.62,0,0,0,4.75-.68,20.58,20.58,0,0,0,2.81-1.26l1.15,3.89a16.9,16.9,0,0,1-3.53,1.48,17.48,17.48,0,0,1-5.47.83,16.25,16.25,0,0,1-5.8-.9,8.37,8.37,0,0,1-3.74-2.74,11.21,11.21,0,0,1-2-4.57,31.77,31.77,0,0,1-.58-6.48V514.2l4.68-.86v11.81Z" transform="translate(-140.24 -505.9)"/><path class="cls-2" d="M154.85,546.16a9.53,9.53,0,0,1,2.55,7.62c-0.2,1.33-.92,1.69-1.84.85a84.19,84.19,0,0,0-12.36-8.23c-1.84-1.09-2.35-2.78-2.86-6.41-0.31-1.94,0-2.54,1.74-3.27,5.21-2.06,14.91-7.26,19.1-10.53,1-.85,1.63-0.24,1.63,1.09a11.62,11.62,0,0,1-3.78,8c-2.35,2.18-6.33,4.36-10,6.29A32.3,32.3,0,0,1,154.85,546.16Z" transform="translate(-140.24 -505.9)"/><path class="cls-2" d="M472.11,535.63a10.72,10.72,0,0,1-2.66-7.87c0.2-1.57.92-1.81,1.84-1a86.84,86.84,0,0,0,15,9.92c1.53,0.73,1.74,1.69.92,3.63-1.43,3.63-2.45,5.2-4.49,6.17-5,2.3-11.44,5.08-16.24,8.11-1.12.73-1.43,0.36-1.53-1.21-0.1-2.06,1.53-5.45,3.88-7.5a37,37,0,0,1,9.5-5.45A31.45,31.45,0,0,1,472.11,535.63Z" transform="translate(-140.24 -505.9)"/><path class="cls-2" d="M464.73,507.79c1.38,2,1.82,5.88-.31,12.41-3.12,9.54-15.71,40.5-18.49,55.37-0.13.77-.75,1.21-1.52,0.45-1.28-1.35-2-3.81-1.66-7.65,1-10.47,14.68-48.14,19.95-60.28C463.28,506.87,464,506.74,464.73,507.79Z" transform="translate(-140.24 -505.9)"/></svg>