<svg id="Layer_1" data-name="Layer 1" xmlns="http://www.w3.org/2000/svg" viewBox="0 0 122.39 138.96"><defs><style>.cls-1{fill:#384dde;}.cls-2{fill:#4365ec;}.cls-3{fill:#fefefe;}.cls-4{fill:#e9e9e9;}</style></defs><title>css3</title><g id="mktS4A.tif"><path class="cls-1" d="M908.39,316.06c0.31,0,.62,0,0.93,0h120.6c0.95,0,.92,0,0.83.95-0.3,3.25-.59,6.51-0.88,9.76q-0.58,6.41-1.15,12.82-0.5,5.55-1,11.09-0.57,6.41-1.15,12.82-0.43,4.82-.85,9.63-0.57,6.41-1.15,12.82-0.43,4.82-.85,9.63-0.57,6.41-1.15,12.82-0.5,5.55-1,11.09-0.58,6.44-1.16,12.89c-0.24,2.7-.49,5.4-0.7,8.11a0.68,0.68,0,0,1-.58.72l-37.61,10.42-11.49,3.19a0.27,0.27,0,0,0-.27.15h-0.67c-4.54-1.08-9-2.44-13.51-3.67-6.22-1.7-12.43-3.45-18.65-5.17l-16.46-4.57c-1.15-.32-1.14-0.33-1.26-1.52-0.52-5.22-.94-10.45-1.42-15.67-0.43-4.74-.83-9.47-1.26-14.21s-0.86-9.47-1.28-14.21q-0.57-6.37-1.13-12.75-0.63-7.1-1.28-14.21-0.5-5.61-1-11.22c-0.28-3.23-.59-6.46-0.87-9.69s-0.58-6.51-.86-9.76-0.6-6.46-.87-9.69-0.7-6.63-.79-10a5.09,5.09,0,0,0-.12-1.31v-1.33Z" transform="translate(-908.39 -316.06)"/><path class="cls-2" d="M931.22,341.69a1,1,0,0,1,.82-0.13q18.39,0,36.77,0c0.66,0,.87-0.13.86-0.84,0-4.54,0-9.08,0-13.61,0-.58.12-0.8,0.76-0.8q24.23,0,48.45,0c0.6,0,.79.17,0.73,0.75-0.19,1.76-.39,3.51-0.5,5.27-0.08,1.17-.19,2.34-0.3,3.5-0.18,1.87-.39,3.74-0.5,5.61-0.07,1.17-.21,2.33-0.3,3.5-0.15,1.8-.34,3.6-0.5,5.41-0.1,1.14-.19,2.29-0.29,3.44-0.17,1.85-.35,3.69-0.51,5.54q-0.15,1.65-.28,3.3c-0.15,1.89-.3,3.79-0.51,5.67-0.14,1.23-.18,2.47-0.29,3.7-0.16,1.74-.37,3.47-0.5,5.21-0.08,1.15-.18,2.29-0.29,3.44-0.19,1.89-.29,3.79-0.51,5.67-0.2,1.73-.28,3.48-0.43,5.22s-0.34,3.43-.51,5.14c-0.11,1.14-.19,2.29-0.29,3.44-0.17,1.85-.35,3.69-0.51,5.54-0.11,1.19-.18,2.38-0.29,3.57-0.16,1.78-.34,3.56-0.51,5.34-0.11,1.17-.19,2.34-0.29,3.5-0.17,1.87-.35,3.74-0.51,5.61-0.11,1.19-.18,2.38-0.29,3.57-0.17,1.82-.36,3.65-0.52,5.47a0.55,0.55,0,0,1-.52.55q-9.16,2.52-18.3,5.07l-17.91,5c-1,.28-2,0.53-3,0.84-0.61.19-.73,0-0.73-0.59,0-4.76,0-9.52,0-14.28a0.77,0.77,0,0,0-.27-0.83,1.33,1.33,0,0,1,.61-0.33l20.25-5.62c3.24-.9,6.47-1.8,9.71-2.68a1,1,0,0,0,.9-1.09c0.39-4.23.76-8.45,1.14-12.68s0.75-8.5,1.13-12.75c0.42-4.74.86-9.47,1.27-14.21q0.56-6.37,1.13-12.75t1.13-12.55c0.33-3.61.63-7.21,1-10.82,0-.18,0-0.36,0-0.53a0.46,0.46,0,0,0-.57-0.59H969.58a4.33,4.33,0,0,1-.67,0H932.51A1.85,1.85,0,0,1,931.22,341.69Z" transform="translate(-908.39 -316.06)"/><path class="cls-3" d="M969.66,341.71l0.67,0q18.42,0,36.84,0c0.66,0,.78.14,0.71,0.8-0.61,6.46-1.17,12.92-1.75,19.39-0.42,4.71-.82,9.43-1.25,14.15-0.47,5.22-1,10.45-1.42,15.67-0.42,4.76-.83,9.52-1.25,14.28-0.39,4.47-.8,8.94-1.19,13.41a0.57,0.57,0,0,1-.52.56l-21.69,6L970,428.34c-0.36.12-.41-0.15-0.47-0.39a4,4,0,0,1,0-.86q0-6.91,0-13.81a1.53,1.53,0,0,1,.1-0.78l0.12,0a2.21,2.21,0,0,1,1-.43c4.83-1.29,9.66-2.61,14.5-3.9l0.64-.18a0.86,0.86,0,0,0,.7-0.86c0.19-2.66.48-5.31,0.7-8,0.17-2.13.38-4.25,0.58-6.37,0.11-1.19.2-2.39,0.32-3.59,0.09-.82,0-0.93-0.86-0.93H970.72a1.39,1.39,0,0,1-1.14-.24,1.78,1.78,0,0,1-.13-0.91q0-6.6,0-13.2c0-1.16.1-1.25,1.26-1.25h17.87a1.16,1.16,0,0,0,.89-0.16,3.52,3.52,0,0,0,.25-1.49c0.36-4.38.8-8.75,1.14-13.13a0.68,0.68,0,0,0-.08-0.57,1.25,1.25,0,0,0-.9-0.15H970.26a0.7,0.7,0,0,1-.8-0.76c0-.18,0-0.36,0-0.53q0-6.51,0-13A1.46,1.46,0,0,1,969.66,341.71Z" transform="translate(-908.39 -316.06)"/><path class="cls-4" d="M969.55,412.49a1.38,1.38,0,0,1,.11.84q0,7.15,0,14.31c0,0.26-.15.61,0.29,0.7a0.81,0.81,0,0,1-.56.14l-11.47-3.21q-9.55-2.66-19.12-5.29a0.85,0.85,0,0,1-.74-0.89c-0.22-2.68-.46-5.36-0.7-8q-0.51-5.71-1-11.42c-0.1-1.11-.19-2.21-0.3-3.32,0-.39,0-0.6.5-0.6q7.17,0,14.34,0a0.46,0.46,0,0,1,.54.53c0.19,2.3.41,4.6,0.62,6.9,0.13,1.46.28,2.92,0.39,4.38a0.54,0.54,0,0,0,.53.54l14.2,3.83A17.66,17.66,0,0,0,969.55,412.49Z" transform="translate(-908.39 -316.06)"/><path class="cls-4" d="M969.66,341.71c0,4.82,0,9.65,0,14.47,0,0.59.16,0.74,0.75,0.74q10,0,20,0a0.76,0.76,0,0,1,.74.14,1.23,1.23,0,0,1-.89.2H970.55a1.29,1.29,0,0,1-.89-0.2c-0.29,0-.58,0-0.86,0q-17.74,0-35.47,0a0.66,0.66,0,0,1-.82-0.75c-0.31-3.81-.68-7.61-1-11.41-0.1-1.06-.26-2.12-0.26-3.18h38.11Z" transform="translate(-908.39 -316.06)"/><path class="cls-4" d="M989.79,372.62a0.63,0.63,0,0,1-.72.17q-9.31,0-18.61,0c-0.64,0-.82.16-0.82,0.81,0,4.8,0,9.61,0,14.41a0.9,0.9,0,0,1-.58.07H935.95a1.29,1.29,0,0,1-.59-0.05c-0.12-1.15-.26-2.29-0.37-3.44-0.34-3.74-.64-7.48-1-11.21-0.06-.6.13-0.68,0.66-0.68q17.07,0,34.14,0c0.29,0,.58,0,0.86,0a1.25,1.25,0,0,1,.89-0.21H989A1.23,1.23,0,0,1,989.79,372.62Z" transform="translate(-908.39 -316.06)"/><path class="cls-2" d="M935.36,388h33.58l0.73,0,10.94,0c2.4,0,4.8,0,7.21,0,0.47,0,.61.13,0.56,0.6-0.31,3.34-.6,6.68-0.9,10-0.25,2.77-.51,5.53-0.72,8.3a1.15,1.15,0,0,1-1,1.25c-5.18,1.35-10.33,2.76-15.5,4.15-0.19.05-.39,0.07-0.58,0.1q0-11.64,0-23.29c0-1.13.13-1-1-1H936.19A1.08,1.08,0,0,1,935.36,388Z" transform="translate(-908.39 -316.06)"/><path class="cls-2" d="M989.79,372.62a5.44,5.44,0,0,1-.59.06H970.06c-0.13,0-.26,0-0.4,0q0-7.8,0-15.6l1.53,0h19.15l0.8,0q-0.51,5.66-1,11.32C990,369.79,989.91,371.21,989.79,372.62Z" transform="translate(-908.39 -316.06)"/></g></svg>