<svg id="Layer_1" data-name="Layer 1" xmlns="http://www.w3.org/2000/svg" viewBox="0 0 122.29 138.96"><defs><style>.cls-1{fill:#c54d2d;}.cls-2{fill:#d36531;}.cls-3{fill:#e9e9e9;}.cls-4{fill:#fefefe;}.cls-5{fill:#c54e2d;}</style></defs><title>html5</title><g id="mktS4A.tif"><path class="cls-1" d="M1114,455c-1.77-.64-3.61-1.07-5.42-1.57q-21.87-6.1-43.76-12.15a0.74,0.74,0,0,1-.65-0.79c-0.42-4.92-.86-9.83-1.31-14.75q-0.84-9.36-1.69-18.73c-0.42-4.74-.83-9.48-1.25-14.22-0.47-5.23-.95-10.45-1.41-15.67-0.38-4.23-.74-8.46-1.12-12.69q-0.63-7.11-1.28-14.21-0.49-5.48-1-11-0.58-6.51-1.16-13c-0.28-3.12-.54-6.25-0.85-9.36-0.07-.66.11-0.8,0.76-0.8q48.71,0,97.43,0h23.29c0.26,0,.53,0,0.79-0.05v2.4c-0.17,1-.12,2-0.19,3-0.17,2.35-.4,4.69-0.61,7s-0.39,4.51-.6,6.77c-0.26,2.76-.49,5.53-0.75,8.3-0.2,2.19-.39,4.38-0.58,6.57-0.25,2.81-.51,5.62-0.75,8.43s-0.49,5.35-.72,8c-0.2,2.3-.43,4.6-0.61,6.9-0.23,2.79-.51,5.58-0.74,8.37-0.18,2.17-.4,4.34-0.59,6.51s-0.4,4.43-.59,6.64-0.42,4.6-.61,6.9-0.39,4.38-.59,6.57q-0.38,4.22-.75,8.43c-0.24,2.77-.5,5.53-0.73,8.3-0.18,2.17-.41,4.34-0.59,6.51-0.24,2.79-.53,5.57-0.73,8.37a1.26,1.26,0,0,1-1.19,1.49l-24.81,6.89L1116,454.73c-0.49.14-1,.11-1.5,0.29H1114Z" transform="translate(-1053.08 -316.06)"/><path class="cls-2" d="M1075.81,341.73a0.75,0.75,0,0,1,.79-0.16h36.71c0.92,0,.92,0,0.92-0.95,0-4.52,0-9,0-13.55,0-.6.18-0.74,0.75-0.74q24.29,0,48.59,0c0.74,0,.8.1,0.71,0.8-0.15,1.29-.26,2.59-0.38,3.89q-0.26,2.74-.51,5.47c-0.1,1.08-.19,2.16-0.29,3.24-0.17,1.91-.35,3.83-0.52,5.74-0.1,1.21-.18,2.43-0.29,3.64-0.16,1.71-.35,3.43-0.51,5.14-0.11,1.17-.19,2.34-0.29,3.5-0.17,1.87-.35,3.74-0.51,5.61-0.11,1.19-.18,2.38-0.29,3.57-0.16,1.74-.38,3.47-0.49,5.21-0.08,1.19-.2,2.38-0.31,3.57-0.17,1.89-.35,3.78-0.51,5.67-0.1,1.19-.18,2.38-0.29,3.57-0.16,1.74-.34,3.47-0.51,5.21-0.11,1.17-.19,2.34-0.29,3.5-0.17,1.87-.35,3.74-0.51,5.61-0.11,1.21-.18,2.42-0.29,3.64-0.16,1.8-.34,3.6-0.51,5.41-0.1,1.14-.19,2.29-0.29,3.44-0.17,1.85-.35,3.69-0.51,5.54-0.11,1.19-.18,2.38-0.29,3.57-0.16,1.74-.35,3.47-0.51,5.21-0.11,1.19-.19,2.38-0.29,3.57s-0.18,2.16-.27,3.24a0.45,0.45,0,0,1-.44.41l-9.15,2.52-12.54,3.48-12,3.33-5.56,1.57c-0.85.24-.85,0.23-0.85-0.63q0-7.11,0-14.22a1.26,1.26,0,0,0-.13-0.84,0.39,0.39,0,0,1,.15-0.18c1.75-.59,3.54-1,5.32-1.52l21.6-6c1.16-.32,2.31-0.67,3.47-1a1,1,0,0,0,.89-1.07c0.32-4.23.73-8.45,1.11-12.68s0.76-8.41,1.14-12.61c0.42-4.73.86-9.47,1.26-14.2,0.16-1.9.34-3.8,0.51-5.71a0.68,0.68,0,0,0-.11-0.69,3,3,0,0,0-.93,0h-33.12a2,2,0,0,1-1.17-.15,1.35,1.35,0,0,1-.19-0.89q0-6.94,0-13.88a1.47,1.47,0,0,1,.17-0.9,1.8,1.8,0,0,1,1.16-.17h34.55a1.24,1.24,0,0,0,1-.2,7.4,7.4,0,0,0,.34-2.49c0.37-3.71.67-7.43,1-11.15,0.1-1,.07-1.11-1-1.11h-36.21c-0.29,0-.58,0-0.87,0s-0.8,0-1.2,0h-36A2,2,0,0,1,1075.81,341.73Z" transform="translate(-1053.08 -316.06)"/><path class="cls-3" d="M1075.81,341.73c0.2,0,.4,0,0.6,0h37.43l0.4,0a1.48,1.48,0,0,1,.21,1.08q0,6.33,0,12.67c0,0.22,0,.44,0,0.67a0.5,0.5,0,0,0,.58.56h34.87a1.8,1.8,0,0,1,1.28.21,0.83,0.83,0,0,1-.74.12h-35.35l-0.87,0a1.7,1.7,0,0,1-1.16.2h-19c-1.23,0-1.22,0-1.12,1.2,0.34,4.23.77,8.46,1.11,12.69,0.11,1.31.11,1.31,1.42,1.31h17.62a1.64,1.64,0,0,1,1.15.21l0.87,0H1149a1,1,0,0,1,.77.1,1.57,1.57,0,0,1-1.15.22h-33.16c-0.94,0-1,0-1,1q0,6.44,0,12.88a1.81,1.81,0,0,1-.19,1.16,1.86,1.86,0,0,1-.73,0h-32.89a1,1,0,0,1-.7-0.09c-0.24-2.81-.48-5.62-0.72-8.43s-0.5-5.57-.75-8.36q-0.51-5.67-1-11.35c-0.29-3.21-.56-6.42-0.85-9.62Q1076.2,346,1075.81,341.73Z" transform="translate(-1053.08 -316.06)"/><path class="cls-3" d="M1114.23,428.45l-0.14,0-11.61-3.24-19.25-5.34a0.57,0.57,0,0,1-.51-0.57q-0.53-6.28-1.09-12.55c-0.31-3.5-.61-7-0.95-10.49,0-.49.09-0.58,0.55-0.58q7.11,0,14.21,0a0.51,0.51,0,0,1,.63.59c0.3,3.65.64,7.31,0.95,11a0.81,0.81,0,0,0,.71.85c5.32,1.41,10.63,2.86,15.94,4.3a1.78,1.78,0,0,0,.26,0,0.54,0.54,0,0,1,.41.27,2.65,2.65,0,0,1,.09.92q0,6.86,0,13.72A1.51,1.51,0,0,1,1114.23,428.45Z" transform="translate(-1053.08 -316.06)"/><path class="cls-2" d="M1114.23,412.57l-0.28-.12c0.44-.1.27-0.46,0.27-0.71q0-7.47,0-14.94,0-3.87,0-7.74c0-.91,0-0.91-0.95-0.91h-32.55a0.8,0.8,0,0,1-.8-0.16c0.18,0,.35,0,0.53,0h33.44l0.33,0a1.27,1.27,0,0,1,.89-0.19h17c1,0,1.17.19,1.07,1.25-0.27,2.78-.49,5.58-0.75,8.36s-0.47,5.49-.75,8.23c0,0.49-.08,1-0.12,1.46a1.25,1.25,0,0,1-1.11,1.26c-2.07.51-4.12,1.11-6.18,1.66-3.07.82-6.13,1.67-9.21,2.48A1.22,1.22,0,0,1,1114.23,412.57Z" transform="translate(-1053.08 -316.06)"/><path class="cls-4" d="M1114.23,412.57c2-.57,4.09-1.15,6.15-1.7,3.47-.94,6.94-1.88,10.41-2.8a0.61,0.61,0,0,0,.56-0.65q0.71-8.23,1.46-16.46c0.07-.73.12-1.46,0.23-2.19,0.08-.55,0-0.76-0.66-0.76-5.78,0-11.56,0-17.34,0l-0.8,0c0-4.83,0-9.65,0-14.48,0-.61.19-0.73,0.76-0.73q17,0,33.9,0h0.87a37.52,37.52,0,0,1-.32,4.43c-0.27,3.32-.59,6.64-0.88,10q-0.51,5.61-1,11.22-0.43,4.78-.85,9.56c-0.33,3.7-.66,7.4-1,11.09a0.9,0.9,0,0,1-.79.92q-15.22,4.18-30.42,8.42a2.23,2.23,0,0,1-.26,0Q1114.23,420.51,1114.23,412.57Z" transform="translate(-1053.08 -316.06)"/><path class="cls-4" d="M1151.18,356.91H1115.1c-0.87,0-.87,0-0.87-0.86q0-7.17,0-14.34l0.53,0h37.14c0.41,0,.71,0,0.65.57-0.44,4.73-.86,9.47-1.28,14.2A4.56,4.56,0,0,1,1151.18,356.91Z" transform="translate(-1053.08 -316.06)"/><path class="cls-5" d="M1114.23,372.66c-0.22,0-.44,0-0.66,0-6.29,0-12.58,0-18.87,0a0.63,0.63,0,0,1-.8-0.7q-0.59-7.1-1.28-14.2c-0.06-.64.08-0.82,0.75-0.81,6.71,0,13.42,0,20.13,0,0.24,0,.49,0,0.73,0Q1114.23,364.86,1114.23,372.66Z" transform="translate(-1053.08 -316.06)"/></g></svg>