<svg id="Layer_1" data-name="Layer 1" xmlns="http://www.w3.org/2000/svg" viewBox="0 0 147.44 153.1"><defs><style>.cls-1{fill:#fff;}.cls-2{fill:#3c68a6;}.cls-3{fill:#3c68a7;}</style></defs><title>jquery</title><g id="lpLnCK.tif"><path class="cls-1" d="M921.34,212.11c0.4-1.67.84-3.34,1.19-5a0.94,0.94,0,0,1,1-.89c0.57,0,1.15-.21,1.71-0.17a1.79,1.79,0,0,0,1.82-1.2,30.59,30.59,0,0,0,2.76-9,59.58,59.58,0,0,1,2.23-9.78,0.94,0.94,0,0,1,1.08-.76c1.82,0,3.64,0,5.47,0,0.48,0,.69.06,0.56,0.63-1.56,6.74-2.86,13.54-4.73,20.21a13.5,13.5,0,0,1-1.16,2.93,6.27,6.27,0,0,1-4.89,3.27c-0.17,0-.4-0.07-0.48.19h-5.56a1,1,0,0,0-.65-0.1C921.51,212.38,921.31,212.39,921.34,212.11Z" transform="translate(-921.33 -59.39)"/><path class="cls-2" d="M1044.62,132.31a26,26,0,0,1-3.61,6.51c-7.62,10.21-17.66,16.7-30.24,18.75-18.62,3-35.15-1.69-49.16-14.47A56.9,56.9,0,0,1,944,113.55c-2.23-9.54-1.94-18.95,2.21-28a38.62,38.62,0,0,1,7.07-10.42c0.23-.25.47-0.7,0.82-0.51a0.89,0.89,0,0,1,.07,1,67.26,67.26,0,0,0-1.62,12.52,51.83,51.83,0,0,0,2.85,19.49c3.54,9.91,9.93,17.7,18.14,24.07a72.67,72.67,0,0,0,17.07,10.14,55.16,55.16,0,0,0,40.18-.13,41.87,41.87,0,0,0,13.45-9Z" transform="translate(-921.33 -59.39)"/><path class="cls-2" d="M1047.9,104.92a31.46,31.46,0,0,1-6.09,9.7c-5.37,5.74-12.16,8.79-19.76,10.14a40.15,40.15,0,0,1-25-3.44,44.57,44.57,0,0,1-15.23-12.45,36.15,36.15,0,0,1-8-17.89c-1.35-9.42.59-18,6.9-25.3a1,1,0,0,1,.66-0.52c-0.22,1.49-.48,2.94-0.66,4.4-1.34,10.79.45,20.81,7.39,29.52a48,48,0,0,0,15.34,12.2,40,40,0,0,0,14.65,4.78c10.57,1.14,19.83-1.75,27.63-9.05C1046.43,106.39,1047.05,105.75,1047.9,104.92Z" transform="translate(-921.33 -59.39)"/><path class="cls-1" d="M998.71,177.76c-1.69,8-3.35,15.93-5,23.83a0.73,0.73,0,0,1-.84.74c-4.06,0-8.12,0-12.18,0-5.37,0-7.14-3.34-6.67-7.68a156.29,156.29,0,0,1,3-16.19,0.74,0.74,0,0,1,.87-0.73q2.45,0.05,4.89,0c0.62,0,.79.13,0.74,0.8a64.65,64.65,0,0,1-1.76,9,22.9,22.9,0,0,0-.58,7.79,0.72,0.72,0,0,0,.9.77c1.79,0,3.58,0,5.37,0a0.78,0.78,0,0,0,1-.75c1.18-5.52,2.42-11,3.61-16.55a1.06,1.06,0,0,1,1.28-1.05C995,177.82,996.84,177.76,998.71,177.76Z" transform="translate(-921.33 -59.39)"/><path class="cls-3" d="M1004.13,59.39a44.83,44.83,0,0,0-.43,5.52c0.19,8.06,3.76,14.37,10,19.27a29.66,29.66,0,0,0,12.55,6.06,25,25,0,0,0,15.66-2.13,1,1,0,0,1,.94-0.24,17.45,17.45,0,0,1-8.28,7,23.49,23.49,0,0,1-12.73,1.07c-11.36-1.84-18.23-8.86-21.61-19.49-1.93-6.07-.3-11.65,3.37-16.71a1.25,1.25,0,0,1,.19-0.21A1.58,1.58,0,0,1,1004.13,59.39Z" transform="translate(-921.33 -59.39)"/><path class="cls-1" d="M1050.27,189.24l8.49-12.32a2.83,2.83,0,0,0,.33-0.47c0.89-2.14,2.5-2.73,4.72-2.47a43.77,43.77,0,0,0,5,0,36.54,36.54,0,0,1-2.76,4.37c-2.94,4.15-6.32,7.95-9.3,12.07a40.69,40.69,0,0,0-6,11.16,0.71,0.71,0,0,1-.78.63c-2,0-4.09,0-6.14,0-0.43,0-.69,0-0.41-0.56,1.52-3,1.2-6.12.31-9.23-0.58-2.05-1.27-4.07-1.76-6.16-0.18-.77,0-1,0.8-1,1.88,0.06,3.77,0,5.66,0a0.74,0.74,0,0,1,.87.64C1049.55,187,1049.89,188,1050.27,189.24Z" transform="translate(-921.33 -59.39)"/><path class="cls-1" d="M1037.23,177.6c1.72,0.1,4.47-.17,7.21.13,2.24,0.25,3.25,1.19,3.76,3.42,0.58,2.56.58,2.56-2,2.56-3.9,0-7.8,0-11.69,0a0.87,0.87,0,0,0-1,.85c-1.15,5.49-2.35,11-3.47,16.46-0.19.94-.45,1.42-1.56,1.32-1.55-.13-3.13,0-4.69,0-0.51,0-.74,0-0.61-0.67q2.51-11.68,5-23.38a0.73,0.73,0,0,1,.91-0.66C1031.41,177.61,1033.81,177.6,1037.23,177.6Z" transform="translate(-921.33 -59.39)"/><path class="cls-1" d="M936,183.36c-1,0-2,0-3,0-0.4,0-.56,0-0.44-0.53,0.39-1.54.72-3.1,1.06-4.66a0.62,0.62,0,0,1,.74-0.54c1.91,0,3.83,0,5.74,0,0.64,0,.66.27,0.55,0.75-0.32,1.46-.65,2.92-0.94,4.39a0.63,0.63,0,0,1-.79.59C938,183.34,937,183.36,936,183.36Z" transform="translate(-921.33 -59.39)"/><path class="cls-1" d="M971.36,185.64c1-4.3.33-8.19-2.82-11.43a11.8,11.8,0,0,0-8.3-3.41c-5.83-.25-10.76,1.66-14.22,6.53a23.91,23.91,0,0,0-4.3,16.77,8.66,8.66,0,0,0,8,8.05,86.61,86.61,0,0,0,10.15.17c3.13,0,6.26,0,9.39,0a0.7,0.7,0,0,0,.86-0.62q0.52-2.33,1.13-4.65c0.16-.62.12-0.94-0.64-0.88-0.6,0-1.21-.07-1.82-0.06s-0.75-.23-0.52-0.84A81.57,81.57,0,0,0,971.36,185.64Zm-7.07-1.95c-0.8,4-2,7.89-3.08,11.83a0.61,0.61,0,0,1-.75.5c-1.09,0-2.17,0-3.47,0a21.85,21.85,0,0,1-4.27-.22,4.15,4.15,0,0,1-3.48-4.73,36.3,36.3,0,0,1,2.23-9.26c1.69-4.46,6.83-5.25,10-3.84A5.18,5.18,0,0,1,964.29,183.7Z" transform="translate(-921.33 -59.39)"/><path class="cls-1" d="M1018,177.74a14.56,14.56,0,0,0-9.95.21,11.42,11.42,0,0,0-7.66,7.55,45.65,45.65,0,0,0-2,9.52c-0.37,3.65,1.47,6.23,4.91,7a14.41,14.41,0,0,0,2.09.26c4.37,0.35,8.75,0,13.12,0a0.64,0.64,0,0,0,.75-0.63c0.3-1.47.61-2.94,1-4.39,0.16-.65,0-0.87-0.69-0.86q-3.88,0-7.76-.08a35,35,0,0,1-4.29-.31c-1.6-.24-2.18-1.26-1.92-2.83a0.87,0.87,0,0,1,1.06-.86c2.37,0,4.73,0,7.1,0s4.8,0,7.19,0a0.7,0.7,0,0,0,.87-0.7c0.34-2.17.85-4.31,1-6.52A6.77,6.77,0,0,0,1018,177.74Zm-2.37,8.86a0.43,0.43,0,0,1-.53.38h-8.31a5.23,5.23,0,0,1,7.4-3.42A2.7,2.7,0,0,1,1015.65,186.6Z" transform="translate(-921.33 -59.39)"/></g></svg>