<svg id="Layer_1" data-name="Layer 1" xmlns="http://www.w3.org/2000/svg" viewBox="0 0 114.08 117.92"><defs><style>.cls-1{fill:#e27769;}.cls-2{fill:#da503e;}.cls-3{fill:#9e9e9e;}</style></defs><title>laravel</title><g id="uSBXTO.tif"><path class="cls-1" d="M417.07,106.47a0.21,0.21,0,0,1-.32,0h0.32Z" transform="translate(-392 -106)"/><path class="cls-2" d="M505.85,143.15c-0.2-.29-0.44-0.54-0.66-0.81l-12.11-15a10.19,10.19,0,0,0-1.67-1.77,2.47,2.47,0,0,0-2-.55l-6.22,1-9.74,1.63a6,6,0,0,0-1.92.51,1,1,0,0,0-.45,1.46,3,3,0,0,0,.22.35l11.16,15.81c0.24,0.34.24,0.34-.15,0.43l-8.62,2.06-25.13,6a0.36,0.36,0,0,1-.47-0.2q-1.8-3-3.62-6.06l-16.06-26.84c-2.48-4.14-4.94-8.52-7.43-12.65a8.23,8.23,0,0,0-2.51-2.54h-1.46q-0.16,1.5-.32,0h-0.44c-0.4,1-.79.29-1.19,0.3-0.69,0-1.37.18-2.05,0.23-0.93.08-1.87,0.21-2.81,0.28-1.2.09-2.4,0.21-3.59,0.31l-3.66.31-3.4.29-3.5.3c-0.76.07-1.63,0.1-2.38,0.21-0.93.13-1.73,0.55-1.73,1.35v1.14a4.71,4.71,0,0,0,.7,1.65c1.75,3.82,3.54,7.66,5.31,11.48q7.53,16.3,15.09,32.59l3.22,7a4.47,4.47,0,0,0,3.32,2.72,7.09,7.09,0,0,0,3.07-.26c7.67-1.92,15.32-3.94,23-5.94a0.35,0.35,0,0,1,.51.22,1.28,1.28,0,0,0,.09.17c3.68,6.64,7.33,13.29,11.17,19.83a21,21,0,0,0,2,3,3.25,3.25,0,0,0,3.33,1.2,17.06,17.06,0,0,0,2-.55c3.5-1.15,7-2.41,10.42-3.65,8.74-3.12,17.48-6.24,26.19-9.44a9.19,9.19,0,0,0,1.84-.83,1,1,0,0,0,.43-1.47,5.44,5.44,0,0,0-.62-1c-4.47-6.1-9-12.14-13.53-18.21-0.23-.31-0.23-0.31.12-0.4L504,145a6.75,6.75,0,0,0,1.47-.47A0.84,0.84,0,0,0,505.85,143.15Zm-63.22,12.61q-10.24,2.42-20.47,4.87c-0.86.2-.86,0.2-1.23-0.57q-4.25-8.79-8.49-17.57l-10.53-21.72-4.11-8.45a1.6,1.6,0,0,1-.08-0.17c-0.28-.82-0.12-0.81.53-0.86l6.43-.56,6.06-.53,5.52-.48,0.46,0c0.45-.15.6,0.25,0.81,0.61l7.32,12.63,18.31,31.61C443.65,155.38,443.48,155.57,442.64,155.76Zm54.55,9.84a7.28,7.28,0,0,1,.4.61,0.39,0.39,0,0,1-.18.65,8.83,8.83,0,0,1-1.39.52l-17.64,6-14.31,4.87a2.88,2.88,0,0,1-.88.27,1.23,1.23,0,0,1-.95-0.49,6.9,6.9,0,0,1-.8-1.17c-3.56-6-7-12-10.52-18-0.15-.26,0-0.28.17-0.33l15.49-4,17.72-4.62,0.48-.15a0.81,0.81,0,0,1,1.11.38c0.87,1.21,1.73,2.42,2.61,3.63Zm2.95-23.76c-1,.28-1.94.51-2.91,0.75l-10.41,2.57a0.45,0.45,0,0,1-.57-0.21q-4.89-6.73-9.79-13.44a3.73,3.73,0,0,1-.26-0.4c-0.18-.33-0.11-0.49.26-0.56,0.69-.13,1.39-0.24,2.09-0.37l9.34-1.68,1.86-.35a1.27,1.27,0,0,1,1,.58l3.1,4,6.53,8.29C500.75,141.46,500.71,141.67,500.14,141.84Z" transform="translate(-392 -106)"/></g><g id="Mf8wcM.tif"><path class="cls-3" d="M474,223.92c-2.4-5.37-4.58-10.22-6.73-15.09-0.22-.49-1-1.19-0.18-1.58a1.36,1.36,0,0,1,2,.81c1.13,2.75,2.38,5.46,3.58,8.18L474,219.1c1.46-3.27,2.74-6.29,4.16-9.24,0.53-1.1.57-3.44,2.41-2.56,1.54,0.74-.24,2.21-0.65,3.22C478.11,214.86,476.13,219.12,474,223.92Z" transform="translate(-392 -106)"/><path class="cls-3" d="M413.92,212.06c0,3.18,0,6.37,0,9.55,0,0.83,0,1.51-1.17,1.46s-0.93-.81-0.93-1.47q0-9.65,0-19.31c0-.73,0-1.36,1-1.36s1.06,0.61,1.06,1.36C413.92,205.56,413.92,208.81,413.92,212.06Z" transform="translate(-392 -106)"/><path class="cls-3" d="M506.07,212.14c0,3.11,0,6.23,0,9.34,0,0.73.2,1.57-1,1.59s-1.06-.81-1.06-1.55q0-9.55,0-19.1c0-.64-0.24-1.43.9-1.48s1.2,0.58,1.19,1.44C506.06,205.64,506.07,208.89,506.07,212.14Z" transform="translate(-392 -106)"/><path class="cls-3" d="M440.38,208.82c1.05-1.32,2.05-2.42,3.74-2.06,0.43,0.09,1.11,0,1,.7a1.25,1.25,0,0,1-.93,1.25c-3.4.09-3.72,2.64-3.93,5s-0.08,5.13-.12,7.7c0,0.72.24,1.58-1,1.62s-1.16-.88-1.16-1.69c0-4.17,0-8.33,0-12.5,0-.67-0.37-1.57.87-1.76S440.17,207.8,440.38,208.82Z" transform="translate(-392 -106)"/><path class="cls-3" d="M487.62,215.17c3.61,0.12,7.23-.07,10.83.08,1.91,0.08,2-.66,1.67-2.19-1.08-4.45-4.64-6.87-9.36-6.29-3.92.49-6.81,4.07-6.79,8.43a8.09,8.09,0,0,0,5.79,8,8.25,8.25,0,0,0,9.33-3.31c0.3-.46,1-1,0-1.51a1,1,0,0,0-1.56.29,4.92,4.92,0,0,1-.76,1,6.26,6.26,0,0,1-6.29,1.78,5.82,5.82,0,0,1-4.27-4.41C485.87,215.8,486,215.12,487.62,215.17Zm-1.08-2.69a5.72,5.72,0,0,1,5.37-3.88,6,6,0,0,1,5.8,3.6c0.3,0.9.1,1.3-.89,1.28-1.59,0-3.19,0-4.78,0s-3.19,0-4.78,0C486.45,213.5,486.34,213.2,486.53,212.49Z" transform="translate(-392 -106)"/><path class="cls-3" d="M433.73,208.12a0.86,0.86,0,0,0-1-1,0.76,0.76,0,0,0-.84.91c0,0.41,0,.83,0,1.49-4.79-3.53-8.7-3.72-11.94-.72a8.52,8.52,0,0,0-1.36,10.82,8.21,8.21,0,0,0,6.31,3.89c2.73,0.28,4.82-1.15,7-3,0,0.81,0,1.15,0,1.49a0.84,0.84,0,0,0,.9,1.07,0.86,0.86,0,0,0,1-1Q433.72,215.08,433.73,208.12Zm-8.17,13.57a6.47,6.47,0,0,1-6.21-6.53,6.29,6.29,0,1,1,12.58-.06A6.42,6.42,0,0,1,425.55,221.69Z" transform="translate(-392 -106)"/><path class="cls-3" d="M463.33,208.14a0.86,0.86,0,0,0-1-1,0.76,0.76,0,0,0-.86.89c0,0.45,0,.9,0,1.49-5-3.54-8.88-3.68-12.08-.57A8.55,8.55,0,0,0,453,223.27c3.3,1,5.85-.54,8.43-2.71,0,0.78,0,1.2,0,1.61a0.77,0.77,0,0,0,.87.88,0.85,0.85,0,0,0,1-1Q463.33,215.1,463.33,208.14Zm-8.06,13.55a6.47,6.47,0,0,1-6.33-6.62,6.29,6.29,0,1,1,12.58.11A6.41,6.41,0,0,1,455.28,221.69Z" transform="translate(-392 -106)"/></g></svg>