<svg id="Layer_1" data-name="Layer 1" xmlns="http://www.w3.org/2000/svg" viewBox="0 0 162.43 84.66"><defs><style>.cls-1{fill:#376186;}.cls-2{fill:#ce8c21;}.cls-3{fill:#376187;}.cls-4{fill:#486e91;}</style></defs><title>mysql</title><g id="xJnuuB.tif"><path class="cls-1" d="M658.35,168.36c0-1.07,0-2.13,0-3.2,0-.52.37-0.37,0.63-0.37h16.15a4.84,4.84,0,0,0,2.28-.54,1.72,1.72,0,0,0,1-1.71c0-.59.24-1.36-0.11-1.74s-1.13-.12-1.72-0.12c-3.18,0-6.37,0-9.55,0a12.4,12.4,0,0,1-6.23-1.43,4.55,4.55,0,0,1-2.61-4.4c0.11-3.61,0-7.22,0-10.83,0-.42.1-0.54,0.52-0.54,1.43,0,2.86,0,4.29,0,0.46,0,.57.14,0.57,0.58,0,3.67,0,7.35,0,11a1.93,1.93,0,0,0,1.65,2.16,6.23,6.23,0,0,0,1.71.21c3.63,0,7.26,0,10.9,0,0.53,0,.62-0.17.62-0.65,0-4.23,0-8.46,0-12.69,0-.58.17-0.71,0.72-0.69,1.39,0,2.78,0,4.17,0a0.44,0.44,0,0,1,.54.54c0,6.2,0,12.39,0,18.59,0,2.37-1.34,3.82-3.38,4.75a11.83,11.83,0,0,1-3.18.92,0.2,0.2,0,0,0-.2.12H658.35Z" transform="translate(-616.34 -83.7)"/><path class="cls-1" d="M634.91,156.89l6-13.45c0.64-1.44,1.34-2.86,1.92-4.33,1.24-3.17,3.75-4.1,6.87-3.53a11.51,11.51,0,0,1,1.36.34,3.24,3.24,0,0,1,2.65,3.57c0,2,0,4.06,0,6.09,0,4.85,0,9.7,0,14.55,0,0.64-.19.78-0.79,0.76-1.28,0-2.56,0-3.84,0-0.6,0-.79-0.12-0.78-0.76,0-6.56,0-13.12,0-19.68v-0.69a0.78,0.78,0,0,0-.37.55c-2.6,5.8-5.24,11.58-7.78,17.4-1.26,2.88-2.7,3.68-6.16,3.42a4.41,4.41,0,0,1-3.88-2.89q-4-9-8-17.92a1.38,1.38,0,0,0-.37-0.53v0.66c0,6.56,0,13.12,0,19.68,0,0.63-.18.78-0.79,0.76-1.37,0-2.73,0-4.1,0a0.42,0.42,0,0,1-.52-0.5c0-7,0-14,0-21,0-2,.76-2.91,2.71-3.52a11.17,11.17,0,0,1,2.45-.47,5.15,5.15,0,0,1,5.55,3.33q2.58,6,5.14,11.92l2.41,5.58C634.69,156.43,634.78,156.6,634.91,156.89Z" transform="translate(-616.34 -83.7)"/><path class="cls-1" d="M743.59,130.55c-1.45-1.35-3.06-2.52-4.43-4a16.44,16.44,0,0,1-3-4.63c-0.2-.44-0.43-0.86-0.72-1.43a32.38,32.38,0,0,0-.63,3.54,7.65,7.65,0,0,1-.21,1.07,2.41,2.41,0,0,1-3.94,1.31,7.83,7.83,0,0,1-2.26-3,17.18,17.18,0,0,1-1.48-9,27.81,27.81,0,0,1,1.61-7,0.74,0.74,0,0,0-.23-0.81,16.62,16.62,0,0,1-3.47-6.28,37.1,37.1,0,0,1-1.36-4.13,7.08,7.08,0,0,0-1.35-2.46c-0.79-1.07-1.6-2.11-2.39-3.17a7,7,0,0,1-1.37-2.79,3.36,3.36,0,0,1,3.51-4.17,13.11,13.11,0,0,1,6,2.11,5.39,5.39,0,0,1,1.22.81,3.83,3.83,0,0,0,2.84,1.18A17.63,17.63,0,0,1,741.29,91a42.1,42.1,0,0,1,13.55,13.92,15.5,15.5,0,0,1,1.2,2.47c1.52,4,3.5,7.82,5.35,11.68a3.23,3.23,0,0,0,2,1.76,35.11,35.11,0,0,1,10.46,6.45,19.22,19.22,0,0,1,2.86,3.09c0.29,0.38.23,0.59-.25,0.72a16.91,16.91,0,0,1-3.43.74,38.86,38.86,0,0,0-5,1,2.63,2.63,0,0,0,.86,1.22,16.16,16.16,0,0,0,2.76,1.86,19,19,0,0,1,4.89,4.19,12.9,12.9,0,0,0,1.39,1.51,3.13,3.13,0,0,1,.87,1.75l-1.55-1.29a27.61,27.61,0,0,0-5.81-3.46,11.15,11.15,0,0,1-6.85-6.4c-0.24-.47.15-0.69,0.48-0.81a20,20,0,0,1,5.75-1.43c1.09-.06,2.17-0.11,3.3-0.09a1.54,1.54,0,0,0-.81-1c-2.06-1.41-4.09-2.87-6.22-4.16a16.67,16.67,0,0,0-4.54-1.69,5,5,0,0,1-3.46-2.85c-1.78-3.78-3.66-7.51-5.22-11.39A30.57,30.57,0,0,0,749,100.9a34.18,34.18,0,0,0-12.55-9.8,10.9,10.9,0,0,0-4.26-1c-0.83,0-1.66-.12-2.49-0.17a2,2,0,0,1-1.17-.61,17.89,17.89,0,0,0-5.69-3.12,4.44,4.44,0,0,0-1.18-.27,1.26,1.26,0,0,0-1.44,1.69,6.12,6.12,0,0,0,1.06,2c0.29,0.39.59,0.79,0.91,1.16,2.29,2.6,3.44,5.75,4.4,9a12.52,12.52,0,0,0,3.24,5.8,2.18,2.18,0,0,1,.53,2.31c-0.25.91-.62,1.77-0.9,2.67a17,17,0,0,0,.84,12.71,2.77,2.77,0,0,0,1.23,1.35c0.43,0.22.64,0.16,0.69-.39a41.5,41.5,0,0,1,.62-4.44,9.23,9.23,0,0,1,2.28-3.95c0.35-.42.44,0.08,0.49,0.24a18.22,18.22,0,0,0,.72,2,49.46,49.46,0,0,0,7.44,12.34C743.79,130.52,743.74,130.58,743.59,130.55Z" transform="translate(-616.34 -83.7)"/><path class="cls-2" d="M703.55,135.92c2.65,0,5.3,0,7.95,0,0.52,0,.65.15,0.63,0.64a23.52,23.52,0,0,0,0,2.37c0,0.48-.13.6-0.6,0.6-4.76,0-9.53,0-14.29,0a10.15,10.15,0,0,0-2.35.26,1.63,1.63,0,0,0-1.43,1.71c0,0.87,0,1.75,0,2.63a2.33,2.33,0,0,0,2.16,2.44,10.85,10.85,0,0,0,1.59.12c2.22,0,4.44,0,6.66,0a11.43,11.43,0,0,1,5.92,1.61,4,4,0,0,1,2.16,3.85c-0.06,1,0,2,0,2.95a4.4,4.4,0,0,1-2.08,3.94,11,11,0,0,1-6.29,1.84c-5,0-10,0-15,0-0.5,0-.62-0.15-0.59-0.62a21.87,21.87,0,0,0,0-2.37c0-.55.17-0.67,0.68-0.67,4.61,0,9.23,0,13.84,0a7.86,7.86,0,0,0,2-.18,2.34,2.34,0,0,0,2-2.54q0-1,0-2.05a2.06,2.06,0,0,0-1.64-2.2,9.34,9.34,0,0,0-2.59-.34c-2.2,0-4.4,0-6.6-.07a10.42,10.42,0,0,1-5.92-2,3.82,3.82,0,0,1-1.67-3.35c0-1.09,0-2.18,0-3.27a4.53,4.53,0,0,1,2.39-4,10.42,10.42,0,0,1,5.33-1.37c2.58,0,5.17,0,7.75,0v0Z" transform="translate(-616.34 -83.7)"/><path class="cls-2" d="M745.53,145.71c0-3.08,0-6.15,0-9.23,0-.45.12-0.58,0.57-0.57,1.37,0,2.74,0,4.1,0,0.56,0,.75.11,0.74,0.72,0,5.77,0,11.54,0,17.31,0,0.19,0,.38,0,0.58a2.32,2.32,0,0,0,2,2.54,9.8,9.8,0,0,0,2.29.2c4.49,0,9,0,13.46,0,0.56,0,.75.12,0.71,0.7a16.45,16.45,0,0,0,0,2.24c0,0.55-.11.72-0.69,0.72-4.27,0-8.55,0-12.82,0a20.89,20.89,0,0,1-5.33-.6,9.07,9.07,0,0,1-2.48-1,5.09,5.09,0,0,1-2.55-4.59c0-3,0-6,0-9h0Z" transform="translate(-616.34 -83.7)"/><path class="cls-3" d="M730.35,94.18a2.2,2.2,0,0,1,2.65.51,2,2,0,0,1,.47,2.23,2.3,2.3,0,0,1-.24.45c-0.4.57-.55,0.57-0.79-0.06A11.73,11.73,0,0,0,730.35,94.18Z" transform="translate(-616.34 -83.7)"/><path class="cls-4" d="M743.59,130.55l0.16-.17,1.56,1.42A3.44,3.44,0,0,1,743.59,130.55Z" transform="translate(-616.34 -83.7)"/><path class="cls-2" d="M739,159.81a3.33,3.33,0,0,1,.3-0.18,4.47,4.47,0,0,0,2.82-4.34q0-6.63,0-13.26c0-2.71-1.46-4.35-3.91-5.25a13.52,13.52,0,0,0-4.64-.82c-3.25,0-6.49,0-9.74,0a12.45,12.45,0,0,0-5.34,1.13,5,5,0,0,0-3.13,4.73q0,6.6,0,13.2a5,5,0,0,0,2.92,4.67,10.07,10.07,0,0,0,4.28,1.2,83.56,83.56,0,0,0,10.63-.18,0.94,0.94,0,0,1,.8.26c1.19,1.1,2.41,2.17,3.6,3.28a1.22,1.22,0,0,0,.91.35c1.67,0,3.33,0,5,0a0.68,0.68,0,0,0,.59-0.12Zm-2.26-3.91c-0.63,1-.94,1-1.77.26l-2.84-2.59a0.93,0.93,0,0,0-.67-0.32H725.5l4.34,3.95a0.3,0.3,0,0,1-.07.11,40.61,40.61,0,0,1-6.09-.12A2.92,2.92,0,0,1,721,154V143c0-2.18,1.07-3.25,3.27-3.37,1.34-.07,2.73,0,4.08,0,1.84,0,3.69,0,5.53,0a3.84,3.84,0,0,1,2.17.69,2.23,2.23,0,0,1,1,1.89q0,6.21,0,12.43A2.3,2.3,0,0,1,736.72,155.9Z" transform="translate(-616.34 -83.7)"/></g></svg>