<svg id="Layer_1" data-name="Layer 1" xmlns="http://www.w3.org/2000/svg" viewBox="0 0 127.36 123.94"><defs><style>.cls-1{fill:#75c3ed;}.cls-2{fill:#131128;}.cls-3{fill:#2c2d43;}.cls-4{fill:#15132a;}.cls-5{fill:#16142c;}.cls-6{fill:#17162c;}.cls-7{fill:#18162e;}.cls-8{fill:#28283e;}.cls-9{fill:#1e1d34;}.cls-10{fill:#1c1a31;}.cls-11{fill:#1a1930;}.cls-12{fill:#19182f;}.cls-13{fill:#232239;}.cls-14{fill:#202036;}.cls-15{fill:#26263c;}.cls-16{fill:#1d1c32;}.cls-17{fill:#25243b;}.cls-18{fill:#2e2f45;}.cls-19{fill:#2a2a40;}.cls-20{fill:#1f1d34;}.cls-21{fill:#1d1c33;}.cls-22{fill:#19172e;}.cls-23{fill:#2b2b41;}.cls-24{fill:#1b1930;}.cls-25{fill:#201f36;}.cls-26{fill:#27263d;}.cls-27{fill:#222138;}.cls-28{fill:#24233a;}.cls-29{fill:#74c3ed;}.cls-30{fill:#28273e;}.cls-31{fill:#201f35;}.cls-32{fill:#303147;}.cls-33{fill:#323349;}.cls-34{fill:#2d2e44;}.cls-35{fill:#2f3045;}.cls-36{fill:#313248;}.cls-37{fill:#35374d;}.cls-38{fill:#33334a;}.cls-39{fill:#34354b;}.cls-40{fill:#212137;}.cls-41{fill:#1f1e35;}.cls-42{fill:#23233a;}</style></defs><title>photoshop</title><g id="OZuIqf.tif"><path class="cls-1" d="M129.84,634q0-51.34-.07-102.68c0-7.06.1-14.12,0.15-21.18q62.13,0,124.27-.06c1.94,0,2.94.28,2.94,2.61Q257,573.37,257,634Z" transform="translate(-129.77 -510.09)"/><path class="cls-2" d="M251.71,577.29q0.05,24.94.13,49.87c0,1.54-.45,2.24-2,2.06a15,15,0,0,0-1.63,0q-54.77,0-109.54.07c-3,0-4-.73-3.72-3.74,0.29-3.23.13-6.51,0.17-9.77,1.72-1,3.16.1,4.59,0.69a85,85,0,0,0,36.55,6.85c21.74-1,40.85-8.54,56.79-23.62a86.23,86.23,0,0,0,15.26-19.4C249.07,579,249.59,577.17,251.71,577.29Z" transform="translate(-129.77 -510.09)"/><path class="cls-3" d="M135.21,515.93c0.82-.81,1.86-0.42,2.79-0.42q55.44-.05,110.88,0c0.92,0,2-.43,2.75.47-2.3,1.67-4.92.75-7.41,0.91-1.33.07-2.65,0-4,0-0.93,0-1.86.05-2.79,0-1.11.06-2.23,0-3.34,0-1.5.08-3,.05-4.49,0s-3,.06-4.51,0-3,.07-4.5,0c-1.3,0-2.6,0-3.89,0-0.92,0-1.84,0-2.76,0-1.1.08-2.21,0-3.31,0-1.3.06-2.59,0-3.89,0s-2.61,0-3.91,0c-1.84.09-3.69,0-5.53,0-3.27-.23-6.64.52-9.37-0.4,4.83,3,9.4,7.16,12,13.16,3.78,8.73,3.66,17.23-1.24,25.51a29.94,29.94,0,0,0-1.7,3.5c-0.27.63-.53,1.57-1.6,0.88-1.17-3.16-.66-6.52-1.15-9.76,1.21-3.95,2.33-7.81,1.45-12.11a22.86,22.86,0,0,0-24-18.15C160.43,520.37,151,529.78,151,541c0,6.47,2.38,12.35,7.84,16.49a6.67,6.67,0,0,1,2,1.67,4,4,0,0,1,0,3.59c-1.71,1.58-3,.21-4.29-0.69-13-9.2-14.11-28.38-2.38-39.63a30,30,0,0,1,8-5.44,43.94,43.94,0,0,0-5.57-.12c-2.44.07-4.87,0.14-7.3,0-2,0-3.92.14-5.88,0C140.68,516.66,137.78,517.72,135.21,515.93Z" transform="translate(-129.77 -510.09)"/><path class="cls-4" d="M251.71,577.29c-2,1.17-2.65,3.41-3.75,5.22-13.47,22.14-33.27,35.25-58.37,40.29-17.3,3.48-34.23,1.24-50.51-5.62-1.29-.54-2.65-0.93-4-1.39v-3.92c1.51-1,2.72.15,3.94,0.68,11.3,5,23.13,7.81,35.45,7.49,19.61-.51,37.24-6.72,52.46-19.43A81,81,0,0,0,248.56,572c0.65-1.4.94-3.27,3.14-3.19Q251.71,573,251.71,577.29Z" transform="translate(-129.77 -510.09)"/><path class="cls-5" d="M251.71,568.8a5.13,5.13,0,0,0-1.94,2.48C238,597.3,218,613,190.24,619.09c-18.68,4.07-36.45,1.22-53.61-6.72a13.83,13.83,0,0,0-1.53-.51v-3.24c1.5-.6,2.78.15,4,0.77a78.4,78.4,0,0,0,65.05,1.74A76.38,76.38,0,0,0,248.5,564c0.56-1.7.55-4.07,3.2-4.33v9.14Z" transform="translate(-129.77 -510.09)"/><path class="cls-6" d="M251.71,559.66c-2.79,2.73-2.86,6.67-4.36,10A84.71,84.71,0,0,1,233.95,591c-13.57,15.46-30.87,23.7-50.86,26.6-14.34,2.08-28.15-.63-41.49-6-2.2-.89-4.34-2-6.5-2.95v-2c1.63-.63,3,0.24,4.3.93a71.31,71.31,0,0,0,32.3,7.83c19.77,0.25,37.49-5.81,52.73-18.78,13.55-11.53,21.44-26.19,25.07-43.4a5.4,5.4,0,0,0-.86-4.28c-0.51-1.49-.12-3,0-4.44,0.45-4.08.38-8.11-1.41-11.94a140.19,140.19,0,0,0-3.37-13.75c-0.29-.89-0.66-1.86.09-2.75l7.62-.13Z" transform="translate(-129.77 -510.09)"/><path class="cls-7" d="M247.9,532.24c2.48,3.9,2.16,8.24,1.73,12.5-0.15,1.48-.4,3-0.43,4.47,1.15,1.92.24,3.85-.14,5.69-6.62,32-32.36,54.86-63.5,59.64-17.55,2.69-34.06-.39-49.72-8.56a3.37,3.37,0,0,1-.74-0.63v-3.24c1.66-.5,2.94.51,4.26,1.17,18.26,9.09,37.24,10.14,56.63,4.68,7.53-2.12,14.65-5.4,20.61-10.72a19.59,19.59,0,0,0,10.37-8.9c4.51-3.11,7.38-7.61,10-12.22,6.36-11.23,10.07-23.2,9.4-36.28a33.28,33.28,0,0,1,.06-5.19C246.52,533.66,246.26,532.32,247.9,532.24Z" transform="translate(-129.77 -510.09)"/><path class="cls-8" d="M143.45,516h5.88c0.88,1.72-.6,2.56-1.42,3.57-4.73,5.8-7.86,12.29-8.1,19.86-0.42,13.71,5.74,23.72,17.57,30.41,1.22,0.69,2.63,1.08,3.48,2.33a5.15,5.15,0,0,1,.05,4.08c-1.81,1.76-3.5.32-5-.41a38.19,38.19,0,0,1-20.8-24V530.26C137,525,139.28,520,143.45,516Z" transform="translate(-129.77 -510.09)"/><path class="cls-9" d="M135.1,589.67v-6.52a1.77,1.77,0,0,1,2.38.13c6.94,5.28,14.78,8.73,23,11.33,0.46,0.44.78,1,1.23,1.45,2.85,1.11,5.77.47,8.66,0.31A62.2,62.2,0,0,0,195.92,592c1.65-.64,3.25-1.93,5.23-1a4.81,4.81,0,0,1,.23,4.39,4.39,4.39,0,0,1-2.48,2c-22,8.46-42.91,6.45-62.64-6.64A7,7,0,0,1,135.1,589.67Z" transform="translate(-129.77 -510.09)"/><path class="cls-6" d="M135.1,605.34c4.58,1,8.48,3.79,12.94,5.15A88,88,0,0,0,170,614.55c18.44,0.78,35.13-4.11,49.83-15.14,15.74-11.81,25.56-27.46,28.79-47,0.18-1.06.42-2.12,0.63-3.17,1.46,0.62,1.66,1.64,1.34,3.15-2.92,13.88-8.26,26.48-17.83,37.3-13,14.7-29.28,23.13-48.37,25.92a75.53,75.53,0,0,1-44.2-6.69c-1.66-.79-3.36-1.49-5-2.24v-1.32Z" transform="translate(-129.77 -510.09)"/><path class="cls-10" d="M135.1,596.85v-3.26c1.1-.81,2.11-0.22,3,0.32A68.26,68.26,0,0,0,171.26,604a66,66,0,0,0,30.43-6.26c0.69-.32,1.21-0.92,1.9-1.25,2.16-.14,4.42-0.62,6,1.6-1.81,2.35-4.5,3.34-7.06,4.5a68.22,68.22,0,0,1-27.19,6.17,70,70,0,0,1-38.54-10.31A6.44,6.44,0,0,1,135.1,596.85Z" transform="translate(-129.77 -510.09)"/><path class="cls-11" d="M135.1,596.85c3.71,1,6.63,3.53,10.16,4.95a81.09,81.09,0,0,0,22.81,5.6c13.08,1.24,25.22-1.63,37-7,1.54-.71,2.56-2.45,4.52-2.3a2.37,2.37,0,0,1,3.14,0c0.3,2-1.26,2.63-2.52,3.37a69.06,69.06,0,0,1-29.93,9.36c-15,1.19-29.24-1.45-42.47-8.84a8.59,8.59,0,0,1-2.68-1.81v-3.26Z" transform="translate(-129.77 -510.09)"/><path class="cls-12" d="M135.1,600.11c4.46,0.82,8.05,3.65,12.2,5.25,11.72,4.51,23.75,5.43,36.1,4a68.53,68.53,0,0,0,26.6-8.88,5.81,5.81,0,0,0,2.66-2.3c1.37-1.35,2.84-2,4.57-.59-7.64,7.31-17.2,10.84-27.21,12.84-19.22,3.83-37.68,1.47-54.92-8.35v-2Z" transform="translate(-129.77 -510.09)"/><path class="cls-13" d="M135.1,576.62v-8.47c1.44-.29,2.21.78,3,1.61a48.4,48.4,0,0,0,21,13.73,2.77,2.77,0,0,1,1.81,1.29,6.31,6.31,0,0,1,0,4.61c-1,1.32-2.29,1-3.55.66A49.65,49.65,0,0,1,135.1,576.62Z" transform="translate(-129.77 -510.09)"/><path class="cls-14" d="M135.1,576.62c4.21,1.84,7.12,5.51,11.1,7.72,4.47,2.49,9,4.7,14.14,5.33a3.66,3.66,0,0,1,0,5.22c-8.17-1.38-15.21-5.28-21.86-10a7.87,7.87,0,0,0-3.37-1.79v-6.53Z" transform="translate(-129.77 -510.09)"/><path class="cls-15" d="M135.1,551.83c1.14,0.65,1.4,1.84,1.87,2.94,4.57,10.72,12.14,18.24,23.37,21.85,1.16,1,1,2.22.62,3.48-1.28,1.71-2.81.67-4.11,0.19-8.87-3.26-15.47-9.33-20.7-17a15,15,0,0,0-1-1.64v-9.77Z" transform="translate(-129.77 -510.09)"/><path class="cls-16" d="M135.1,589.67c1.2-.18,2,0.56,2.92,1.18,12.79,8.78,27.14,11.57,42.3,10.47a58.48,58.48,0,0,0,20.48-5.78c1,0.08,2.32-.23,2,1.56-5.52,3.47-11.75,5.12-18,6.16-16.9,2.81-32.71-.5-47.29-9.56-0.92-.57-2-0.94-2.41-2.06v-2Z" transform="translate(-129.77 -510.09)"/><path class="cls-17" d="M135.1,561.61c2.89,1.06,3.67,4.09,5.48,6.12,5.47,6.12,11.76,10.72,19.76,12.81a2.55,2.55,0,0,1,0,3.92c-7.44-1.54-13.57-5.49-19.13-10.45-2.1-1.88-4.08-3.89-6.11-5.85v-6.55Z" transform="translate(-129.77 -510.09)"/><path class="cls-16" d="M135.1,591.64c7.4,4.33,15,8.17,23.44,10.13a65.43,65.43,0,0,0,41.81-4c0.89-.38,1.81-0.69,2.72-1l0.28-.09,0.18,0.23c-0.64,2.14-2.74,2.34-4.33,3a65,65,0,0,1-25.5,5.24,67.44,67.44,0,0,1-34.25-9.44,14.29,14.29,0,0,0-4.35-2.1v-1.94Z" transform="translate(-129.77 -510.09)"/><path class="cls-15" d="M143.45,516l-8.36,14.22a126.16,126.16,0,0,1,.11-14.33Z" transform="translate(-129.77 -510.09)"/><path class="cls-1" d="M160.33,584.45V572c-1.15-1.58-.85-3.39-0.84-5.16,0-1.39-.12-2.79.83-4V559c-1.17-1.62-.87-3.46-0.84-5.27,0-2.62-.16-5.24,0-7.86,0.5-2.54-1.1-5.5,1.51-7.62,6.29-.86,12.61-0.51,18.91-0.45a26.34,26.34,0,0,1,7.74,2.21,19.55,19.55,0,0,1,5.17,4.37c1,1.55,2.15,3.07,2.13,5.06a40.93,40.93,0,0,1,.9,10.19c1.13,4-1.33,6.86-3.12,9.95-4.38,5.12-10.11,7.22-16.67,7.38-5.5.13-5.51,0.11-5.54,5.73,0,3.79,0,7.58,0,11.36,0,2.25-.83,3.47-3.32,3.16-2.22-.28-4.51.39-6.7-0.4l-0.12-1.89V584.45Z" transform="translate(-129.77 -510.09)"/><path class="cls-18" d="M194.92,549.43l-2.55-4.66a8.35,8.35,0,0,1-.84-4.1c-0.13-7.47-4-12.55-10.58-15.45-7-3.08-13.69-2.14-19.41,3-7.44,6.69-8.26,15-2.6,23.36a19,19,0,0,0,1.39,2.2V559c-2.89-.65-4.56-2.78-6.05-5.08-6.43-10-5.56-19.95,2.08-28,7.12-7.5,17.83-10.08,28.59-4.36,9.57,5.08,13.82,16.72,11.35,24.59C195.95,547.27,195.39,548.34,194.92,549.43Z" transform="translate(-129.77 -510.09)"/><path class="cls-19" d="M192.46,568.79a24.09,24.09,0,0,0,3.37-9.18c0.43-2.61,2-4.64,3.27-6.88,5.54-10.05,1.79-25.8-7.69-32.77-1.51-1.11-3.27-2-4.7-4H197c9.32,7.63,12.79,17.6,11.59,29.36-0.35,3.45-1.65,6.71-2.41,10.08-1.65,2.81-3.45,5.54-5,8.4-1.79,1.23-3.14,3-5,4.18C195.11,568.79,194,570,192.46,568.79Z" transform="translate(-129.77 -510.09)"/><path class="cls-19" d="M160.33,566.83V572c-19.61-7-27.69-31.44-16.21-48.72,1.66-2.5,4-4.49,5.21-7.31h7.8c0.28,1.92-1.34,2.56-2.45,3.49C144.52,528,141.52,541,147,553a28.48,28.48,0,0,0,9.69,11.16A19.62,19.62,0,0,1,160.33,566.83Z" transform="translate(-129.77 -510.09)"/><path class="cls-20" d="M225.07,516.05h4.57c1.58,1.46,2.23,3.45,2.87,5.38,6,17.91,4.15,35-5.71,51.12a7.31,7.31,0,0,1-2.6,2.84c-2.26.47-3.62-.82-4.8-2.45-0.5-3.46,2.36-5.39,3.69-8,0.38-.76,1.25-1.21,1.6-2a13.7,13.7,0,0,1,.81-1.84c3.33-5.56,4.11-11.81,4.43-18.05a51.89,51.89,0,0,0-4.38-22.74C225,518.94,223.89,517.61,225.07,516.05Z" transform="translate(-129.77 -510.09)"/><path class="cls-21" d="M223.7,575.45c8.92-12,12.29-25.67,11-40.41a44.61,44.61,0,0,0-4.46-16.5,4.52,4.52,0,0,1-.65-2.48h4.57a5.53,5.53,0,0,1,1.6,2.42,60.65,60.65,0,0,1,4.4,24.55,63.6,63.6,0,0,1-10.06,32,9.94,9.94,0,0,1-3.24,3.59C224.64,578.78,224,577.31,223.7,575.45Z" transform="translate(-129.77 -510.09)"/><path class="cls-22" d="M247.9,532.24c-1.21,1.3-.68,2.91-0.61,4.35,0.46,9.83-.58,19.42-4.17,28.64a71,71,0,0,1-12.76,21.69c-0.92,1-2.19,1.35-3.23,2.11-1.14-1.6-.35-3.12.2-4.65,10.4-11.13,15.33-24.57,16.35-39.54a64.37,64.37,0,0,0-3.48-25.36c-0.37-1.09-1-2.24-.12-3.4H244C245.65,521.38,247.37,526.66,247.9,532.24Z" transform="translate(-129.77 -510.09)"/><path class="cls-23" d="M160.33,566.83c-7.25-2.68-12-8-14.74-14.94-5-12.82-1.36-25.25,9.57-33.74a17,17,0,0,0,2-2.13h6.74c-0.3,1.59-1.47,1.86-2.39,2.31-8.68,4.29-13.62,11.43-14.59,20.85-0.92,9,3.81,18.59,12.16,23.6a3.3,3.3,0,0,0,1.28.14v3.92Z" transform="translate(-129.77 -510.09)"/><path class="cls-10" d="M226.33,578.64a61.86,61.86,0,0,0,12.54-31.85c1.11-10-.83-19.31-4.15-28.55a19.5,19.5,0,0,1-.52-2.18h3.26a5.64,5.64,0,0,1,1.62,2.77c7.59,21.92,4.27,42.26-8.88,61.16a8,8,0,0,1-2.42,2.6C225.57,581.91,225.72,580.37,226.33,578.64Z" transform="translate(-129.77 -510.09)"/><path class="cls-24" d="M227.65,582.54c0.77-2.81,3.11-4.59,4.55-7,7.35-12.24,10.84-25.42,9.78-39.67a60.21,60.21,0,0,0-3.31-15.47,13.09,13.09,0,0,1-1.21-4.35h2.62c3.31,9.37,5.19,19,4.55,29a67.09,67.09,0,0,1-14.5,37.89,3.14,3.14,0,0,1-2.39,1.53A1.27,1.27,0,0,1,227.65,582.54Z" transform="translate(-129.77 -510.09)"/><path class="cls-25" d="M225.07,516.05c1.27,3.65,2.7,7.26,3.79,11a50.83,50.83,0,0,1-1.11,32.1,4.67,4.67,0,0,1-1.93,2.49c-1.83-2.08-.76-4.77-1.5-7.09,0.34-4.4,1.1-8.74,1.17-13.2a49.21,49.21,0,0,0-4.52-21c-0.59-1.33-1.63-2.67-.47-4.22h4.57Z" transform="translate(-129.77 -510.09)"/><path class="cls-8" d="M205.56,556c-0.27-3.55,1.56-6.66,2.07-10.08,1.49-9.94-1.22-18.53-7.69-26-1.06-1.23-2.31-2.28-2.89-3.86h5.84c6.39,6.37,9.3,14.27,10,23.09a25.76,25.76,0,0,1-.88,10,3.46,3.46,0,0,0,.77,3.9C211,555.65,208.18,555.56,205.56,556Z" transform="translate(-129.77 -510.09)"/><path class="cls-17" d="M206.8,516h4a4,4,0,0,1,1.71,1.45c6.72,10.81,8.94,22.34,5.53,34.77a2.74,2.74,0,0,1-.67,1.1,3.61,3.61,0,0,1-3.79.12c-1.05-1.18-.45-2.49-0.17-3.71,2.49-10.78.17-20.65-5.5-29.93C207.18,518.7,205.89,517.65,206.8,516Z" transform="translate(-129.77 -510.09)"/><path class="cls-26" d="M206.8,516c2.43,4.67,5.34,9.07,6.87,14.21a37.29,37.29,0,0,1-.36,22.84,0.38,0.38,0,0,1-.6.05c-1.06-.23-2.88.64-2.16-1.88,3.63-12.61.56-23.83-7.26-34a4,4,0,0,1-.41-1.2h3.92Z" transform="translate(-129.77 -510.09)"/><path class="cls-27" d="M220.5,516c0,2.63,1.8,4.59,2.7,6.88,4,10.33,4,20.84,1.85,31.51-1.36.84-2.45,0.25-3.5-.64-0.87-2,0-3.85.38-5.73,1.74-9.34-.15-18.11-3.93-26.63-0.75-1.69-2.45-3.2-1.42-5.39h3.92Z" transform="translate(-129.77 -510.09)"/><path class="cls-13" d="M216.58,516c2.06,5.19,4.7,10.1,5.95,15.66,1.67,7.47.9,14.69-.74,22-0.93.85-1.71,0.59-2.4-.32-1.07-2.59-.06-5.18.25-7.7,1.07-8.72-.92-16.76-4.72-24.52-0.77-1.56-2.26-3.1-1-5.09h2.62Z" transform="translate(-129.77 -510.09)"/><path class="cls-28" d="M214,516c0.71,4.24,3.47,7.62,4.76,11.67a43.46,43.46,0,0,1,1.29,22,25.78,25.78,0,0,0-.21,3.56,1.78,1.78,0,0,1-2.58-.18c0.34-3.95,1.4-7.77,1.39-11.81a43,43,0,0,0-6.38-22.34c-0.55-.92-1-1.92-1.48-2.88H214Z" transform="translate(-129.77 -510.09)"/><path class="cls-29" d="M217.22,553.06l2.58,0.18a2.55,2.55,0,0,0,2,.43l3.26,0.77c1.36,2.27.25,4.81,0.76,7.17l-0.12,1.91c-2.55,1.15-4.74-.69-7.13-0.87a8.76,8.76,0,0,0-4.11-.45c-1.4.33-2.74,0.78-3.25,2.29s0.56,2.6,1.63,3.52a9.6,9.6,0,0,0,1.34.89c1.84,1.35,4.45,1.57,5.62,3.88l3.9,2.66,2.63,3.2,1.31,3.9,0.1,1.91L227.14,589c-1.78,4.61-5.27,7.26-9.91,8.58l-4.57.59-3.09-.11-6-1.18-0.21-.15h-0.25c-0.46-1-1.84-.19-2.26-1.21V591a3.69,3.69,0,0,1-.68-3.11c0.72-2.94,2.51-1.51,4.08-1,2.77,1.24,5.61,2.21,8.71,1.86,1.63-.19,3.31-0.5,3.85-2.36s-0.56-3-1.9-4.09a18.81,18.81,0,0,0-2.72-1.72c-0.9-.53-1.84-1-2.74-1.49-0.39-.22-0.75-0.48-1.12-0.74a21.19,21.19,0,0,1-4.08-2.82c-1.42-1.58-3.08-3-3.59-5.19s-1.31-4.57.24-6.77a15.44,15.44,0,0,1,4.7-7.57c2.09-1.67,4.77-1.88,7.15-2.85a0.68,0.68,0,0,0,.6-0.05Z" transform="translate(-129.77 -510.09)"/><path class="cls-30" d="M200.86,563.57l0.6,7.2c-1.14,2.56-3.55,3.74-5.73,5.06A45.31,45.31,0,0,1,175.46,582c-4.23.33-4.24,0.24-4.32,4.42q0.05,1.83,0,3.66c0,0.7,0,1.41,0,2.11s0,1.42,0,2.14a3.22,3.22,0,0,1-.82,2.51,15,15,0,0,1-9.83-.09c9.34,0.62,9.34.62,9.35-8.54,0-2.81.18-5.64,0-8.43s0.59-4.09,3.71-3.81a24.18,24.18,0,0,0,12.61-2.29,23.21,23.21,0,0,0,6.36-4.92c2.25,0,3.59-1.61,5.13-2.88C198.62,565.05,199.27,563.65,200.86,563.57Z" transform="translate(-129.77 -510.09)"/><path class="cls-31" d="M170.29,596.88l0.06-2.63c2.82-1.85,6.1-1,9.13-1.37a64.43,64.43,0,0,0,17.39-4.82c1.25-.54,2.52-1.45,3.93-0.34V591a71.67,71.67,0,0,1-24.8,6.45C174.11,597.61,172.11,597.91,170.29,596.88Z" transform="translate(-129.77 -510.09)"/><path class="cls-32" d="M160.33,553.78c-3.87-2-5-5.88-5.65-9.65a18.5,18.5,0,0,1,13.79-20.77A19.19,19.19,0,0,1,192,536.68c0.77,2.67.25,5.39,0.34,8.09l-4.61-3.85c-0.93-6.46-4-11.07-10.63-13-5.61-1.6-10.26.37-14,4.12a12.19,12.19,0,0,0-2.84,13.84v7.85Z" transform="translate(-129.77 -510.09)"/><path class="cls-33" d="M160.33,545.93c-3.32-2.95-1.84-6.46-.83-9.65,1.7-5.37,9.11-10.53,14.38-9.83,8,1.07,12,4.24,14.34,11.7a3.61,3.61,0,0,1-.47,2.77l-7.08-2.27c-1.49-1.84-2.89-3.75-5.45-4.26-2.12-.42-4.42-0.43-5.77,1.16-2.31,2.73-5.2,3-8.33,3.08C159.66,540.93,160.9,543.53,160.33,545.93Z" transform="translate(-129.77 -510.09)"/><path class="cls-34" d="M185.86,559c-1.13,6.52-8.3,10.6-14.72,8.49a1.38,1.38,0,0,1-1-1.69c0-1.18.08-2.36,0.12-3.53a3,3,0,0,1,2-.85,27,27,0,0,0,11.47-2.57A1.84,1.84,0,0,1,185.86,559Z" transform="translate(-129.77 -510.09)"/><path class="cls-35" d="M185.86,559c-5,2.21-10,3.88-15.6,3.26q0-2,0-3.92a4.2,4.2,0,0,1,2.7-.91c3.68-.42,7.27-1.08,10.39-3.3,0.68-.49,1.46-1,2.36-0.35C186.09,555.51,186.74,557.23,185.86,559Z" transform="translate(-129.77 -510.09)"/><path class="cls-36" d="M185.71,553.78a23.72,23.72,0,0,1-15.45,4.56q0-2.28,0-4.57a2.93,2.93,0,0,1,2-.84,15.75,15.75,0,0,0,9.21-2.39,2,2,0,0,1,2.42,0A5.29,5.29,0,0,1,185.71,553.78Z" transform="translate(-129.77 -510.09)"/><path class="cls-37" d="M161.13,538.63a13.82,13.82,0,0,0,7.9-3.9c3.95-3.54,10.63-1,11.65,3.93Z" transform="translate(-129.77 -510.09)"/><path class="cls-38" d="M183.94,550.51c-4.26,2.32-8.68,4-13.67,3.26q0-2,0-3.92c3.07-.83,6.26-1.13,9.3-2.06A5.67,5.67,0,0,1,183.94,550.51Z" transform="translate(-129.77 -510.09)"/><path class="cls-39" d="M179.57,547.8c-2.74,2.3-5.9,2.73-9.3,2.06-0.41-1.77-.11-2.73,2.11-2.8C174.84,547,177.24,546.84,179.57,547.8Z" transform="translate(-129.77 -510.09)"/><path class="cls-40" d="M218.52,561.68l7.18,1.83a19.55,19.55,0,0,0-5.89,9.27l-5.89-3.25A13.73,13.73,0,0,1,218.52,561.68Z" transform="translate(-129.77 -510.09)"/><path class="cls-17" d="M170.35,586.42c0-1,0-2-.11-2.93-0.12-1.63.5-2.34,2.23-2.33a44.44,44.44,0,0,0,29-10.4c0.61,1.91,2.48,2.87,3.4,4.53-3.33,4.26-8.09,6.36-12.86,8.39a45,45,0,0,1-18,3.62C172.74,587.31,171.4,587.44,170.35,586.42Z" transform="translate(-129.77 -510.09)"/><path class="cls-13" d="M170.35,586.42A49.61,49.61,0,0,0,200.93,578c1.31-.88,2.07-2.61,3.94-2.66l3.81,2.64c-6,6.05-13.43,9.43-21.41,11.82a40.92,40.92,0,0,1-13.87,1.47,4.17,4.17,0,0,1-3-.89v-3.91Z" transform="translate(-129.77 -510.09)"/><path class="cls-41" d="M212.2,579.79a12.19,12.19,0,0,1,1.74.8c2.24,1.48,5,2.9,3.84,6.22-1.14,3.15-4.21,2.9-6.89,2.74a13.5,13.5,0,0,1-6.73-1.9c-0.92-.49-1.44-1.36-0.61-2.07C206.19,583.31,208.46,580.43,212.2,579.79Z" transform="translate(-129.77 -510.09)"/><path class="cls-40" d="M212.2,579.79c-2.46,1.86-4.88,3.78-7.41,5.55-1,.69-1.33,1.29-0.64,2.32-1.11.71-2.29-3-3.36,0.06-3.86.73-7.16,3-10.92,4a67.87,67.87,0,0,1-19.52,2.52q0-1,0-2c1.05-1,2.4-.89,3.69-0.89,12.29,0,23.13-4.12,32.78-11.6,0.82-.63,1.47-1.69,2.78-1.3A4.75,4.75,0,0,1,212.2,579.79Z" transform="translate(-129.77 -510.09)"/><path class="cls-40" d="M209.6,578.48a58.1,58.1,0,0,1-13.8,8.92,56.55,56.55,0,0,1-25.44,4.88q0-1,0-1.95a50.49,50.49,0,0,0,35.78-11.07c0.73-.57,1.44-1.38,2.55-1.32Z" transform="translate(-129.77 -510.09)"/><path class="cls-42" d="M218.52,561.68a52.44,52.44,0,0,1-4.61,7.85,16.81,16.81,0,0,1-2.37-1.57c-2.39-2.22-1.76-5.19,1.32-6.23A9.19,9.19,0,0,1,218.52,561.68Z" transform="translate(-129.77 -510.09)"/></g></svg>