<svg id="Layer_1" data-name="Layer 1" xmlns="http://www.w3.org/2000/svg" viewBox="0 0 155.41 125.46"><defs><style>.cls-1{fill:#5755b0;}.cls-2{fill:#db8d24;}.cls-3{fill:#575ba2;}.cls-4{fill:#585ca3;}</style></defs><title>phpstorm</title><g id="UoOJVL"><path class="cls-1" d="M217.06,173.19c3.31,2.23,5.79,5,9.73,4,5.08-1.34,7.52-5.06,7.8-9.85a179.64,179.64,0,0,0,0-20c-0.22-4.21-1.48-8.38-6-10.18-4.89-1.95-8.62.42-12.11,4.22-0.58-6-4.75-3.41-7.49-3.72-3.43-.4-2.42,2.46-2.43,4.19-0.06,16.83-.12,33.67,0,50.5,0,3.68-.63,5.27-4.88,5.19-14.33-.29-28.66-0.18-43,0-3,0-4.14-.73-4-3.88,0.22-6.46.06-12.94,0.06-19.76,2.21,1.19,4,2.47,5.91,3.12,5.33,1.79,11-2.82,11.29-9.44,0.29-6,.07-12,0.11-18,0-5-.61-9.89-5.84-12.24-4.81-2.17-8.64.15-11.95,3.9-1.07-5.9-5.39-3.24-8.27-3.48-3.46-.29-2,2.82-2,4.42q-0.16,25.5,0,51c0,3-.38,4.5-4,4.44-3.32-.06-4.16-1-4.15-4.28q0.18-40,0-80c0-3.06.81-4,3.9-3.94,10.33,0.18,20.67.22,31,0,3.59-.08,4.43,1.08,4.4,4.51-0.16,19.16.14,38.34-.22,57.49-0.09,5,2.1,5,5.87,5.2,4.19,0.19,5.42-1.1,5.21-5.26-0.35-7-.08-14-0.1-21,0-2.45,0-5.07,3.39-4.89,3.11,0.16,2.75,2.83,2.76,4.95,0,7.5.2,15,0,22.5-0.17,5.1,3.37,3.37,5.8,3.52s5.37,1,5.19-3.58c-0.32-8.32-.06-16.66-0.1-25,0-10.51-5.85-13.94-15.35-9.11a10.11,10.11,0,0,1-1.64.46c0-9,.07-17.8,0-26.61,0-2.38.75-3.17,3.14-3.15,12.17,0.09,24.33.07,36.5,0,2.06,0,3,.6,3,2.82,0.41,14.71,7.63,26.15,18.51,35.1,9.63,7.92,8.57,18.62,2.09,26.33q-9.17,10.89-18.47,21.66c-1.58,1.83-10.81,3.09-12.69,1.92-1-.65-0.91-1.69-0.92-2.67C217.05,187.62,217.06,180.69,217.06,173.19Z" transform="translate(-135.84 -72.22)"/><path class="cls-2" d="M236.41,197.47c5.9-8.21,12.74-14.17,17.85-21.57,3.08-4.47,5.42-9.1,5.5-14.69A18.51,18.51,0,0,0,254,146.86c-6.08-5.89-12.56-11.51-16.18-19.46-7.25-15.92-4-30.62,4.69-45,4.35-7.17,9.3-11,18.34-10,8.71,1,17.62.21,27.06,0.21-1.7,4-4.82,6.54-7.31,9.4-3.71,4.28-7.42,8.52-10.74,13.13-6.14,8.52-7.21,21.59,3,30a55.41,55.41,0,0,1,10.58,11.25c9.11,13.22,10,27.29,3.77,41.71-8.36,19.45-8.56,19.37-29.46,19.37h-21.4Z" transform="translate(-135.84 -72.22)"/><path class="cls-3" d="M223.89,157.58c0,2.5.06,5,0,7.49-0.06,2-.83,3.55-3.2,3.65a3,3,0,0,1-3.35-3,95.68,95.68,0,0,1,0-17.43,3,3,0,0,1,3.34-3,3.1,3.1,0,0,1,3.13,3.24c0.14,3,0,6,0,9h0Z" transform="translate(-135.84 -72.22)"/><path class="cls-4" d="M154.8,156.9c0-2.66-.06-5.32,0-8,0.06-2.06,1-3.57,3.27-3.57a3,3,0,0,1,3.17,3.17c0.15,5.63.18,11.28,0,16.91a3.05,3.05,0,0,1-3.55,3.27c-2.39-.19-2.93-1.88-3-3.85-0.06-2.66,0-5.31,0-8h0Z" transform="translate(-135.84 -72.22)"/></g></svg>