<svg id="Layer_1" data-name="Layer 1" xmlns="http://www.w3.org/2000/svg" viewBox="0 0 170.55 127.08"><defs><style>.cls-1{fill:#b56796;}</style></defs><title>Sass</title><path class="cls-1" d="M569,386.42c-2.87-8.72-9.32-12.74-17.93-14.15a33.43,33.43,0,0,0-19.11,2.41c-0.69.3-1.36,0.88-2-.22-2.52-4.42-4.18-9-3.11-14.21,0.4-1.94,1-3.83,1.61-5.73,0.31-1,.16-1.89-0.92-2.29-2.85-1.07-5.7-.54-8.43.38-1.77.6-1.69,2.6-2.06,4.06-2,7.91-6.85,14.36-10.82,21.7a31.22,31.22,0,0,1-2.28-5.72A22,22,0,0,1,505.19,360c0.72-1.87.21-2.73-1.78-3.07a16.91,16.91,0,0,0-5.39.11c-2.09.31-3.46,1.18-3.69,3.44a9.22,9.22,0,0,1-.73,2.68c-4.82,11.2-9.65,22.4-15.19,33.28-0.24.46-.31,1.22-1.27,1a18.6,18.6,0,0,1,.21-4.54c1.11-5.31,2.6-10.53,4-15.78,0.76-2.89-1-4.65-4-4.05-0.44.09-.75,0.57-1.38,0.33,0-.69.12-1.4,0.14-2.12,0.07-2.6.15-5.32-2.16-7.1s-5.12-1.18-7.62-.09a26.84,26.84,0,0,0-9.32,7.06c-0.74.84-1.24,1.89-2.29,2.46-5.1,2.77-10.21,5.52-15.28,8.34a1.45,1.45,0,0,1-2-.38c-1.22-1.22-2.51-2.38-3.83-3.5-4.93-4.17-10.28-7.81-15.08-12.16-7-6.38-8.89-14-5-22.41a30.89,30.89,0,0,1,8.32-10.59c13.4-11.32,28.52-19.34,45.87-22.87,7-1.43,14.05-1.69,21,.49,7.41,2.32,10.19,7.72,7.68,15a28.12,28.12,0,0,1-6.06,10c-7.84,8.5-17.72,13.3-29,15.23-7.81,1.33-15.53,1.5-21.68-4.84a0.9,0.9,0,0,0-1.27-.12,1.07,1.07,0,0,0-.34,1.25,8.86,8.86,0,0,0,1.81,3.5,18.29,18.29,0,0,0,11.57,6.18,55,55,0,0,0,33.57-6.06c10.4-5.53,18-13.75,20.88-25.42,2.69-10.73-1.75-19.14-12-23.41a53.7,53.7,0,0,0-9.81-2.6,3.85,3.85,0,0,0-2.41-.28H470.32a3.94,3.94,0,0,0-2.41.27c-1.12.2-2.24,0.31-3.35,0.53-12.27,2.39-23.53,7.32-34.31,13.41-10.14,5.73-19.26,12.66-26,22.27a30.22,30.22,0,0,0-5.58,12.83c-0.95,6.23,2,11.16,5.75,15.73,5,6.15,11.58,10.55,18.05,15a83.19,83.19,0,0,1,9.33,6.84,3.79,3.79,0,0,1-.56.5c-0.76.41-1.54,0.8-2.3,1.2-7,3.69-13.7,7.74-19.27,13.43a18.66,18.66,0,0,0-5.59,14.57c0.28,5.5,3.43,9.1,8.87,10.06a24,24,0,0,0,14.62-2.18,28.4,28.4,0,0,0,14.56-35.22c-0.23-.62-0.65-1.23.21-1.72l8.72-5a44.83,44.83,0,0,0-1.81,7.92c-1,6.57-.05,12.78,3.72,18.42a5.69,5.69,0,0,0,4.91,2.56c3.26,0.12,5-1.93,6.38-4.37a81.46,81.46,0,0,0,4.55-9.5c0.14-.08.28-0.35,0.4-0.2a0.91,0.91,0,0,1,0,1,18.1,18.1,0,0,0,1,8c1.2,2.91,4,3.67,6.53,1.75a15.76,15.76,0,0,0,4.15-4.8c3.34-5.89,6.58-11.83,9.4-18,1.87-4.07,3.63-8.2,5.61-12.7,1,4.27,1.83,8.21,4,11.59a3.58,3.58,0,0,1-.55,5.06c-0.14.14-.26,0.3-0.39,0.46-3.16,3.85-6.33,7.7-9.47,11.56-0.87,1.07-1.45,2.32-.75,3.67s2.09,1.66,3.58,1.72a20.78,20.78,0,0,0,9.5-2.08c4.76-2.15,8.26-5.35,9-10.83a16.84,16.84,0,0,0-1.43-8.13,2.21,2.21,0,0,1,.25-2.35A110.31,110.31,0,0,0,515.89,372c1-1.75,1.94-3.49,3.13-5.64a42.29,42.29,0,0,0,3.06,10.13c1.51,3.06,1.45,3.05-1,5.4a33.07,33.07,0,0,0-2.91,3.28c-2.5,3.18-4.54,6.59-4.51,10.79,0,2.83,1.6,4.23,4.42,4.21a13.22,13.22,0,0,0,5.52-1.67c6.38-3,12.84-8.51,9.14-17.8-0.47-1.19.3-1.35,1.07-1.61a32.71,32.71,0,0,1,12.65-1.57c5.13,0.32,10.07,1.33,14.33,4.43,7.08,5.16,7.23,12.23.37,17.33-0.46.34-1.19,0.63-.83,1.37s1.18,0.44,1.77.24a10.94,10.94,0,0,0,4.08-2.86c1.43-1.35,1.78-3.19,2.78-4.7V387A1.61,1.61,0,0,0,569,386.42ZM437,395.4a21.79,21.79,0,0,1-15.9,20.74c-4.69,1.23-7.15-1-6.31-5.75,0.95-5.36,4.39-9.05,8.48-12.3a109.91,109.91,0,0,1,11.39-7.71c1.09-.66,1.67-0.6,1.85.74A18.85,18.85,0,0,1,437,395.4Zm34-21.63A135.84,135.84,0,0,1,461.82,398a5.38,5.38,0,0,1-.51.85c-0.44.57-.83,1.33-1.67,1.24s-1.06-.94-1.27-1.62a21.63,21.63,0,0,1-.83-5.67c0.56-7.9,3.07-15.36,9.28-21.28l0.15-.13c1.2-.81,2.52-2.1,3.93-1.26S471.38,372.59,471,373.77Zm24.3,26.46c2.5-3,5.22-5.9,7.64-9.16C503.6,394.37,499.72,399.08,495.34,400.23ZM526.51,386c0,3.83-2,6.44-5.34,8.17a1.38,1.38,0,0,1-1.49.26c-0.53-.39-0.19-1,0-1.47a20.83,20.83,0,0,1,5.17-8.81c0.34-.35.63-1.06,1.22-0.78a1.58,1.58,0,0,1,.48,1.44C526.53,385.24,526.51,385.64,526.51,386Z" transform="translate(-398.47 -298.94)"/></svg>