<svg id="Layer_1" data-name="Layer 1" xmlns="http://www.w3.org/2000/svg" viewBox="0 0 193.5 193.54"><defs><style>.cls-1{fill:#417396;}.cls-2{fill:#fefefe;}</style></defs><title>wordpress</title><g id="LnveCy.tif"><path class="cls-1" d="M409.41,620.49A96.29,96.29,0,0,1,431,563.4a97.2,97.2,0,0,1,44.92-31,94.5,94.5,0,0,1,14.87-3.6,97.06,97.06,0,0,1,45.36,3.6,95.34,95.34,0,0,1,26.92,13.86,96.68,96.68,0,0,1,32.05,40.36,94,94,0,0,1,6.3,21.48,96.83,96.83,0,0,1,1.27,12A96.18,96.18,0,0,1,584,681.74a97.39,97.39,0,0,1-38.09,30.84,94.9,94.9,0,0,1-19.85,6.5,96,96,0,0,1-12.38,1.77c-2,.15-4,0.24-6,0.29-1,.07-2,0-3,0-1.83,0-3.66,0-5.48-.13a98.19,98.19,0,0,1-9.77-1.2,96.31,96.31,0,0,1-15.07-3.9,98,98,0,0,1-22.77-11.5,98.72,98.72,0,0,1-9.17-7.1q-2.49-2.17-4.82-4.5-2.88-2.88-5.51-6A100,100,0,0,1,425,677.3c-1.64-2.49-3.13-5.06-4.54-7.69a95.42,95.42,0,0,1-6.89-16.51,93.38,93.38,0,0,1-3.38-15c-0.32-2.31-.59-4.62-0.72-6.94-0.05-1-.09-1.91-0.07-2.86q0-.45,0-0.91a6.67,6.67,0,0,0-.05-1.26v-3.21a7.62,7.62,0,0,0,.05-1.38A7.68,7.68,0,0,1,409.41,620.49Z" transform="translate(-409.33 -527.64)"/><path class="cls-2" d="M598.38,623.54a92.31,92.31,0,1,1-94.75-91.42A92.37,92.37,0,0,1,598.38,623.54Z" transform="translate(-409.33 -527.64)"/><path class="cls-1" d="M436.74,578.79a82.46,82.46,0,0,1,28-26.37A82.93,82.93,0,0,1,562,563.14a12.1,12.1,0,0,0-2.84.12,13.2,13.2,0,0,0-9.08,5.5,15.34,15.34,0,0,0-2.79,11.71,28.49,28.49,0,0,0,3.58,9.57c1.58,2.9,3.45,5.62,5.07,8.5a47,47,0,0,1,5.22,13,37.56,37.56,0,0,1,.8,11.28,59.65,59.65,0,0,1-2.05,10.45c-1.43,5.26-3.16,10.42-4.72,15.63l-7.56,25.25c0,0.11-.07.21-0.11,0.32a0.42,0.42,0,0,1-.19-0.34l-23.2-69q-3.24-9.62-6.48-19.25c-0.13-.39-0.11-0.51.34-0.53,3.05-.14,6.1-0.41,9.14-0.77a3.43,3.43,0,0,0,.21-6.77,11.18,11.18,0,0,0-2.57.08c-2.24.13-4.49,0.32-6.73,0.44-4.51.25-9,.49-13.53,0.49-4.68,0-9.35-.24-14-0.53-2.66-.17-5.33-0.38-8-0.51a3.35,3.35,0,0,0-3.64,3.7,3.15,3.15,0,0,0,3,3.1c2.83,0.31,5.66.62,8.5,0.77a0.52,0.52,0,0,1,.51.47l4.54,12.43q4,11,8,22a1.51,1.51,0,0,1,0,1.07q-8.91,26.69-17.81,53.38a0.75,0.75,0,0,1-.23.45l-2-5.79-28-83.42c-0.2-.59-0.2-0.58.42-0.61,3-.17,6-0.42,9-0.78a3.43,3.43,0,0,0,.21-6.76,11.16,11.16,0,0,0-2.61.08c-2.2.13-4.39,0.31-6.59,0.44-4.65.26-9.31,0.49-14,.49-1.62,0-3.24-.05-4.85-0.08Z" transform="translate(-409.33 -527.64)"/><path class="cls-1" d="M430.26,590.69c0.27,0.58,39.43,107.92,39.52,108.32C429.27,679.56,412.16,631,430.26,590.69Z" transform="translate(-409.33 -527.64)"/><path class="cls-1" d="M547.82,696.1l2.36-6.86q11.45-33.09,22.91-66.17c1-2.81,2.1-5.56,3-8.41a76.89,76.89,0,0,0,3.17-16,66.5,66.5,0,0,0-.29-13.91C598.47,618.77,590.68,670.87,547.82,696.1Z" transform="translate(-409.33 -527.64)"/><path class="cls-1" d="M507.54,631.68l4.52,12.37L533,701.32a6.16,6.16,0,0,0,.47,1c0.17,0.28.14,0.39-.19,0.5a85.58,85.58,0,0,1-8.66,2.47,82.67,82.67,0,0,1-28.54,1.48,84.51,84.51,0,0,1-13-2.62c-0.42-.12-0.43-0.26-0.31-0.61q9.87-28.64,19.72-57.28l4.81-14C507.38,632.12,507.44,632,507.54,631.68Z" transform="translate(-409.33 -527.64)"/></g></svg>