<svg id="_ÎÓÈ_1" data-name="—ÎÓÈ_1" xmlns="http://www.w3.org/2000/svg" xmlns:xlink="http://www.w3.org/1999/xlink" viewBox="0 0 279.96 385.19"><defs><style>.cls-1{fill:url(#radial-gradient);}.cls-2{fill:url(#linear-gradient);}.cls-3{fill:#fff;}.cls-4{fill:url(#radial-gradient-2);}.cls-5{fill:url(#linear-gradient-2);}.cls-6{fill:url(#radial-gradient-3);}.cls-7{fill:url(#linear-gradient-3);}</style><radialGradient id="radial-gradient" cx="225" cy="567.01" fy="483.2087616671166" r="232.26" gradientTransform="translate(-5.83 -31.12) scale(0.65 0.72)" gradientUnits="userSpaceOnUse"><stop offset="0" stop-color="#f6f6f6"/><stop offset="0.41" stop-color="#f3f3f3"/><stop offset="0.73" stop-color="#e9e9e9"/><stop offset="1" stop-color="#dadada"/></radialGradient><linearGradient id="linear-gradient" x1="139.98" y1="372.27" x2="139.98" y2="359.36" gradientUnits="userSpaceOnUse"><stop offset="0" stop-color="#ededed"/><stop offset="1" stop-color="#dadada"/></linearGradient><radialGradient id="radial-gradient-2" cy="312.28" fy="228.4832989813773" r="232.26" xlink:href="#radial-gradient"/><linearGradient id="linear-gradient-2" x1="139.98" y1="189.52" x2="139.98" y2="176.6" xlink:href="#linear-gradient"/><radialGradient id="radial-gradient-3" cy="66.13" fy="-17.666919903850996" r="232.26" xlink:href="#radial-gradient"/><linearGradient id="linear-gradient-3" x1="139.98" y1="12.91" x2="139.98" y2="0" xlink:href="#linear-gradient"/></defs><title>Shelves3 [Converted]</title><rect class="cls-1" y="372.27" width="279.96" height="12.91"/><polygon class="cls-2" points="17.5 359.36 0 372.27 279.96 372.27 262.46 359.36 17.5 359.36"/><path class="cls-3" d="M289,419.59s-89.08.65-140,.65S9,419.59,9,419.59s89.08-.65,140-0.65S289,419.59,289,419.59Z" transform="translate(-9 -47.32)"/><rect class="cls-4" y="189.52" width="279.96" height="12.91"/><polygon class="cls-5" points="17.5 176.6 0 189.52 279.96 189.52 262.46 176.6 17.5 176.6"/><path class="cls-3" d="M289,236.84s-89.08.65-140,.65S9,236.84,9,236.84s89.08-.65,140-0.65S289,236.84,289,236.84Z" transform="translate(-9 -47.32)"/><rect class="cls-6" y="12.91" width="279.96" height="12.91"/><polygon class="cls-7" points="17.5 0 0 12.91 279.96 12.91 262.46 0 17.5 0"/><path class="cls-3" d="M289,60.23s-89.08.65-140,.65S9,60.23,9,60.23s89.08-.65,140-0.65S289,60.23,289,60.23Z" transform="translate(-9 -47.32)"/></svg>